<?xml version="1.0" encoding="utf-8"?>
<!-- Generator: Adobe Illustrator 26.5.0, SVG Export Plug-In . SVG Version: 6.00 Build 0)  -->
<svg version="1.1" id="Layer_4" xmlns="http://www.w3.org/2000/svg" xmlns:xlink="http://www.w3.org/1999/xlink" x="0px" y="0px"
	 viewBox="0 0 500 500" style="enable-background:new 0 0 500 500;" xml:space="preserve">
<style type="text/css">
	.st0{fill:#D09230;}
	.st1{fill:#FFFFFF;}
</style>
<circle class="st0" cx="339.55" cy="194.09" r="149.67"/>
<g>
	<path class="st1" d="M422.24,313.73c-9-4.42-18.87,1.89-18.9,12.36c-0.07,28.82-0.08,57.65,0.05,86.48
		c0.01,3.21-0.49,4.28-4.06,4.27c-119.24-0.11-238.48-0.1-357.72-0.01c-3.32,0.01-3.87-1-3.87-4.03c0.09-49.63,0.1-99.27-0.02-148.9
		c0-3.31,0.98-3.88,4.03-3.88c45.41,0.1,90.82,0.07,136.23,0.06c1.5,0,3.01,0.07,4.49-0.07c9.02-0.88,14.57-10.14,10.81-18.25
		c-2.64-5.69-7.4-7.82-13.56-7.82c-45.96,0.06-91.91-0.01-137.87,0.13c-3.48,0.01-4.17-0.91-4.13-4.22
		c0.2-14.69,0.22-29.37-0.01-44.06c-0.05-3.49,0.93-4.12,4.23-4.11c45.41,0.11,90.82,0.08,136.23,0.07c1.49,0,3.01,0.07,4.49-0.09
		c9.01-1,14.39-10.33,10.53-18.4c-2.72-5.67-7.54-7.66-13.67-7.65c-46.1,0.07-92.18,0.03-138.28,0.03
		C22.2,155.65,11.7,166.1,11.7,185.06V413.1c0,19.32,10.39,29.76,29.62,29.76h358.53c1.77,0,3.55,0.04,5.3-0.14
		c10.12-1.06,17.43-6.13,21.96-15.3c0.81-1.64,0.48-3.81,2.32-4.95V322.1C427.56,318.86,425.9,315.53,422.24,313.73z"/>
	<path class="st1" d="M429.42,185.84c0,0,0,0.01,0,0.01C429.42,185.85,429.42,185.84,429.42,185.84l0-59.57
		c-2.05-3.98-4.57-7.35-8.98-9.22c-29.92-12.73-59.78-25.57-89.67-38.41c-3.68-1.58-7.37-1.81-11.06-0.24
		c-30.26,12.95-60.53,25.92-90.76,38.93c-5.36,2.31-8.43,6.58-8.33,12.43c0.49,28.65-1.78,57.38,2.37,85.93
		c4.13,28.3,15.35,53.27,34.68,74.47c17.31,18.99,38.22,33.3,60.25,46.15c4.94,2.87,9.76,2.58,14.65-0.29
		c15.25-8.92,29.96-18.63,43.49-30.08c28.51-24.14,46.21-54.27,51.13-91.62c0.67-5.15,0.61-10.43,2.23-15.45v-3.27c0,0,0,0,0-0.01
		c0,0,0,0.01,0,0.01C429.42,192.36,429.42,189.1,429.42,185.84z M360.59,284.94c-10.36,8.83-21.47,16.58-33.05,23.7
		c-1.39,0.86-2.49,1.68-4.36,0.51c-19.45-12.11-37.94-25.32-52.21-43.66c-13.02-16.75-19.88-35.87-22.65-56.7
		c-1.85-13.92-1.72-27.92-1.66-37.73c0-12.74,0.07-21.3-0.04-29.86c-0.03-2.17,0.48-3.33,2.63-4.24
		c24.32-10.3,48.59-20.71,72.84-31.17c2.03-0.88,3.69-0.91,5.76-0.02c24.25,10.47,48.52,20.87,72.83,31.17
		c2.1,0.89,2.74,1.98,2.69,4.2c-0.39,19.7,0.55,39.4-0.81,59.1C400.22,234.28,386.71,262.69,360.59,284.94z"/>
	<path class="st1" d="M78.39,312.32c-8.6,0.01-14.53,5.45-14.47,13.15c0.06,7.54,5.92,12.9,14.27,12.94
		c8.3,0.04,16.59,0.01,24.88,0.01c8.16,0,16.32,0.02,24.47-0.01c8.7-0.02,14.61-5.28,14.66-12.95c0.06-7.7-5.88-13.13-14.48-13.14
		C111.29,312.29,94.84,312.29,78.39,312.32z"/>
	<path class="st1" d="M372.45,158.62c-5.98-4.9-13.87-3.71-19.34,3.01c-4.79,5.91-9.5,11.89-14.24,17.83
		c-8.55,10.68-17.1,21.36-25.94,32.4c-5.26-7.87-10.27-15.42-15.35-22.92c-4.92-7.28-12.46-9.22-18.89-4.97
		c-6.47,4.29-7.69,12-2.88,19.29c8.08,12.23,16.19,24.43,24.38,36.58c6.24,9.27,15.98,9.71,22.95,1.04
		c16.83-20.98,33.62-41.99,50.38-63.01C378.83,171.18,378.34,163.45,372.45,158.62z"/>
</g>
</svg>
