<?xml version="1.0" encoding="utf-8"?>
<!-- Generator: Adobe Illustrator 26.5.0, SVG Export Plug-In . SVG Version: 6.00 Build 0)  -->
<svg version="1.1" id="Layer_4" xmlns="http://www.w3.org/2000/svg" xmlns:xlink="http://www.w3.org/1999/xlink" x="0px" y="0px"
	 viewBox="0 0 500 500" style="enable-background:new 0 0 500 500;" xml:space="preserve">
<style type="text/css">
	.st0{fill:#D09230;}
	.st1{fill:#FFFFFF;}
</style>
<circle class="st0" cx="339.55" cy="194.09" r="149.67"/>
<g>
	<path class="st1" d="M389.37,264.43c-5.56-33.34-18.89-63.26-41.82-88.12c-47.65-51.63-106.42-70.52-174.73-53.98
		c-53.25,12.89-91.59,45.85-115.73,95.12c-4.55,9.29-7.97,19.02-10.67,28.99c-1.25,4.6,1.15,8.72,5.51,9.95
		c4.19,1.18,8.19-0.98,9.77-5.31c0.33-0.94,0.56-1.91,0.83-2.87c6.46-22.75,17.58-42.96,33.03-60.84c1.52-1.75,2.37-2.18,4.18-0.25
		c4.51,4.83,9.25,9.44,13.97,14.06c3.81,3.73,8.69,3.93,11.95,0.65c3.27-3.29,3.04-8.12-0.7-11.96c-4.35-4.46-8.64-9.01-13.27-13.17
		c-2.72-2.43-2.35-3.82,0.36-5.69c2.35-1.62,4.42-3.65,6.7-5.38c25.44-19.35,54.12-30.15,85.96-32.75c2.67-0.22,3.38,0.41,3.29,3.09
		c-0.22,5.98-0.08,11.97-0.07,17.95c0.01,6.78,2.77,10.39,7.95,10.44c5.21,0.05,8.12-3.6,8.13-10.26c0.01-4.11-0.1-8.23,0.04-12.34
		c0.1-2.93-1.37-6.78,0.65-8.55c1.81-1.58,5.47,0.01,8.3,0.32c33.42,3.64,62.72,16.67,88.12,38.64c1.88,1.62,1.29,2.34-0.06,3.66
		c-4.55,4.44-9.03,8.96-13.51,13.47c-4.23,4.27-4.71,9.01-1.32,12.49c3.41,3.49,8.25,3.09,12.48-1.07c2.58-2.53,5.1-5.13,7.68-7.66
		c2.58-2.52,5.34-7.11,7.78-6.95c3.23,0.21,5.26,5.01,7.59,8.01c19.88,25.57,30.9,54.56,33.51,86.81c0.22,2.7-0.47,3.35-3.11,3.27
		c-6.48-0.2-12.97-0.07-19.45-0.06c-3.32,0-6.15,1.04-7.92,4.03c-3.21,5.44,0.61,11.81,7.38,12.01c6.73,0.19,13.47,0.16,20.2-0.02
		c2.5-0.06,3.09,0.65,2.89,3.1c-2.92,35.63-15.89,67.03-39.23,94.15c-1.6,1.85-2.3,1.32-3.63-0.05c-4.61-4.73-9.29-9.4-14.01-14.03
		c-3.98-3.91-8.91-4.14-12.21-0.69c-3.2,3.33-2.89,8.08,0.91,11.94c4.54,4.63,9.06,9.29,13.79,13.72c2,1.87,1.75,2.73-0.23,4.43
		c-18.29,15.79-39.08,26.85-62.29,33.47c-5.56,1.58-7.99,5.47-6.57,10.2c1.4,4.67,5.55,6.52,11.12,4.97
		c76.11-21.23,128.51-90.2,128.69-169.38C391.52,282.75,390.88,273.54,389.37,264.43z"/>
	<path class="st1" d="M209.1,387.81c-11.47-1.18-22.53-3.76-33.08-8.54c-5.05-2.29-9.04-0.73-11.45,4.26
		c-2.92,6.04-5.7,12.15-8.48,18.26c-0.75,1.66-1.25,2.6-3.43,1.33c-20.08-11.64-35.9-27.46-47.56-47.52
		c-1.15-1.97-0.72-2.67,1.15-3.5c6.12-2.74,12.22-5.56,18.26-8.47c5.05-2.43,6.68-6.38,4.42-11.39c-4.71-10.43-7.33-21.35-8.54-32.7
		c-1.05-9.95-7.25-15.35-17.22-15.4c-8.73-0.04-17.46,0-26.19,0c-8.98,0-17.96-0.04-26.93,0.01c-6.75,0.03-9.79,3.13-9.68,9.93
		c0.15,8.74,0.72,17.45,2.23,26.06c8.04,46.06,30.45,83.59,67.6,111.98c30.76,23.51,65.83,35.02,104.49,35.68
		c5.9,0.1,9.26-3.03,9.29-8.81c0.09-18.46,0.16-36.92-0.03-55.37C223.86,394.85,217.96,388.73,209.1,387.81z M204.85,451.48
		c-34.96-2.81-65.99-15.28-92.6-38.17c-28.06-24.12-45.67-54.49-52.98-90.8c-1.3-6.48-1.97-13.05-2.61-19.62
		c-0.21-2.14,0.39-2.73,2.55-2.71c14.21,0.09,28.42,0.08,42.64,0c2.04-0.02,2.72,0.53,2.91,2.61c0.84,9.2,2.73,18.22,5.99,26.88
		c0.82,2.18,0.07,2.81-1.62,3.58c-6.11,2.77-12.2,5.58-18.26,8.46c-5.84,2.77-7.26,6.72-4.46,12.46
		c14.75,30.31,37.32,52.83,67.61,67.6c5.59,2.72,9.63,1.36,12.28-4.18c2.95-6.17,5.77-12.39,8.63-18.6
		c0.66-1.43,1.13-2.52,3.26-1.71c8.76,3.35,17.89,5.26,27.23,6.09c2.14,0.19,2.58,1.01,2.55,2.98c-0.11,7.11-0.04,14.22-0.04,21.33
		c0,6.98-0.12,13.97,0.06,20.94C208.06,451.2,207.24,451.68,204.85,451.48z"/>
	<path class="st1" d="M194.8,283.63c-1.14,0.4-2.44,0.44-3.67,0.48c-2.37,0.08-4.74-0.03-7.11,0.05
		c-12.7,0.44-22.53,8.94-23.62,21.53c-0.78,8.91-0.44,17.94-0.2,26.91c0.12,4.56,3.57,7.38,8.24,7.44
		c6.6,0.09,13.21,0.03,19.82,0.03h11.59c2.62,0,5.24,0.07,7.86-0.02c4.77-0.15,8.21-3.49,8.25-7.9c0.05-4.42-3.33-7.89-8.13-7.94
		c-9.6-0.11-19.2-0.04-28.79-0.04c-1.5,0-3.02,0.31-2.94-2.11c0.14-4.86-0.07-9.73,0.14-14.58c0.18-4.08,3.12-6.9,7.21-7.16
		c2.86-0.18,5.74-0.02,8.6-0.12c12.36-0.44,22.04-8.76,23.65-20.81c0.59-4.41,0.49-8.98,0.13-13.43
		c-0.95-11.57-10.61-21.08-22.1-21.56c-8.59-0.35-17.2-0.17-25.8-0.06c-3.57,0.04-6.13,1.94-7.33,5.36
		c-1.84,5.29,1.8,10.33,7.7,10.44c7.73,0.15,15.46-0.04,23.19,0.09c4.83,0.08,7.8,2.8,8.48,7.31
		C201.29,276.29,199.51,281.99,194.8,283.63z"/>
	<path class="st1" d="M268.65,300.16c2.61-0.04,3.36,0.69,3.31,3.32c-0.15,9.22-0.01,18.45-0.08,27.68
		c-0.03,3.41,1.09,6.14,4.07,7.86c5.44,3.16,11.78-0.86,11.83-7.58c0.08-13.1,0.02-26.19,0.02-39.29c0-12.97-0.03-25.94,0.02-38.91
		c0.01-3.39-1.1-6.13-4.08-7.86c-5.34-3.12-11.69,0.62-11.79,7.1c-0.15,9.48-0.15,18.96,0.02,28.43c0.04,2.68-0.8,3.36-3.36,3.28
		c-5.86-0.18-11.72-0.16-17.58,0c-2.37,0.06-3.18-0.5-3.13-3.03c0.16-9.11,0.04-18.21,0.06-27.32c0.01-3.27-0.7-6.19-3.61-8.14
		c-2.62-1.74-5.39-1.93-8.14-0.46c-3.2,1.71-4.34,4.62-4.34,8.11c0.01,12.35-0.02,24.69,0.01,37.04c0.02,6.78,3.05,9.79,9.83,9.82
		C250.69,300.25,259.67,300.32,268.65,300.16z"/>
</g>
</svg>
