<?xml version="1.0" encoding="utf-8"?>
<!-- Generator: Adobe Illustrator 26.5.0, SVG Export Plug-In . SVG Version: 6.00 Build 0)  -->
<svg version="1.1" id="Layer_4" xmlns="http://www.w3.org/2000/svg" xmlns:xlink="http://www.w3.org/1999/xlink" x="0px" y="0px"
	 viewBox="0 0 500 500" style="enable-background:new 0 0 500 500;" xml:space="preserve">
<style type="text/css">
	.st0{fill:#D09230;}
	.st1{fill:#FFFFFF;}
</style>
<circle class="st0" cx="339.55" cy="194.09" r="149.67"/>
<g>
	<path class="st1" d="M440.02,310.45c-12.01-8.2-27.01-6.82-36.75,3.7c-2.18,2.35-3.26,1.83-5.39,0.24
		c-11.52-8.69-28.68-10.24-40.51,3.67c-13.53,15.9-27.59,31.34-40.97,47.36c-1.96,2.34-3.37,2.29-5.94,1.19
		c-31.87-13.7-64.25-26.14-97.51-36.12c-16.78-5.03-33.63-10.3-51.14-11.32c-35.92-2.07-69.68,5.24-99.68,26.03
		c-6.88,4.77-13.84,9.63-18.2,17.14v1.61c3.06,6.11,6.84,6.93,11.48,2.63c32.27-29.91,70.98-39.18,113.56-34.24
		c21.01,2.45,41.02,9.64,61.04,16.32c25.46,8.48,50.44,18.23,75.13,28.71c8.37,3.56,12.7,10.71,12.17,19.71
		c-0.47,7.75-6.05,14.72-13.62,17.15c-5.1,1.65-10.03,0.64-14.97-0.72c-20.07-5.55-40.14-11.1-60.22-16.62
		c-5.55-1.52-8.98-0.34-10.07,3.36c-1.1,3.83,1.16,6.62,6.65,8.18c3.98,1.13,7.96,2.23,11.96,3.32
		c17.76,4.86,35.45,10.1,53.32,14.49c18.63,4.56,36.47-7.98,38.8-26.75c0.27-2.09,0.91-2.67,2.85-2.81
		c3.87-0.3,7.71-1.13,11.57-1.22c4.25-0.11,7.17-1.88,9.86-5.11c18.99-22.69,37.96-45.39,57.93-67.23c5.77-6.3,11.7-7.56,19.44-4.05
		c7.98,3.62,12.76,11.08,12.07,18.56c-0.66,7.06-4.39,12.53-8.94,17.53c-17.45,19.24-34.12,39.17-50.75,59.11
		c-1.33,1.58-2.87,2.68-4.7,3.59c-39.75,19.85-79.51,39.68-119.19,59.66c-2.46,1.22-4.31,1.1-6.68,0.08
		c-19.65-8.36-39.32-16.62-59.01-24.88c-4.63-1.94-8.22-1.05-9.69,2.29c-1.58,3.59,0.22,6.76,5.11,8.84
		c5.52,2.37,11.07,4.66,16.59,7.01c16.29,6.95,32.58,13.91,48.87,20.87h4.03c0.2-1,1.21-0.92,1.85-1.25
		c40.45-20.26,80.9-40.51,121.43-60.64c4.89-2.43,8.94-5.5,12.4-9.78c16.85-20.79,34.84-40.64,52.13-61.05
		C460.4,342.39,457.5,322.38,440.02,310.45z M390.96,327.78c-14.08,16.32-28.6,32.3-41.83,49.29c-5.75,7.4-12.87,6.68-20.15,7.76
		c-1.46,0.22-1.69-0.94-2.18-1.87c-3.64-7.02-3.67-7.06,1.68-13.22c12.92-14.83,25.89-29.63,38.8-44.48
		c3.04-3.5,6.59-5.86,9.78-5.64c6.08,0.2,9.94,1.87,13.59,4.25C392.67,325.19,392.41,326.1,390.96,327.78z"/>
	<path class="st1" d="M160.6,438.8c-7.12-3.03-14.3-5.93-21.39-9.02c-2.63-1.14-5.28-1.65-8.15-1.65
		c-25.84,0.05-51.66,0.09-77.5-0.05c-4.01-0.02-7.32,0.69-9.64,4.17v4.01c2.57,3.46,6.08,4.08,10.19,4.03
		c17.81-0.16,35.64,0.58,53.4-0.25c16.92-0.77,32.93,1.24,47.8,9.67c0.24,0.13,0.5,0.17,0.75,0.28c4.37,1.68,7.82,0.64,9.17-2.78
		C166.59,443.8,164.91,440.65,160.6,438.8z"/>
	<path class="st1" d="M214.89,319.03c4.09,1.38,7.32-0.14,8.44-3.62c1.07-3.37-0.53-6.21-4.52-7.7c-3.25-1.22-6.62-2.13-9.8-3.48
		c-47.62-20.02-74.36-66.13-67.78-117.29c3.17-24.58,13.81-45.88,31.7-62.87c30.56-29.02,66.98-39.04,107.4-27.05
		c43.52,12.93,69.79,43.08,77.83,88.02c5,27.94-1.21,53.93-16.56,77.73c-4.06,6.32-8.78,12.17-14.8,17.64
		c0-10.29,0.03-19.91,0-29.54c-0.02-5.03-2.21-7.89-6-7.9c-3.83-0.03-6.04,2.79-6.04,7.84c-0.02,13.66-0.02,27.31,0,40.98
		c0,6.58,2.27,8.73,8.91,7.85c13.92-1.83,27.81-3.87,41.74-5.83c0.25-0.03,0.52-0.09,0.78-0.16c3.86-0.93,5.96-3.42,5.61-6.66
		c-0.38-3.42-3.2-5.66-7.27-5.17c-8.11,0.96-16.16,2.18-25.1,3.4c1.54-1.87,2.63-3.18,3.72-4.5c24.19-29.3,33.13-62.84,26.65-100.11
		C361.05,130.4,321.45,91,271.18,82.3c-36.89-6.38-70.48,2.21-99.03,26.31c-34.62,29.21-49.62,67.4-42.54,112.07
		C137.5,270.36,167.23,302.94,214.89,319.03z"/>
</g>
<path class="st1" d="M282.92,239.26c-2.47-0.61-4.7,0.12-6.78,1.45c-4.49,2.88-9.31,4.84-14.61,5.61
	c-17.47,2.53-32.93-8.97-39.79-24.1c8.92,0,17.6,0.02,26.27-0.01c3.82-0.01,6.82-1.98,8.06-5.15c2.12-5.41-1.75-11.11-7.76-11.16
	c-9.7-0.09-19.4-0.07-29.1,0.01c-1.99,0.02-2.96-0.19-3.09-2.61c-0.2-3.74-0.2-7.44,0-11.19c0.13-2.41,1.08-2.63,3.08-2.62
	c12.16,0.08,24.33,0.05,36.5,0.03c5.4-0.01,9.11-3.37,9.11-8.18c-0.01-4.81-3.72-8.15-9.13-8.15c-8.51-0.02-17.02-0.01-25.53-0.01
	h-8.55c2.51-5.26,5.61-9.69,9.54-13.48c8.26-7.95,17.98-11.97,29.61-10.7c5.89,0.63,11.05,3.03,16.06,6.02
	c4.18,2.49,8.95,1.28,11.33-2.64c2.32-3.8,1.28-8.63-2.71-11.15c-17.87-11.31-36.24-12.17-54.68-1.68
	c-12.59,7.17-20.94,18.16-26.18,31.55c-0.63,1.6-1.34,2.21-3.1,2.12c-3.31-0.17-6.64-0.1-9.95-0.04c-4.8,0.08-8.37,3.57-8.4,8.11
	c-0.03,4.54,3.54,8.09,8.31,8.2c2.38,0.06,4.77,0.08,7.15-0.02c1.29-0.05,1.61,0.35,1.42,1.59c-0.68,4.4-0.68,8.82,0,13.22
	c0.19,1.2-0.08,1.66-1.41,1.6c-2.29-0.11-4.59-0.06-6.89-0.03c-4.97,0.08-8.59,3.56-8.57,8.19c0.01,4.64,3.64,8.08,8.63,8.14
	c3.4,0.04,6.81,0.07,10.21-0.03c1.31-0.03,1.95,0.36,2.39,1.63c1.23,3.53,2.83,6.92,4.81,10.08c12.56,20.07,29.88,31.22,54.34,28.64
	c8.17-0.86,15.59-4,22.32-8.66c2.83-1.96,4.01-4.86,3.31-8.25C288.46,242.25,286.28,240.09,282.92,239.26z"/>
</svg>
