<?xml version="1.0" encoding="utf-8"?>
<!-- Generator: Adobe Illustrator 26.5.0, SVG Export Plug-In . SVG Version: 6.00 Build 0)  -->
<svg version="1.1" id="Layer_4" xmlns="http://www.w3.org/2000/svg" xmlns:xlink="http://www.w3.org/1999/xlink" x="0px" y="0px"
	 viewBox="0 0 500 500" style="enable-background:new 0 0 500 500;" xml:space="preserve">
<style type="text/css">
	.st0{fill:#D09230;}
	.st1{fill:#FFFFFF;}
</style>
<circle class="st0" cx="339.55" cy="194.09" r="149.67"/>
<g>
	<path class="st1" d="M138.72,296.19c1.7,0,3.4-0.02,5.08-0.19c8.41-0.92,13.82-9.14,11.38-17.24c-1.95-6.49-7-9.89-14.94-9.89
		c-36.68-0.02-73.36,0.14-110.04-0.13c-8.44-0.06-14.7,2.3-18.29,10.22v6.78c3.11,7.79,8.86,10.6,17.19,10.56
		C65.64,296.05,102.18,296.19,138.72,296.19z"/>
	<path class="st1" d="M441.22,306.5c-5.51-6.97-10.78-14.14-16.4-21.02c-5.3-6.48-9.54-13.51-13.24-21
		c-11.22-22.71-22.76-45.25-34.01-67.93c-3.44-6.97-8.49-10.25-16.41-10.09c-15.24,0.3-30.49,0.1-45.73,0.1
		c-9.68,0-9.68,0-9.68-9.89c-0.02-12.81-4.71-17.48-17.67-17.48H178.42c-36.7,0-73.39,0-110.09,0.02c-1.84,0-3.68,0-5.49,0.19
		c-6.62,0.7-11.57,5.76-12.02,12.13c-0.49,7.09,3.57,12.78,10.27,14.51c2.22,0.59,4.48,0.52,6.73,0.52h204.09
		c6.52,0,6.52,0,6.52,6.75c0,28.65-0.02,57.3,0,85.95c0,11.7,4.97,16.6,16.81,16.6c32.89,0,65.78,0.06,98.65-0.08
		c3.35-0.02,5.36,1.05,7.3,3.65c4.94,6.7,10.14,13.19,15.25,19.75c1.05,1.35,1.86,2.65,1.86,4.54c-0.08,21.73-0.1,43.47,0.02,65.2
		c0.02,2.6-1,3-3.22,2.95c-6.35-0.11-12.71-0.19-19.06,0.03c-2.68,0.1-3.83-0.67-4.68-3.3c-7.52-23-28.11-38.05-51.87-38.14
		c-23.55-0.1-44.6,15.14-52.03,37.95c-0.86,2.65-1.83,3.51-4.57,3.49c-24.57-0.11-49.13-0.11-73.68,0c-2.73,0-3.71-0.81-4.59-3.46
		c-7.57-23.13-29.68-38.9-52.86-37.95c-24.44,1-43.35,15.13-51.19,38.49c-0.78,2.33-1.79,2.94-4.1,2.9
		c-9.75-0.13-19.48-0.06-29.22-0.03c-1.68,0-3.4,0.08-5.05,0.37c-7.16,1.22-11.67,6.78-11.43,13.97
		c0.24,7.63,6.11,12.97,14.75,13.09c10.16,0.13,20.32,0.13,30.48-0.03c2.79-0.05,4.06,0.63,5.06,3.48
		c7.86,22.46,28,36.82,51.41,36.97c23.43,0.14,43.71-14.27,51.78-37c0.97-2.76,2.27-3.46,5.08-3.46
		c24.55,0.13,49.11,0.13,73.66,0.02c2.65-0.02,3.84,0.65,4.78,3.29c8,22.78,28.14,37.16,51.67,37.16
		c23.49-0.02,43.74-14.48,51.67-37.21c0.97-2.76,2.27-3.25,4.83-3.22c11.29,0.11,22.59,0.1,33.87,0.03
		c10.32-0.06,15.71-5.44,15.71-15.63c0.03-28.22-0.02-56.46,0.05-84.68C445.57,314.24,444.15,310.18,441.22,306.5z M354.63,268.51
		c-14.95,0-29.92-0.11-44.86,0.1c-3.44,0.05-4.14-1.02-4.11-4.24c0.16-15.79,0.14-31.59,0.02-47.4c-0.03-2.6,0.63-3.29,3.25-3.25
		c14.67,0.14,29.35,0.1,44.01,0.03c1.7,0,2.81,0.29,3.65,2c8.51,17.11,17.11,34.19,25.68,51.28c0.16,0.33,0.16,0.76,0.32,1.48
		H354.63z M153,432.33c-15.14,0.17-27.52-11.98-27.6-27.09c-0.1-14.94,11.92-27.13,26.92-27.33c15.13-0.19,27.46,11.9,27.57,27.08
		C180,419.87,167.92,432.16,153,432.33z M339.33,432.33c-14.87-0.02-27.08-12.14-27.25-27.08c-0.17-14.92,12.3-27.38,27.36-27.35
		c14.94,0.05,27.16,12.16,27.27,27.05C366.84,419.9,354.38,432.36,339.33,432.33z"/>
	<path class="st1" d="M49.21,242.51c30.46,0.05,60.9,0.02,91.36,0.02c7.89,0,15.79,0.11,23.68-0.03c8.65-0.17,14.49-6.79,13.7-15.24
		c-0.67-7.06-6.36-11.94-14.35-11.97c-19.03-0.08-38.06-0.03-57.09-0.03h-8.05c-16.63,0-33.27-0.05-49.9,0.03
		c-7.14,0.03-12.3,3.97-13.81,10.13C32.48,234.69,39.01,242.5,49.21,242.51z"/>
	<path class="st1" d="M110.72,349.99c6.16-0.05,11.09-3.84,12.9-9.19c2.95-8.73-2.89-17.6-12.27-17.9
		c-10.7-0.37-21.41-0.1-32.13-0.1v-0.05c-10.43,0-20.86-0.17-31.28,0.05c-8.03,0.17-13.81,6.16-13.71,13.65
		c0.1,7.46,6,13.49,13.92,13.54C69.01,350.13,89.86,350.11,110.72,349.99z"/>
</g>
</svg>
