<?xml version="1.0" encoding="utf-8"?>
<!-- Generator: Adobe Illustrator 26.5.0, SVG Export Plug-In . SVG Version: 6.00 Build 0)  -->
<svg version="1.1" id="Layer_4" xmlns="http://www.w3.org/2000/svg" xmlns:xlink="http://www.w3.org/1999/xlink" x="0px" y="0px"
	 viewBox="0 0 500 500" style="enable-background:new 0 0 500 500;" xml:space="preserve">
<style type="text/css">
	.st0{fill:#720000;}
	.st1{fill:#990000;}
</style>
<g>
	<g>
		<path class="st0" d="M432.37,10.38c7.66-0.44,16.96,25.16,23.58,60.8c-13.34,0-26.68,0-40.03,0c0.04-7.6,0.71-18.98,4.01-32.34
			C422.88,26.95,426.87,10.7,432.37,10.38z"/>
		<path class="st0" d="M67.63,10.38c-7.66-0.44-16.96,25.16-23.58,60.8c13.34,0,26.68,0,40.03,0c-0.04-7.6-0.71-18.98-4.01-32.34
			C77.12,26.95,73.13,10.7,67.63,10.38z"/>
		<path class="st1" d="M432.13,10.4c-0.65-0.03-1.32-0.04-2.01-0.04c-0.67,0-1.31,0.01-1.93,0.03H252.84h-5.69H71.81
			c-0.62-0.02-1.27-0.03-1.93-0.03c-0.69,0-1.36,0.02-2.01,0.04c2.7,5.26,4.58,9.68,5.77,12.65c8.62,21.52,10.48,39.92,10.45,48.7
			c-0.01,3.77-0.02,7.53-0.04,11.3h0.04v246.54h-0.02v148.99c0,10.73,13.8,15.19,19.99,6.41c34.94-49.52,88.44-93.34,144.78-94.15
			c58.09-0.84,111.7,43.17,147.06,93.87c6.15,8.82,20.01,4.37,20.01-6.38v-114.1v-34.63V83.05h0.04c-0.01-3.77-0.02-7.54-0.04-11.3
			c-0.03-8.78,1.83-27.18,10.45-48.7C427.55,20.08,429.44,15.65,432.13,10.4z"/>
	</g>
</g>
</svg>
