<?xml version="1.0" encoding="utf-8"?>
<!-- Generator: Adobe Illustrator 26.5.0, SVG Export Plug-In . SVG Version: 6.00 Build 0)  -->
<svg version="1.1" id="Layer_4" xmlns="http://www.w3.org/2000/svg" xmlns:xlink="http://www.w3.org/1999/xlink" x="0px" y="0px"
	 viewBox="0 0 500 500" style="enable-background:new 0 0 500 500;" xml:space="preserve">
<style type="text/css">
	.st0{fill:#720000;}
	.st1{fill:#990000;}
	.st2{fill:#FFFFFF;}
</style>
<g>
	<g>
		<g>
			<path class="st0" d="M7.97,73.95V9.32h173.62L72.82,74.51C51.2,74.32,29.59,74.14,7.97,73.95z"/>
			<path class="st0" d="M490.95,318.68V492.3h-65.27c0-21.57,0-43.14,0-64.71C447.44,391.29,469.2,354.98,490.95,318.68z"/>
			<polygon class="st1" points="490.95,318.12 182.15,9.32 7.64,9.32 490.95,492.64 			"/>
		</g>
		<g>
			<path class="st2" d="M252.74,128.53c-1.98-5.94-4.98-10.91-8.99-14.93c-2.85-2.85-5.83-4.53-8.95-5.02
				c-3.11-0.5-5.69,0.28-7.72,2.31c-3.67,3.67-3.99,8.82-0.96,15.45c4.54,9.89,6.85,17.82,6.94,23.79
				c0.09,5.96-2.02,11.1-6.33,15.41c-5.24,5.24-11.35,7.33-18.33,6.28c-5.7-0.82-10.97-3.64-15.8-8.47
				c-5.76-5.76-9.78-13.73-12.05-23.92l8.47-1.48c1.51,6.28,4.86,12.02,10.04,17.2c7.1,7.1,13.65,7.65,19.64,1.66
				c4.66-4.66,5-11,1.05-19.03c-4.13-8.44-6.3-15.38-6.5-20.82c-0.21-5.44,1.56-10.02,5.28-13.75c4.42-4.42,9.69-6.26,15.8-5.5
				c5.59,0.7,10.94,3.61,16.06,8.73c5.76,5.76,9.37,12.63,10.82,20.6L252.74,128.53z"/>
			<path class="st2" d="M293.94,152.1l7.68,7.68l-35.26,75.24l-8.29-8.29l8.29-16.67l-22.61-22.61l-16.76,8.21l-8.29-8.29
				L293.94,152.1z M288,165.71L252.74,183l17.98,17.98L288,165.71z"/>
			<path class="st2" d="M275.52,244.19l55.25-55.25l8.12,8.12l-48.53,48.53l21.38,21.38l-6.72,6.72L275.52,244.19z"/>
			<path class="st2" d="M371.36,229.52l33.69,33.69l-6.72,6.72l-25.58-25.58l-16.5,16.5l21.47,21.47l-6.72,6.72l-21.47-21.47
				l-18.59,18.59l26.71,26.71l-6.72,6.72l-34.83-34.83L371.36,229.52z"/>
		</g>
	</g>
</g>
</svg>
