<?xml version="1.0" encoding="utf-8"?>
<!-- Generator: Adobe Illustrator 26.5.0, SVG Export Plug-In . SVG Version: 6.00 Build 0)  -->
<svg version="1.1" id="Layer_4" xmlns="http://www.w3.org/2000/svg" xmlns:xlink="http://www.w3.org/1999/xlink" x="0px" y="0px"
	 viewBox="0 0 500 500" style="enable-background:new 0 0 500 500;" xml:space="preserve">
<style type="text/css">
	.st0{fill:#D88D21;}
	.st1{fill:#BA761C;}
</style>
<path class="st0" d="M250,121.55v357.93c-3.61-0.04-7.21-1.32-10.22-3.87c-16.04-13.56-31.92-27.29-47.82-41.02
	c-16.49-14.24-33.22-28.22-49.59-42.59c-14.22-12.51-28.54-24.91-42.38-37.86c-10.74-10.05-21.08-20.43-31.09-31.19
	c-20.27-21.74-38.21-45.13-50.03-72.6c-6.71-15.57-11.12-31.79-11.56-49.04c-0.44-17.1-0.76-34.11,3.67-50.78
	c10.32-38.77,31.51-69.17,67.74-88.12c20.15-10.53,41.65-14.98,64.07-13.76c27.89,1.52,52.31,12.06,73.18,30.9
	c12.69,11.45,23.1,24.58,31.82,39.18C248.8,120.42,249.41,121.37,250,121.55z"/>
<path class="st1" d="M492.92,174.84v30.34c-0.17,0.01-0.33,0.02-0.49,0.05c-0.12,16.18-4.93,31.3-11.32,45.88
	c-12.39,28.3-31.29,52.05-52.23,74.5c-26.56,28.5-56.32,53.44-85.58,78.94c-25.96,22.62-52.3,44.76-78.18,67.46
	c-1.66,1.46-3.42,2.83-5.19,4.15c-2.99,2.25-6.47,3.35-9.93,3.31V121.55c0.71,0.26,1.34-0.69,2.58-2.86
	c6.61-11.61,14.57-22.28,23.87-31.74c20.29-20.65,44.36-34.2,73.62-37.6c22.54-2.61,44.19,0.74,64.82,9.73
	c25.39,11.07,44.81,29.11,58.9,52.97c8.11,13.76,13.37,28.56,16.91,44.05c1.39,6.11,1.52,12.31,1.71,18.51l0.18-0.07L492.92,174.84z
	"/>
</svg>
