<?xml version="1.0" encoding="utf-8"?>
<!-- Generator: Adobe Illustrator 26.5.0, SVG Export Plug-In . SVG Version: 6.00 Build 0)  -->
<svg version="1.1" id="Layer_1" xmlns="http://www.w3.org/2000/svg" xmlns:xlink="http://www.w3.org/1999/xlink" x="0px" y="0px"
	 viewBox="0 0 500 500" style="enable-background:new 0 0 500 500;" xml:space="preserve">
<style type="text/css">
	.st0{fill:#D09230;}
	.st1{fill:none;stroke:#D09230;stroke-width:6;stroke-miterlimit:10;}
	.st2{fill:#1E6F2F;}
	.st3{fill:#FFFFFF;}
</style>
<circle class="st0" cx="250" cy="250" r="217.08"/>
<circle class="st1" cx="250" cy="250" r="243.2"/>
<circle class="st2" cx="250" cy="250" r="217.08"/>
<g>
	<path class="st2" d="M250,496.21c-65.76,0-127.59-25.61-174.09-72.11C29.41,377.59,3.8,315.76,3.8,250S29.41,122.41,75.91,75.91
		C122.41,29.41,184.24,3.8,250,3.8s127.59,25.61,174.09,72.11c46.5,46.5,72.11,108.33,72.11,174.09s-25.61,127.59-72.11,174.09
		C377.59,470.6,315.76,496.21,250,496.21z M250,9.8C117.55,9.8,9.8,117.55,9.8,250S117.55,490.21,250,490.21
		S490.21,382.45,490.21,250S382.45,9.8,250,9.8z"/>
</g>
<g>
	<path class="st3" d="M246.96,91.75c-1.37-0.43-2.94-0.15-4.14-1.15h-93.13c-1.03,0.76-2.29,1.2-3.02,2.36
		c-1.17,1.85-1.37,3.75-0.35,5.68c1.17,2.17,3.08,2.91,5.49,2.9c17.11-0.03,34.23-0.02,51.34-0.02c11.71,0.01,23.41-0.05,35.12,0.02
		c9.23,0.06,16.37,6.32,17.18,14.74c0.24,2.42-1.15,5.74,0.77,7c1.75,1.16,4.84,0.29,7.34,0.31c0.49,0,1-0.03,1.5,0
		c1.01,0.08,1.36-0.35,1.43-1.36C267.75,106.07,258.56,95.43,246.96,91.75z"/>
	<path class="st3" d="M345.94,100.91c2.47-1.29,3.58-4.27,2.56-6.87c-0.66-1.69-2.12-2.53-3.54-3.44h-3
		c-0.66,0.42-1.39,0.77-1.99,1.27c-2.22,1.81-2.66,4.87-1.11,7.23C340.38,101.42,343.45,102.21,345.94,100.91z"/>
	<path class="st3" d="M211.35,195.57c-10.44-5.41-16.12-13.71-16.18-25.59c-0.01-1.91-0.42-2.55-2.47-2.52
		c-9.31,0.12-18.62,0.12-27.92,0c-2.05-0.02-2.63,0.42-2.66,2.57c-0.22,11.37-5.34,19.85-15.51,25.11
		c-18.94,9.79-28.41,25.33-28.39,46.67c0.02,20.73,0,41.45,0.01,62.16c0,21.93-0.07,43.85,0.02,65.78
		c0.07,16.8,11.85,28.46,28.57,28.47c21.32,0.02,42.65,0.03,63.97-0.01c16.15-0.03,28.22-11.75,28.26-27.92
		c0.12-43.45,0.27-86.9-0.06-130.34C238.83,219.84,229.31,204.87,211.35,195.57z M217.03,299.38c0,7.31,0.05,14.61-0.02,21.92
		c-0.15,20.11-14.9,36.29-34.92,38.36c-19.17,1.98-37.22-11.49-41.19-30.83c-0.53-2.53-0.73-5.16-0.74-7.75
		c-0.07-14.51-0.09-29.02-0.02-43.53c0.09-19.84,14.68-36.17,34.23-38.43c19.27-2.22,37.12,10.5,41.75,29.73
		c1.24,5.13,0.86,10.34,0.9,15.53C217.06,289.37,217.03,294.37,217.03,299.38z"/>
	<path class="st3" d="M357.51,230.01c-3.59-3.19-7.26-6.29-10.93-9.4c-8.97-7.59-13.71-17.26-14.13-28.99
		c-0.06-1.72-0.56-2.15-2.22-2.12c-5.7,0.09-11.41,0.13-17.12-0.02c-2.08-0.05-2.66,0.54-2.75,2.62
		c-0.47,11.75-5.44,21.31-14.43,28.85c-3.07,2.57-6.04,5.27-9.13,7.81c-10.09,8.29-14.91,18.93-14.81,31.99
		c0.13,17.82,0.03,35.64,0.03,53.47c0,18.52-0.07,37.04,0.02,55.56c0.09,16.8,11.86,28.41,28.61,28.43
		c14.11,0.02,28.22,0.07,42.34-0.01c15.8-0.09,27.77-11.94,27.8-27.72c0.09-37.24,0.08-74.49-0.01-111.73
		C370.78,247.21,366.13,237.65,357.51,230.01z M353.39,318.1c-3.9,16.43-18.97,26.69-36.3,24.86c-15.54-1.64-28.15-15.6-28.58-31.67
		c-0.06-2.2-0.01-4.4-0.01-7.53c-0.58-7.78,0.79-16.01,5.95-23.3c8.06-11.37,22.05-16.48,35.45-12.97
		c13.04,3.41,22.77,14.55,24.16,28.22C354.83,303.16,355.14,310.71,353.39,318.1z"/>
	<path class="st3" d="M156.62,136.7c0.14,5.89,0.09,11.79,0.02,17.69c-0.02,1.67,0.43,2.23,2.19,2.22
		c13.19-0.07,26.38-0.08,39.57,0.01c1.95,0.02,2.31-0.67,2.29-2.42c-0.09-5.79-0.11-11.6,0.01-17.39c0.04-1.86-0.5-2.37-2.35-2.33
		c-6.49,0.1-12.99,0.04-19.48,0.04c-6.59,0-13.2,0.05-19.79-0.03C157.36,134.45,156.58,134.71,156.62,136.7z"/>
	<path class="st3" d="M307.32,178.47c4.7-0.1,9.41-0.03,14.11-0.03c4.8,0,9.6-0.05,14.41,0.03c1.5,0.03,2.11-0.29,2.07-1.95
		c-0.12-4.7,0.01-9.41-0.06-14.1c-0.06-3.86-2.08-5.79-6.05-5.81c-6.91-0.05-13.82-0.05-20.72-0.01c-4.08,0.03-6.05,1.98-6.13,6.1
		c-0.09,4.5,0.08,9.01-0.07,13.51C304.81,178.18,305.58,178.51,307.32,178.47z"/>
	<path class="st3" d="M370.98,123.6c-6.19-0.03-11.04,4.8-11.04,10.99c0.01,6.05,4.76,10.82,10.83,10.88
		c6.19,0.06,11.05-4.78,11.03-10.97C381.79,128.45,377.02,123.64,370.98,123.6z"/>
	<path class="st3" d="M187.53,112.58c-2.88,0.1-5.78,0.03-8.67,0.03c-0.9,0-1.8-0.03-2.7,0.01c-2.76,0.14-6.56-1.21-8.01,0.49
		c-1.68,1.98-0.31,5.72-0.53,8.69c-0.1,1.45,0.43,1.87,1.86,1.84c3.89-0.09,7.78,0.05,11.67-0.06c2.76-0.08,6.63,1.27,7.96-0.56
		c1.39-1.92,0.32-5.56,0.47-8.45C189.69,112.93,189.06,112.52,187.53,112.58z"/>
	<path class="st3" d="M206.08,301.62c0-9.76,0.19-17.38-0.03-24.97c-0.41-14.13-11.05-25.26-25.21-26.67
		c-13.14-1.31-25.62,7.81-28.88,21.1c-0.24,0.97-0.49,1.95-0.53,2.94c-0.53,16.81-0.86,33.65,0.08,50.43
		c0.76,13.54,12.84,24.05,26.69,24.37c13.4,0.3,25.47-9.7,27.4-22.96C206.87,317.11,205.75,308.27,206.08,301.62z"/>
	<path class="st3" d="M343.28,298.01c-0.63-11-9.47-20-20.12-20.56c-11.89-0.62-21.66,7.14-23.37,18.64
		c-0.79,5.27-0.66,10.61-0.21,15.87c0.92,11.02,9.52,19.57,19.84,20.21c11.46,0.72,20.94-6.16,23.46-17.1
		c0.77-3.34,0.44-6.76,0.42-10.16C343.3,302.61,343.41,300.3,343.28,298.01z"/>
</g>
</svg>
