<?xml version="1.0" encoding="utf-8"?>
<!-- Generator: Adobe Illustrator 26.5.0, SVG Export Plug-In . SVG Version: 6.00 Build 0)  -->
<svg version="1.1" id="Layer_4" xmlns="http://www.w3.org/2000/svg" xmlns:xlink="http://www.w3.org/1999/xlink" x="0px" y="0px"
	 viewBox="0 0 500 500" style="enable-background:new 0 0 500 500;" xml:space="preserve">
<style type="text/css">
	.st0{fill:url(#SVGID_1_);}
	.st1{fill:url(#SVGID_00000029003211801141923010000014161353462941998267_);}
	.st2{fill:url(#SVGID_00000178885035613261147400000015833961722424805275_);}
	.st3{fill:url(#SVGID_00000158016617167410129650000006107264211064352900_);}
	.st4{fill:url(#SVGID_00000176765986338454443870000000024562989900321432_);}
</style>
<g>
	<linearGradient id="SVGID_1_" gradientUnits="userSpaceOnUse" x1="151.9204" y1="125.7158" x2="346.7987" y2="125.7158">
		<stop  offset="0" style="stop-color:#1E7030"/>
		<stop  offset="0.6385" style="stop-color:#398E34"/>
		<stop  offset="1" style="stop-color:#439A35"/>
	</linearGradient>
	<path class="st0" d="M167.03,176.2c7.24,19.8,18.98,36.58,35.66,49.74c25.79,20.37,57.04,22.68,85.2,5.77
		c19.63-11.78,32.7-29.26,41.62-50.04c2.01-4.69,2.9-10.04,5.63-14.22c4.14-6.33,6.91-13.19,9.62-20.08
		c2.92-7.44,3.13-15.08-2.14-21.67c-2.04-2.55-2.74-4.97-2.76-8.01c-0.04-18.07-0.97-36.06-5.93-53.58
		c-7.59-26.78-24.21-44.53-51.53-51.79c-6.08-1.62-12.48-1.53-18.39-3.85h-20.55h-9.33c-0.05,0.26-0.07,0.51-0.09,0.77
		c-2.77,0.39-5.55,0.71-8.31,1.16c-13.36,2.14-25.92,6.28-36.85,14.56c-15.49,11.76-22.85,28.17-26.72,46.61
		c-3.32,15.77-3.76,31.77-3.81,47.8c0,1.66,0.43,3.43-0.92,4.89c-7.37,7.99-6.29,16.71-2.86,26.06
		C157.88,159.38,163.7,167.12,167.03,176.2z M273.78,120.42c8.27,0.23,16.51-0.16,24.55-2.07c2.86-0.68,3.88,0.16,4.74,2.58
		c1.14,3.21,2.64,6.29,3.83,9.49c1.09,2.9,2.95,3.74,5.85,2.85c3.41-1.04,6.86-1.95,10.29-2.93c7.13-2.03,12.75,2.92,10.78,10.16
		c-1.83,6.69-4.21,13.36-8.71,18.87c-1.75,2.16-2.35,4.68-3.16,7.16c-7.67,23.12-20.3,42.51-41.59,55.37
		c-9.49,5.73-20.73,8.81-33.65,8.72c-17.87-0.63-34.15-10.02-47.69-24.77c-10.23-11.14-17.48-24.07-22.08-38.47
		c-2.37-7.45-8.27-13.06-10.39-20.62c-0.68-2.38-1.84-4.67-2.18-7.08c-0.81-5.69,3.48-9.75,9.15-9.01
		c13.46,1.77,13.4,1.74,18.94-10.78c1.55-3.5,1.97-8.65,5.11-9.99c2.8-1.2,7.09,1.09,10.72,1.81
		C229.93,116,251.65,119.77,273.78,120.42z"/>
	
		<linearGradient id="SVGID_00000078753190771989843130000005965865990191243407_" gradientUnits="userSpaceOnUse" x1="258.6657" y1="338.52" x2="431.1268" y2="338.52">
		<stop  offset="0" style="stop-color:#1E7030"/>
		<stop  offset="0.6385" style="stop-color:#398E34"/>
		<stop  offset="1" style="stop-color:#439A35"/>
	</linearGradient>
	<path style="fill:url(#SVGID_00000078753190771989843130000005965865990191243407_);" d="M428.75,412.42
		c-4.51-14.84-9.04-29.68-13.59-44.51c-11.78-38.4-23.57-76.79-35.35-115.2c-3.78-12.34-12.17-19.5-24.72-21.89
		c-12.2-2.34-24.45-4.41-36.6-6.95c-3.04-0.63-4.33,0.02-5.76,2.62c-17.5,31.81-35.12,63.57-52.68,95.35
		c-0.64,1.14-1.89,2.16-1.17,3.91c27.95,0,55.95,0.32,83.92-0.2c8.11-0.14,14.14,1.67,19.35,8.03c2.64,3.22,4.09,6,4.06,10.2
		c-0.16,35-0.05,69.99-0.15,104.99c-0.01,3.26,0.5,4.69,4.25,4.59c9.63-0.29,19.29-0.16,28.93-0.08
		c9.88,0.08,18.19-3.27,24.77-10.75c3.78-4.28,4.95-9.78,7.11-14.83v-6.54C430.33,418.26,429.62,415.32,428.75,412.42z"/>
	
		<linearGradient id="SVGID_00000119100962677858640960000012204788545476012178_" gradientUnits="userSpaceOnUse" x1="116.259" y1="475.4021" x2="383.8829" y2="475.4021">
		<stop  offset="0" style="stop-color:#F2AA35"/>
		<stop  offset="0.4002" style="stop-color:#D19230"/>
		<stop  offset="1" style="stop-color:#996A28"/>
	</linearGradient>
	<path style="fill:url(#SVGID_00000119100962677858640960000012204788545476012178_);" d="M378.15,464.27
		c-85.43,0.13-170.84,0.09-256.26,0.09c-0.78,0-1.56,0.08-2.34-0.01c-2.34-0.27-3.36,0.5-3.29,3.06c0.21,6.37,0.18,12.75,0.23,19.12
		h267.02c0.07-5.59-0.2-11.22,0.3-16.78C384.25,465.04,382.49,464.26,378.15,464.27z"/>
	
		<linearGradient id="SVGID_00000111174700799421035070000003869501450890265502_" gradientUnits="userSpaceOnUse" x1="164.9356" y1="401.7848" x2="341.7896" y2="401.7848">
		<stop  offset="0" style="stop-color:#F2AA35"/>
		<stop  offset="0.4002" style="stop-color:#D19230"/>
		<stop  offset="1" style="stop-color:#996A28"/>
	</linearGradient>
	<path style="fill:url(#SVGID_00000111174700799421035070000003869501450890265502_);" d="M336.82,350.11
		c-27.69,0.14-55.39,0.07-83.08,0.07c-28.15,0-56.31,0.01-84.47,0c-2.3,0-4.35-0.6-4.33,3.32c0.19,32.21,0.14,64.41,0.05,96.62
		c-0.01,2.73,0.89,3.34,3.44,3.34c56.31-0.08,112.63-0.12,168.94-0.03c3.4,0,4.42-0.82,4.4-4.39c-0.15-31.43-0.18-62.86,0.02-94.28
		C341.81,350.6,340.43,350.09,336.82,350.11z"/>
	
		<linearGradient id="SVGID_00000130648589606615472980000013851731261884655009_" gradientUnits="userSpaceOnUse" x1="68.8732" y1="338.2239" x2="241.4179" y2="338.2239">
		<stop  offset="0" style="stop-color:#1E7030"/>
		<stop  offset="0.6385" style="stop-color:#398E34"/>
		<stop  offset="1" style="stop-color:#439A35"/>
	</linearGradient>
	<path style="fill:url(#SVGID_00000130648589606615472980000013851731261884655009_);" d="M136.22,453.38
		c3.86,0.08,4.53-1.24,4.52-4.74c-0.12-32.98,0.26-65.96-0.29-98.92c-0.14-8.66,1.84-15.11,8.62-20.51c2.69-2.15,4.97-3.51,8.53-3.5
		c26.43,0.15,52.88,0.09,79.32,0.06c1.46,0,3.02,0.44,4.34-0.32c0.47-1.03-0.19-1.65-0.54-2.28c-18.01-32.6-36.09-65.16-53.99-97.83
		c-1.62-2.95-3.57-2.35-5.79-1.89c-11.41,2.34-22.74,5.06-34.22,6.99c-14.68,2.48-23.22,10.83-27.46,24.95
		C106.5,297.87,93.25,340.2,80.4,382.66c-3.68,12.15-8.09,24.11-10.68,36.59c-0.28,0.03-0.56,0.06-0.84,0.06v9.34l0.41,0.07h0.4
		c3.79,15.77,14.28,24.28,30.61,24.52C112.27,453.41,124.25,453.11,136.22,453.38z"/>
</g>
</svg>
