<?xml version="1.0" encoding="utf-8"?>
<!-- Generator: Adobe Illustrator 26.5.0, SVG Export Plug-In . SVG Version: 6.00 Build 0)  -->
<svg version="1.1" id="Layer_1" xmlns="http://www.w3.org/2000/svg" xmlns:xlink="http://www.w3.org/1999/xlink" x="0px" y="0px"
	 viewBox="0 0 500 500" style="enable-background:new 0 0 500 500;" xml:space="preserve">
<style type="text/css">
	.st0{fill:#D09230;}
	.st1{fill:none;stroke:#D09230;stroke-width:6;stroke-miterlimit:10;}
	.st2{fill:#1E6F2F;}
	.st3{fill:#FFFFFF;}
</style>
<circle class="st0" cx="250" cy="250" r="217.08"/>
<circle class="st1" cx="250" cy="250" r="243.2"/>
<circle class="st2" cx="250" cy="250" r="217.08"/>
<g>
	<path class="st2" d="M250,496.21c-65.76,0-127.59-25.61-174.09-72.11C29.41,377.59,3.8,315.76,3.8,250S29.41,122.41,75.91,75.91
		C122.41,29.41,184.24,3.8,250,3.8s127.59,25.61,174.09,72.11c46.5,46.5,72.11,108.33,72.11,174.09s-25.61,127.59-72.11,174.09
		C377.59,470.6,315.76,496.21,250,496.21z M250,9.8C117.55,9.8,9.8,117.55,9.8,250S117.55,490.21,250,490.21
		S490.21,382.45,490.21,250S382.45,9.8,250,9.8z"/>
</g>
<g>
	<path class="st3" d="M261.45,433.46c-4.89-1.95-10.12-3.1-14.34-6.63c-4.26-3.57-7.39-7.74-8.41-13.28
		c-0.84-4.56,0.49-8.46,3.8-11.73c1.26-1.24,1.98-1.28,2.76,0.52c1.09,2.5,2.43,4.88,4.18,7.04c5.02,6.19,11.1,6.67,16.86,1.06
		c7.59-7.39,10.76-16.95,13.02-26.95c4.1-18.2-1.44-34.34-10.61-49.72c-8.28-13.91-18.43-26.44-29.24-38.38
		c-6.36-7.03-7.31-11.9-2.13-21.7c3.47-6.56,8.8-11.54,15.66-14.68c4.7-2.15,9.62-1.14,14.47-0.83c10.71,0.69,21.36,2.56,32.14,1.21
		c10.37-1.32,14.68-8.75,10.66-18.51c-1.03-2.52-2.34-4.93-3.6-7.55c3.07-1.7,7.44-0.13,9.47-3.93c1.54-2.88,0.58-5.71-3.12-8.86
		c0.6-0.43,1.18-0.82,1.74-1.22c4.51-3.22,4.79-5.45,1.23-9.62c-4.71-5.51-4.3-8.44,1.81-12.71c4.96-3.48,5.34-4.99,1.81-9.84
		c-4.44-6.09-9.6-11.6-14.99-16.84c-5.03-4.9-7.82-10.31-6.66-17.52c0.52-3.28,0.56-6.68-0.03-10c-0.51-2.84-1.69-5.21-4.98-5.76
		c-3.19-0.54-5.44,1.21-6.12,3.76c-3.12,11.59-13.27,14.97-22.37,19.3c-4.83,2.3-6.32,5.77-6.37,10.46
		c-0.04,5.24,2.1,7.79,7.12,8.81c-3.62,3.32-5.82,3.59-9.56,0.28c-2.66-2.37-4.05-1.76-5.79,0.9c-2.76,4.21-5.22,8.51-6.55,13.41
		c-0.59,2.15-0.51,4.22,0.13,6.34c1.62,5.37,5.26,6.86,10.15,4.15c0.69-0.39,1.26-1.43,2.14-0.94c0.96,0.54,0.68,1.7,0.59,2.61
		c-0.45,4.52-3.47,6.87-7.37,8.33c-4.73,1.78-9.68,2.67-14.71,2.63c-4.5-0.04-7.1,1.54-9.17,5.9
		c-5.76,12.15-11.53,24.33-18.86,35.67c-6.26,9.68-7.88,10.41-18.55,6.26c-16.06-6.25-27.89-17.65-37.28-31.72
		c-15.05-22.58-21.98-47.56-19.9-74.6c2.27-29.6,15.75-53.39,39.43-71.26c12.08-9.11,25.18-16.34,40.24-19.33
		c22.66-4.5,41.18,2.89,51.23,6.88c67.49,26.81,95.17,110.21,98.23,119.85c14.69,46.3,9.99,84.81,7.84,100.99
		c-9.41,70.71-46.97,110.72-55.67,118.31c-9.13,7.97-19.12,12.81-19.12,12.81c-6.17,3.41-12.96,5.02-19.74,6.67
		C269.09,433.46,265.27,433.46,261.45,433.46z"/>
</g>
</svg>
