<?xml version="1.0" encoding="utf-8"?>
<!-- Generator: Adobe Illustrator 26.5.0, SVG Export Plug-In . SVG Version: 6.00 Build 0)  -->
<svg version="1.1" id="Layer_1" xmlns="http://www.w3.org/2000/svg" xmlns:xlink="http://www.w3.org/1999/xlink" x="0px" y="0px"
	 viewBox="0 0 500 500" style="enable-background:new 0 0 500 500;" xml:space="preserve">
<style type="text/css">
	.st0{fill:#D09230;}
	.st1{fill:none;stroke:#D09230;stroke-width:6;stroke-miterlimit:10;}
	.st2{fill:#1E6F2F;}
	.st3{fill:#FFFFFF;}
</style>
<circle class="st0" cx="250" cy="250" r="217.08"/>
<circle class="st1" cx="250" cy="250" r="243.2"/>
<circle class="st2" cx="250" cy="250" r="217.08"/>
<g>
	<path class="st2" d="M250,496.21c-65.76,0-127.59-25.61-174.09-72.11C29.41,377.59,3.8,315.76,3.8,250S29.41,122.41,75.91,75.91
		C122.41,29.41,184.24,3.8,250,3.8s127.59,25.61,174.09,72.11c46.5,46.5,72.11,108.33,72.11,174.09s-25.61,127.59-72.11,174.09
		C377.59,470.6,315.76,496.21,250,496.21z M250,9.8C117.55,9.8,9.8,117.55,9.8,250S117.55,490.21,250,490.21
		S490.21,382.45,490.21,250S382.45,9.8,250,9.8z"/>
</g>
<g>
	<path class="st3" d="M389.16,144.08c-17-26.94-41.01-44.71-71.61-53.48c-22.86-6.57-45.74-6-68.43,0.69
		c-18.92,5.57-35.58,15.38-49.8,29.08c-15.31,14.72-26.19,32.29-32.53,52.62c-2.97,9.57-4.71,19.33-5.27,29.33
		c-0.09,1.84-0.73,2.36-2.57,2.3c-4.84-0.14-9.68-0.16-14.51,0c-15.18,0.52-24.94,14.36-20.13,28.63c0.73,2.18-0.05,2.32-1.68,2.61
		c-13.72,2.59-21.41,15.56-16.76,28.49c0.7,1.95,0.31,2.5-1.52,3.18c-3.14,1.17-7.08,4.63-8.27,5.78c-1.36,1.32-3.12,3.65-4.02,7.83
		c-0.13,1.07-0.22,2.27-0.22,3.59c-0.01,1.4,0.09,2.68,0.22,3.81c0.57,5.3,2.53,7.55,3.83,9.05c1.14,1.31,2.52,2.45,4.19,3.38
		c2.72,1.55,3.55,3.47,3.52,6.47c-0.11,17.47-0.31,34.94,0.05,52.42c0.3,14.59,6.79,26.29,18.51,34.92
		c5.71,4.21,12.18,6.72,19.31,7.36h146.94c1.09-1.25,2.66-0.61,3.97-0.91c20.42-4.75,34.1-21.63,34.28-42.6
		c0.09-10.18,0.05-20.38-0.02-30.56c-0.02-1.8,0.45-2.68,2.22-3.34c7.02-2.59,13.79-5.82,20.13-9.86
		c34.42-21.92,54.21-53.12,58.5-93.74C410.4,193.43,403.99,167.64,389.16,144.08z M104.44,284.92c-0.09-4.07,3-6.27,8.79-6.27
		h204.88c5.47,0,8.63,2.3,8.52,6.22c-0.11,4.05-3.05,6.13-8.63,6.13H113.12C107.51,291.01,104.51,288.9,104.44,284.92z
		 M126.6,247.79c5.54-0.06,11.09,0,16.65-0.02c4.38-0.02,7.13-2.22,7.41-5.79c0.25-3.5-2.25-6-6.66-6.57
		c-5.38-0.7-8.98-4.72-8.7-9.74s4.27-8.73,9.7-8.73c25.19-0.05,50.39,0.05,75.61-0.05c13.2-0.06,22.99-5.97,28.94-17.86
		c2.39-4.75,3.36-9.88,2.95-15.54c7.99,3.82,13.29,13.9,12.27,22.97c-0.11,1.02-0.3,2.05-0.39,3.07c-0.32,4.36,2.32,7.32,6.68,7.36
		c4.93,0.06,9.88-0.02,14.81,0.02c5.63,0.06,9.68,3.72,9.9,8.88c0.2,5-3.36,8.91-8.84,9.61c-4.18,0.55-6.68,2.97-6.54,6.38
		c0.14,3.57,2.93,5.93,7.22,5.97c5.57,0.05,11.11-0.02,16.67,0.02c5.91,0.05,10.09,3.97,9.99,9.38c-0.06,5.27-4.18,9.11-9.95,9.11
		c-59.25,0.02-118.5,0.02-177.73,0c-5.75,0-9.84-3.96-9.86-9.23C116.76,251.77,120.85,247.87,126.6,247.79z M314.78,237.82
		c-2.66-1.41-5.59-1.89-8.72-2.45c2.77-6.75,2.84-13.23-0.64-19.47c-4.11-7.36-10.57-10.95-18.88-11.32
		c-2.89-0.11-6.38,0.98-8.47-0.31c-2.16-1.31-1.05-5.22-1.72-7.95c-3.75-15.36-16.11-26.51-31.87-28.56
		c-2.55-0.34-4.68,0.44-6.22,2.5c-1.72,2.36-1.3,4.77-0.14,7.27c4.07,8.79,1.89,17.9-5.47,23.38c-3.16,2.34-6.75,3.55-10.63,3.61
		c-5.13,0.11-10.29,0-15.43,0.06c-1.59,0.05-2-0.27-1.8-2.02c4.32-34.69,22.94-58.05,55.84-69.49c30.79-10.74,67.93,1.3,87.54,27.43
		c13.13,17.5,18.77,37.1,16.11,58.78c-2.66,21.67-12.9,39.35-29.9,53.17c-2.39-2.18-4.86-4.22-8.02-5.05
		c-1.86-0.48-1.7-1.34-1.18-2.86C328.93,253.72,324.75,243.14,314.78,237.82z M326.68,311.98c0-0.91,0.09-1.75-0.02-2.57
		c-0.61-4.41,0.23-7.59,4.86-10.02c4.82-2.52,6.96-7.66,7.38-13.18c0.11-1.36,0.61-2.2,1.66-3.02c18.88-14.5,30.85-33.42,35.1-56.84
		c4.61-25.33-0.55-48.82-15.31-69.98c-11.65-16.7-27.26-28.4-46.66-34.67c-25.42-8.22-50.12-6.07-73.59,6.77
		c-19.97,10.9-33.9,27.3-42.03,48.57c-2.97,7.7-4.96,15.68-5.41,23.92c-0.14,2.77-0.91,3.91-3.96,3.68
		c-4.38-0.31-8.84-0.09-13.27-0.06c-1.14,0-1.82,0.02-1.7-1.61c1.32-18.56,6.52-35.87,16.38-51.71
		c14.25-22.83,34.15-38.62,59.66-47.19c17.04-5.72,34.56-7.09,52.32-4.21c27.4,4.43,50.03,17.45,67.86,38.58
		c13.38,15.88,21.67,34.28,24.56,54.93c4.27,30.67-2.8,58.55-21.33,83.36c-11.9,15.9-27.24,27.51-45.53,35.21
		C327.48,312.05,327.24,311.98,326.68,311.98z M282.19,389.76h-13.84c-39.8,0.02-79.63,0.02-119.45,0
		c-18.61,0-32.12-13.45-32.15-31.99c-0.05-17.26,0.05-34.56-0.06-51.82c-0.02-2.2,0.56-2.66,2.7-2.66c2.89,0,5.75,0.02,8.63,0
		c29.19,0.06,58.44,0.05,87.63,0.05c31.9,0,63.77,0.02,95.67-0.05c2.25,0,3.09,0.36,3.07,2.91c-0.14,17.17-0.05,34.35-0.06,51.53
		C314.28,376.3,300.8,389.76,282.19,389.76z"/>
	<path class="st3" d="M269.29,315.7c-35.78-0.02-71.57-0.02-107.37,0c-4.3,0-6.58,1.05-7.54,3.84c-0.41,1.14-0.59,2.57-0.59,4.34
		v45.35c0,6.09,2.09,8.2,8.13,8.2h86.4h20.97c5.86,0,7.97-2.14,7.97-8.04c0.02-15.22,0.02-30.44,0-45.66
		C277.27,317.84,275.15,315.7,269.29,315.7z M264.98,362.46c0.02,2.16-0.5,2.68-2.68,2.68c-11.34-0.09-22.67-0.09-34.03-0.06h-12.88
		c-15.54,0-31.08-0.05-46.6,0.06c-2.16,0-2.72-0.5-2.7-2.68c0.14-10.7,0.11-21.41,0.02-32.1c-0.02-1.75,0.39-2.27,1.93-2.34
		c0.02-0.02,0.02-0.02,0.05,0c0.02-0.02,0.02-0.02,0.05,0c0.11-0.02,0.23-0.02,0.34-0.02c31.37,0.06,62.75,0.06,94.15,0
		c1.89,0,2.39,0.44,2.36,2.36C264.88,341.05,264.86,351.76,264.98,362.46z"/>
	<path class="st3" d="M220.52,340.4c-10.74-0.02-21.53-0.02-32.29,0h-2.22c-4.5,0-7.36,2.36-7.47,6.02
		c-0.11,3.75,2.86,6.29,7.47,6.32c5.77,0.02,11.52,0,17.26,0h4.97c4.09,0,8.18,0,12.27-0.02c4.46-0.02,7.34-2.5,7.34-6.16
		C227.83,342.9,224.94,340.4,220.52,340.4z"/>
	<path class="st3" d="M246.41,340.42c-3.2,0-6.09,2.84-6.16,6.04c-0.05,3.32,2.97,6.32,6.29,6.22c3.22-0.09,6.02-3,6-6.21
		C252.5,343.29,249.64,340.42,246.41,340.42z"/>
</g>
</svg>
