<?xml version="1.0" encoding="utf-8"?>
<!-- Generator: Adobe Illustrator 26.5.0, SVG Export Plug-In . SVG Version: 6.00 Build 0)  -->
<svg version="1.1" id="Layer_4" xmlns="http://www.w3.org/2000/svg" xmlns:xlink="http://www.w3.org/1999/xlink" x="0px" y="0px"
	 viewBox="0 0 500 500" style="enable-background:new 0 0 500 500;" xml:space="preserve">
<style type="text/css">
	.st0{fill:url(#SVGID_1_);}
	.st1{fill:url(#SVGID_00000132782660955789288030000001536578277117886900_);}
	.st2{fill:url(#SVGID_00000154401819989800211940000013383990061885920957_);}
</style>
<linearGradient id="SVGID_1_" gradientUnits="userSpaceOnUse" x1="275.8624" y1="51.0691" x2="415.8126" y2="51.0691">
	<stop  offset="0" style="stop-color:#F2AA35"/>
	<stop  offset="0.4002" style="stop-color:#D19230"/>
	<stop  offset="1" style="stop-color:#996A28"/>
</linearGradient>
<path class="st0" d="M337.56,97.31c5.41-7.9,12.21-14.41,20.21-19.65c4.49-2.94,9.23-5.42,14.4-7.64
	c-9.13-5.77-18.96-9.65-28.38-14.38c2.57,0.35,5.07,0.88,7.6,1.33c9.49,1.72,18.73,4.12,26.72,9.89c0.92,0.66,1.73,0.34,2.62,0.06
	c7.73-2.4,15.6-4.22,23.61-5.37c3.78-0.54,7.56-1.11,11.47-1.69c-0.26-0.45-0.38-0.71-0.54-0.94c-5.32-8.16-12.26-14.75-20.07-20.43
	c-11.13-8.1-23.18-14.35-36.6-17.82c-13.88-3.59-28.12-4.56-42.29-5.87c-13.23-1.22-25.61-4.99-37.28-11.27h-1.72
	c-1.44,1.09-1.72,2.49-1.21,4.16c2.62,8.7,4.63,17.56,6.85,26.36c4.7,18.6,12.96,35.27,26.5,49.05
	c7.02,7.15,15.12,12.66,24.94,15.34C335.86,98.84,336.69,98.58,337.56,97.31z"/>
<linearGradient id="SVGID_00000029734770312655367650000005196745397210690476_" gradientUnits="userSpaceOnUse" x1="318.207" y1="136.5103" x2="493.0706" y2="136.5103">
	<stop  offset="0" style="stop-color:#F2AA35"/>
	<stop  offset="0.4002" style="stop-color:#D19230"/>
	<stop  offset="1" style="stop-color:#996A28"/>
</linearGradient>
<path style="fill:url(#SVGID_00000029734770312655367650000005196745397210690476_);" d="M491.84,49.84
	c-1.41-1.08-2.8-0.76-4.2,0.05c-0.74,0.43-1.53,0.78-2.29,1.16c-7.35,3.62-15.09,6.14-23.04,8.01c-16.09,3.78-32.58,4.78-48.91,6.88
	c-11.09,1.42-22.05,3.39-32.7,6.92c-22.05,7.31-37.7,21.6-47.19,42.78c-10.43,23.29-15.48,47.69-15.28,73.19
	c0,1.08-0.03,2.15,0.01,3.23c0.24,9.25,0.52,18.49,3,27.49c0.31,1.11,0.69,2.19,1.42,3.09c0.84,1.04,1.86,1.59,3.2,0.98
	c1.35-0.61,1.93-1.64,1.6-3.13c-0.14-0.63-0.26-1.26-0.42-1.89c-1.17-4.53-1.8-9.12-2.02-13.79c-0.54-11.75,1.45-23.11,5.16-34.21
	c3.5-10.46,8.68-19.87,16.65-27.68c13.17-12.89,29.8-18.84,46.95-23.81c0.85-0.25,1.45-0.09,1.75,0.7c0.3,0.8-0.4,1.13-0.95,1.45
	c-0.37,0.21-0.77,0.36-1.16,0.55c-5.42,2.59-10.9,5.05-16.24,7.78c-15.81,8.09-27.36,20.32-34.69,36.48
	c-1.68,3.72-2.93,7.64-2.72,11.83c0.2,4.01,2.38,5.51,6.19,4.32c0.75-0.23,1.5-0.48,2.23-0.75c4.56-1.72,9.22-3.07,13.98-4.09
	c13.33-2.87,26.96-3.72,40.38-5.98c12.64-2.13,24.53-6.14,35.31-13.18c20.6-13.44,33.6-32.62,41.7-55.44
	c4.65-13.1,7.26-26.77,10.83-40.17c0.75-2.83,1.67-5.62,2.42-8.45C493.19,52.61,493.37,51.01,491.84,49.84z"/>
<linearGradient id="SVGID_00000009582834817561062340000015554216244909175700_" gradientUnits="userSpaceOnUse" x1="6.9294" y1="298.28" x2="462.3065" y2="298.28">
	<stop  offset="0" style="stop-color:#1E7030"/>
	<stop  offset="0.6385" style="stop-color:#398E34"/>
	<stop  offset="1" style="stop-color:#439A35"/>
</linearGradient>
<path style="fill:url(#SVGID_00000009582834817561062340000015554216244909175700_);" d="M459.75,158.25
	c-0.45-0.64-1.18-1.57-2.27-2.55c-4.36,4.01-9.07,7.65-14.13,10.96c-8.08,5.27-16.98,9.24-26.96,11.98h14.19
	c-6.9,24.27-13.76,48.37-20.64,72.45c-0.14,0.48-0.27,0.96-0.41,1.44h-44.3c0-23.62,0-47.25,0-70.87c-2.12,0.03-4.98,0.3-8.21,1.28
	c-2.42,0.73-4.42,1.68-5.97,2.55c0,22.35,0,44.7,0,67.05h-65.5v-73.89h26.77c0.41-9.08,1.48-18.05,3.2-26.88
	c-61.41,0-126.81,0.01-188.23,0.1c-3.7,0.01-4.99-1.01-5.7-4.56c-2.49-12.29-5.3-24.52-8.06-36.77c-1.74-7.7-6.33-11.95-13.75-11.99
	c-26.65-0.14-53.28-0.13-79.92,0.01c-5.67,0.03-9.8,3.16-11.94,8.43c-3.61,8.93,2.99,18.06,13.14,18.1
	c21.61,0.09,43.23,0.08,64.83-0.02c2.6-0.02,3.86,0.59,4.45,3.3c15.38,69.63,30.82,139.25,46.36,208.83
	c0.72,3.2,0.39,4.77-2.79,6.44c-14.99,7.91-22.63,24.88-19.54,42.5c2.78,15.97,17.02,29.2,33.62,31.47
	c8.33,1.15,16.72,0.09,25.44,0.79c-28.55,7.72-35.85,30.72-32.34,48.12c3.69,18.34,21.79,32.51,40.19,31.54
	c21.24-1.14,37.1-16.33,38.56-37.82c0.06-0.8,0.08-1.58,0.08-2.38c0-0.09,0.01-0.18,0.01-0.26c0-0.06-0.01-0.12-0.01-0.18
	c0-0.94-0.04-1.86-0.11-2.8c-0.01-0.13-0.02-0.27-0.03-0.41c-0.09-0.93-0.2-1.85-0.35-2.78c-0.02-0.13-0.04-0.27-0.07-0.41
	c-0.16-0.92-0.35-1.84-0.57-2.76c-0.03-0.13-0.07-0.25-0.1-0.38c-0.24-0.93-0.51-1.84-0.83-2.75c-0.03-0.11-0.08-0.22-0.11-0.33
	c-0.33-0.93-0.69-1.84-1.09-2.75c-0.03-0.07-0.06-0.15-0.1-0.22c-0.4-0.92-0.85-1.81-1.33-2.7c-0.03-0.04-0.05-0.09-0.07-0.13
	c-0.49-0.89-1.03-1.75-1.59-2.61c-0.05-0.09-0.11-0.18-0.16-0.26c-0.55-0.83-1.16-1.64-1.78-2.43c-0.06-0.07-0.1-0.15-0.16-0.22
	c-0.05-0.06-0.1-0.11-0.14-0.17c-0.15-0.18-0.3-0.35-0.44-0.52c-0.22-0.27-0.44-0.53-0.68-0.79c-0.19-0.22-0.39-0.43-0.59-0.65
	c-0.13-0.15-0.27-0.3-0.41-0.45c-0.05-0.05-0.11-0.1-0.16-0.16c-0.27-0.28-0.55-0.55-0.84-0.83c-0.17-0.17-0.34-0.34-0.52-0.5
	c-0.36-0.34-0.75-0.68-1.12-1.01c-0.08-0.06-0.14-0.12-0.22-0.19c-0.02-0.02-0.05-0.04-0.08-0.06c-0.12-0.11-0.24-0.21-0.37-0.31
	c-0.14-0.12-0.27-0.24-0.42-0.36c-0.14-0.11-0.29-0.23-0.44-0.34c-0.04-0.03-0.09-0.06-0.13-0.1c-0.16-0.12-0.31-0.24-0.48-0.36
	c-0.07-0.06-0.15-0.12-0.22-0.18c-0.17-0.13-0.35-0.26-0.53-0.38c-0.13-0.1-0.26-0.18-0.39-0.27c-0.13-0.09-0.26-0.18-0.39-0.27
	c-0.13-0.09-0.25-0.18-0.38-0.27c-0.05-0.04-0.12-0.08-0.18-0.13c-0.21-0.13-0.43-0.26-0.66-0.4c-0.16-0.1-0.33-0.21-0.5-0.31
	c-0.08-0.05-0.15-0.1-0.23-0.14c-0.07-0.05-0.15-0.08-0.22-0.13c-0.58-0.34-1.18-0.69-1.79-1.01c-0.22-0.12-0.44-0.24-0.68-0.36
	c-0.74-0.37-1.49-0.74-2.27-1.09c-0.03-0.01-0.04-0.02-0.07-0.03c-0.35-0.15-0.72-0.3-1.08-0.46c-0.14-0.06-0.29-0.11-0.43-0.18
	c-0.06-0.02-0.11-0.04-0.16-0.06c-0.09-0.03-0.18-0.06-0.27-0.1c-0.3-0.11-0.59-0.23-0.9-0.34c-0.17-0.06-0.35-0.12-0.53-0.19
	c-0.04-0.01-0.09-0.03-0.14-0.05c-0.21-0.07-0.41-0.14-0.62-0.2c-0.07-0.03-0.15-0.06-0.22-0.08c-0.34-0.13-0.71-0.24-1.07-0.34
	c-0.09-0.03-0.18-0.06-0.27-0.08c-0.08-0.03-0.17-0.05-0.25-0.08c-0.12-0.03-0.23-0.07-0.35-0.1c-0.28-0.08-0.58-0.15-0.87-0.23
	c-0.32-0.09-0.63-0.17-0.96-0.25c-0.68-0.17-1.36-0.33-2.07-0.48h176.46c-0.03,0.01-0.07,0.01-0.09,0.03
	c-26.52,6.67-36.14,28.38-32.85,47.34c3.12,17.98,20.87,32.7,39.61,32.34c20.37-0.4,36.42-15,39.13-35.8
	c2.09-16.04-6.82-37.66-33.89-43.97c-0.22-0.05-0.42-0.11-0.65-0.16h0.69c7.58,0.02,14.31,0.14,21.03-0.03
	c7.55-0.18,13.24-6.08,13.22-13.32c-0.04-7.26-5.76-12.95-13.33-13.26c-1.33-0.05-2.67-0.01-3.99-0.01h-234
	c-1.47,0-2.96,0.07-4.43-0.06c-7.01-0.58-12.41-6.37-12.41-13.24c0-6.89,5.36-12.68,12.37-13.27c1.47-0.13,2.95-0.06,4.43-0.06
	h234.43c10.64,0,14.51-2.89,17.45-13.21c14.35-50.2,28.62-100.44,43.05-150.62c3.13-10.85,5.59-21.9,9.73-32.44
	c0.2-0.49,0.5-1.37,0.62-2.49C462.64,162.38,460.55,159.4,459.75,158.25z M381.7,458.1c0.03,7.19-5.94,13.25-13.13,13.34
	c-7.36,0.1-13.56-6.1-13.46-13.46c0.09-7.2,6.16-13.16,13.35-13.12C375.66,444.88,381.67,450.9,381.7,458.1z M193.43,458
	c0.09,7.18-5.84,13.3-13.03,13.44c-7.36,0.15-13.61-5.99-13.57-13.35c0.04-7.2,6.06-13.21,13.24-13.23
	C187.27,444.82,193.35,450.8,193.43,458z M351.06,266.71c0,23.87,0,47.75,0,71.62c-21.83-0.02-43.66-0.05-65.5-0.05v-71.57H351.06z
	 M271.39,338.27c-20.26,0-40.52,0.01-60.78,0.03v-71.59h60.78V338.27z M271.39,252.54H210.6v-73.89h60.78V252.54z M128.91,178.64
	h67.52v73.89H145.1c-5.41-24.41-10.82-48.81-16.23-73.22C128.83,179.18,128.88,179.01,128.91,178.64z M163.3,334.93
	c-5.01-22.75-10.04-45.48-15.07-68.22h48.2v71.59c-9.43,0.01-18.87,0-28.3,0.01C165.45,338.31,163.97,337.99,163.3,334.93z
	 M386.18,334.47c-0.8,2.82-1.81,3.88-5,3.88c-5.32-0.01-10.63-0.01-15.95-0.01c0-23.88,0-47.75,0-71.63h40.25
	C399.03,289.3,392.55,311.87,386.18,334.47z"/>
</svg>
