<?xml version="1.0" encoding="utf-8"?>
<!-- Generator: Adobe Illustrator 26.5.0, SVG Export Plug-In . SVG Version: 6.00 Build 0)  -->
<svg version="1.1" id="Layer_1" xmlns="http://www.w3.org/2000/svg" xmlns:xlink="http://www.w3.org/1999/xlink" x="0px" y="0px"
	 viewBox="0 0 500 500" style="enable-background:new 0 0 500 500;" xml:space="preserve">
<style type="text/css">
	.st0{fill:#D09230;}
	.st1{fill:none;stroke:#D09230;stroke-width:6;stroke-miterlimit:10;}
	.st2{fill:#1E6F2F;}
	.st3{fill:#FFFFFF;}
</style>
<circle class="st0" cx="250" cy="250" r="217.08"/>
<circle class="st1" cx="250" cy="250" r="243.2"/>
<circle class="st2" cx="250" cy="250" r="217.08"/>
<g>
	<path class="st2" d="M250,496.21c-65.76,0-127.59-25.61-174.09-72.11C29.41,377.59,3.8,315.76,3.8,250S29.41,122.41,75.91,75.91
		C122.41,29.41,184.24,3.8,250,3.8s127.59,25.61,174.09,72.11c46.5,46.5,72.11,108.33,72.11,174.09s-25.61,127.59-72.11,174.09
		C377.59,470.6,315.76,496.21,250,496.21z M250,9.8C117.55,9.8,9.8,117.55,9.8,250S117.55,490.21,250,490.21
		S490.21,382.45,490.21,250S382.45,9.8,250,9.8z"/>
</g>
<g>
	<path class="st3" d="M396.17,241.11c-4.8-37.88-38.41-65.64-75.44-65.36c-4.55,0.04-9.15,0.49-13.75,1.4
		c-5.68,1.14-11.12,3-16.75,5.12c0-6.89,0.07-13.42-0.05-19.95c-0.03-2,0.35-2.7,2.58-2.88c9.13-0.76,16.47-7.72,17.93-16.64
		c1.43-8.71-3.43-17.48-11.77-21.17c-2.65-1.18-5.44-1.79-8.31-1.81c-0.41,0-0.82,0.01-1.23,0.03c-0.26,0.01-0.5,0.02-0.72,0.02
		c-1.57,0-2.25-0.41-1.91-2.74c1.29-8.78,2.32-17.63,3.28-26.45c0.75-6.94-3.35-11.45-10.24-11.46c-16.37-0.01-32.73-0.01-49.09,0
		l0,0c-7.3,0.01-11.43,4.96-10.43,12.2c1.2,8.7,2.17,17.43,3.38,26.13c0.28,2.08-0.47,2.34-2.26,2.31
		c-2.66-0.05-5.32-0.06-7.98-0.05c-1.33,0-2.66,0.01-3.99,0.01c-1.33,0-2.66,0.01-3.99,0c-4.21-0.02-7.64,1.43-9.64,5.29
		c-1.92,3.72-1.26,7.29,1.03,10.68c3.66,5.41,7.33,10.82,10.88,16.3c2.52,3.9,5.91,6.52,10.51,7.23c1.66,0.25,1.89,0.95,1.85,2.36
		c-0.08,3.06-0.09,6.13-0.01,9.2c0.09,3.04,2.01,4.96,4.71,4.91l0,0c2.61-0.07,4.37-1.9,4.44-4.84c0.07-2.96,0.16-5.94-0.02-8.89
		c-0.12-2.02,0.52-2.52,2.52-2.51c7.82,0.04,15.65,0.07,23.47,0.06c7.82,0,15.65-0.02,23.47-0.08c2.15-0.01,2.46,0.73,2.43,2.6
		c-0.09,7.56-0.02,15.13-0.04,22.7c-0.01,3.23,1.1,5.78,4.11,7.27c1.05,0.52,2.06,0.71,3.05,0.68c1.65-0.05,3.24-0.71,4.85-1.46
		c8.93-4.2,18.18-6.48,27.63-6.49c4.29-0.01,8.63,0.45,12.99,1.4c26.52,5.8,44.44,21.91,51.6,48.05c7.1,25.98-0.27,48.62-20.02,67
		c-3.53,3.29-4.66,6.92-3.98,11.52c2.67,18.17,0.55,35.84-5.85,53.02c-4.57,12.25-13.38,18.34-26.42,18.34H198.82h-0.25
		c0.05-0.06,0.1-0.11,0.15-0.17l0,0l0,0c2.29-2.74,4.28-5.2,5.03-8.19c0.6-2.43,1.84-2.78,4.08-2.78
		c20.25,0.04,40.5,0.05,60.74,0.05c20.25,0.01,40.5,0,60.74-0.01c7.78-0.01,12.65-3.35,15.41-10.65
		c9.14-24.22,8.69-48.32-1.11-72.25c-2.41-5.89-5.16-7.69-11.46-7.69l0,0c-35.69-0.01-71.38-0.01-107.07,0.01
		c-1.11,0-2.27,0.04-3.33,0.34c-2.28,0.64-3.32,2.33-3.15,4.63c0.16,2.32,1.48,3.76,3.79,4.11c0.55,0.08,1.11,0.1,1.68,0.11
		c0.56,0.01,1.13-0.01,1.69-0.01c17.54,0.01,35.08,0.01,52.62,0.01s35.07-0.02,52.61-0.07c2.61-0.01,3.7,0.87,4.61,3.17
		c8.34,21.26,8.6,42.59,0.68,64.01c-1.53,4.16-2.91,5.09-7.27,5.09c-40.7,0-81.4,0-122.11-0.02l0,0c-0.35,0-0.75,0.12-1.14,0.11
		c-0.39-0.01-0.77-0.13-1.08-0.62c0.2-0.34,0.4-0.69,0.61-1.02c6.51-9.55,9.25-20.1,8.53-31.61c-0.35-5.56-2.59-7.87-8.22-8.1
		c-0.79-0.03-1.58-0.05-2.37-0.04c-11.73,0.02-22.14,3.94-31.26,11.59c-0.99,0.83-1.93,1.68-2.93,2.54
		c-0.25-0.37-0.43-0.52-0.44-0.68c-1.18-14.59,0.74-28.71,6.49-42.27c0.75-1.76,1.74-2.13,3.45-2.11c4.14,0.03,8.28,0.04,12.43,0.04
		s8.28-0.01,12.43-0.01c3.7-0.01,5.74-1.58,5.84-4.38c0.1-2.94-2.08-4.8-5.8-4.8c-8.69-0.03-17.39,0-26.08-0.01l0,0
		c-5.05-0.01-8.38,2.29-10.41,6.98c-7.19,16.66-9.44,33.99-6.86,51.86c0.58,3.98-0.04,6.07-3.63,7.78c-0.7,0.34-1.46,0.51-2.21,0.53
		c-2.25,0.06-4.41-1.25-4.78-3.59c-3.08-19.15-1.7-37.92,5.33-56.06c12.24-31.61,34.66-52.78,66.58-63.99
		c5.77-2.03,7.82-4.85,7.83-10.91c0.01-8.19,0.02-16.36,0-24.54c-0.01-3.53-1.82-5.68-4.63-5.64c-2.79,0.05-4.54,2.21-4.55,5.77
		c-0.02,7.46-0.14,14.93,0.06,22.4c0.07,2.73-0.66,3.91-3.4,4.95c-41.36,15.63-66.77,45.1-75.93,88.39
		c-2.43,11.49-2.55,23.13-1.2,34.79c0.2,1.73,0.34,2.74-1.53,2.73c-0.27,0-0.58-0.02-0.93-0.07c-1.49-0.19-2.96-0.28-4.41-0.28
		c-6.31-0.02-12.32,1.65-17.87,5.18c-9.48,6.04-13.85,16.47-10.65,26.05c0.84,2.52,1.99,4.74,3.4,6.69
		c4.68,6.49,11.14,8.93,14.42,10.11c6.45,2.31,12.23,2.19,15.78,1.79c5.36-0.46,10.4-1.82,14.84-5.02c1.16-0.83,2.29-0.56,3.43,0.14
		c4.2,2.59,8.63,4.57,13.64,4.88h165.69l0,0l0,0c0.22-0.16,0.42-0.45,0.66-0.49c13.68-2.41,22.77-10.28,27.7-23.15
		c7.18-18.69,9.48-37.93,6.7-57.77c-0.25-1.76,0.11-2.94,1.5-4.26C391.2,289.61,399.49,267.37,396.17,241.11z M147.3,377.52
		c0.65,1.34,0.62,2.03-0.72,2.94c-8.26,5.56-21.79,4.77-29.24-1.82c-6.58-5.8-6.66-14.46-0.08-20.31c4.57-4.06,10.08-5.62,16.8-5.56
		c4.03-0.05,8.37,1.18,12.41,3.61c1.23,0.75,1.64,1.4,0.9,2.88C144.33,365.31,144.36,371.46,147.3,377.52z M191.55,378.06
		c-4.59,4.41-10.29,5.97-16.45,6.14c-6.13-0.2-11.73-1.77-16.26-6.08c-6.01-5.71-5.98-13.74,0.01-19.43
		c8.31-7.89,24.21-7.92,32.55-0.06C197.44,364.33,197.53,372.32,191.55,378.06z M175.58,343.49c5.7-5.77,12.11-9.13,19.46-10.85
		c2.59-0.6,5.22-0.81,7.87-0.89c0.93-0.02,1.76-0.12,1.81,1.31c0.26,7.38-1.37,14.26-5.06,20.89
		C193.11,347.07,185.2,343.92,175.58,343.49z M278.27,88.37c2.07-0.02,2.86,0.31,2.54,2.64c-1.22,8.89-2.26,17.81-3.32,26.72
		c-0.19,1.63-0.84,2.14-2.51,2.13c-13.28-0.07-26.54-0.07-39.82,0c-1.73,0.01-2.17-0.56-2.37-2.23c-1.03-9.01-2.17-18.02-3.41-27.02
		c-0.26-1.87,0.3-2.25,2.02-2.23c7.96,0.07,15.92,0.03,23.89,0.03C262.96,88.42,270.62,88.48,278.27,88.37z M249.58,150.39
		c-9.19,0-18.39-0.07-27.58,0.04c-3.08,0.03-5.21-1.14-6.85-3.7c-3.25-5.06-6.65-10.03-9.95-15.06c-0.47-0.72-1.58-1.39-0.95-2.35
		c0.46-0.72,1.52-0.28,2.29-0.28c13.89-0.02,27.78-0.01,41.68-0.01c13.89,0,27.78-0.03,41.68,0.01c6.43,0.02,11.32,4.15,11.73,9.74
		c0.49,6.47-4.25,11.55-10.99,11.58C276.95,150.43,263.27,150.39,249.58,150.39z"/>
	<path class="st3" d="M347.79,273.61c3.41,5.7,9.94,5.44,13.15-0.41c3.69-6.75,5.45-14.03,5.53-21.7c0-0.61,0.04-1.23-0.01-1.84
		c-0.07-1.02-0.19-2.03-0.32-3.05c-2.23-17.22-11.32-29.64-27.09-36.52c-15.83-6.92-31.1-4.74-45.1,5.42
		c-5.26,3.82-4.46,10.31,1.55,12.83C317.9,237.72,335.33,252.77,347.79,273.61z M343.01,222.87c13.16,10.03,17.99,28.19,11.06,43.22
		c-12.92-20.08-30.05-35.07-51.71-44.83C311.72,214.03,329.59,212.64,343.01,222.87z"/>
</g>
</svg>
