<?xml version="1.0" encoding="utf-8"?>
<!-- Generator: Adobe Illustrator 26.5.0, SVG Export Plug-In . SVG Version: 6.00 Build 0)  -->
<svg version="1.1" id="Layer_1" xmlns="http://www.w3.org/2000/svg" xmlns:xlink="http://www.w3.org/1999/xlink" x="0px" y="0px"
	 viewBox="0 0 500 500" style="enable-background:new 0 0 500 500;" xml:space="preserve">
<style type="text/css">
	.st0{fill:#D09230;}
	.st1{fill:none;stroke:#D09230;stroke-width:6;stroke-miterlimit:10;}
	.st2{fill:#1E6F2F;}
	.st3{fill:#FFFFFF;}
</style>
<circle class="st0" cx="250" cy="250" r="217.08"/>
<circle class="st1" cx="250" cy="250" r="243.2"/>
<circle class="st2" cx="250" cy="250" r="217.08"/>
<g>
	<path class="st2" d="M250,496.21c-65.76,0-127.59-25.61-174.09-72.11C29.41,377.59,3.8,315.76,3.8,250S29.41,122.41,75.91,75.91
		C122.41,29.41,184.24,3.8,250,3.8s127.59,25.61,174.09,72.11c46.5,46.5,72.11,108.33,72.11,174.09s-25.61,127.59-72.11,174.09
		C377.59,470.6,315.76,496.21,250,496.21z M250,9.8C117.55,9.8,9.8,117.55,9.8,250S117.55,490.21,250,490.21
		S490.21,382.45,490.21,250S382.45,9.8,250,9.8z"/>
</g>
<g>
	<path class="st3" d="M232.76,282.68c-0.01-8.76-5.65-14.34-14.45-14.36c-14.41-0.01-28.82-0.01-43.23,0
		c-8.96,0.01-14.49,5.6-14.49,14.66c-0.01,26.97-0.01,53.95,0,80.92c0,9.01,5.45,14.69,14.46,14.75c14.4,0.1,28.81,0.1,43.22,0
		c9.03-0.06,14.49-5.72,14.5-14.72c0.01-13.44,0-26.86,0-40.3C232.77,309.98,232.8,296.33,232.76,282.68z M224.96,363.34
		c0,5.5-1.94,7.5-7.37,7.52c-13.97,0.03-27.94,0.03-41.91,0c-5.3-0.01-7.3-2.02-7.3-7.25c-0.01-13.43-0.01-26.85-0.01-40.28
		c0-13.32,0-26.63,0.01-39.95c0-5.33,1.91-7.26,7.2-7.26c14.08-0.01,28.15-0.01,42.23,0c5.23,0.01,7.15,1.96,7.15,7.32
		C224.98,310.08,224.98,336.71,224.96,363.34z M232.76,282.68c-0.01-8.76-5.65-14.34-14.45-14.36c-14.41-0.01-28.82-0.01-43.23,0
		c-8.96,0.01-14.49,5.6-14.49,14.66c-0.01,26.97-0.01,53.95,0,80.92c0,9.01,5.45,14.69,14.46,14.75c14.4,0.1,28.81,0.1,43.22,0
		c9.03-0.06,14.49-5.72,14.5-14.72c0.01-13.44,0-26.86,0-40.3C232.77,309.98,232.8,296.33,232.76,282.68z M224.96,363.34
		c0,5.5-1.94,7.5-7.37,7.52c-13.97,0.03-27.94,0.03-41.91,0c-5.3-0.01-7.3-2.02-7.3-7.25c-0.01-13.43-0.01-26.85-0.01-40.28
		c0-13.32,0-26.63,0.01-39.95c0-5.33,1.91-7.26,7.2-7.26c14.08-0.01,28.15-0.01,42.23,0c5.23,0.01,7.15,1.96,7.15,7.32
		C224.98,310.08,224.98,336.71,224.96,363.34z M232.76,282.68c-0.01-8.76-5.65-14.34-14.45-14.36c-14.41-0.01-28.82-0.01-43.23,0
		c-8.96,0.01-14.49,5.6-14.49,14.66c-0.01,26.97-0.01,53.95,0,80.92c0,9.01,5.45,14.69,14.46,14.75c14.4,0.1,28.81,0.1,43.22,0
		c9.03-0.06,14.49-5.72,14.5-14.72c0.01-13.44,0-26.86,0-40.3C232.77,309.98,232.8,296.33,232.76,282.68z M224.96,363.34
		c0,5.5-1.94,7.5-7.37,7.52c-13.97,0.03-27.94,0.03-41.91,0c-5.3-0.01-7.3-2.02-7.3-7.25c-0.01-13.43-0.01-26.85-0.01-40.28
		c0-13.32,0-26.63,0.01-39.95c0-5.33,1.91-7.26,7.2-7.26c14.08-0.01,28.15-0.01,42.23,0c5.23,0.01,7.15,1.96,7.15,7.32
		C224.98,310.08,224.98,336.71,224.96,363.34z M232.76,282.68c-0.01-8.76-5.65-14.34-14.45-14.36c-14.41-0.01-28.82-0.01-43.23,0
		c-8.96,0.01-14.49,5.6-14.49,14.66c-0.01,26.97-0.01,53.95,0,80.92c0,9.01,5.45,14.69,14.46,14.75c14.4,0.1,28.81,0.1,43.22,0
		c9.03-0.06,14.49-5.72,14.5-14.72c0.01-13.44,0-26.86,0-40.3C232.77,309.98,232.8,296.33,232.76,282.68z M224.96,363.34
		c0,5.5-1.94,7.5-7.37,7.52c-13.97,0.03-27.94,0.03-41.91,0c-5.3-0.01-7.3-2.02-7.3-7.25c-0.01-13.43-0.01-26.85-0.01-40.28
		c0-13.32,0-26.63,0.01-39.95c0-5.33,1.91-7.26,7.2-7.26c14.08-0.01,28.15-0.01,42.23,0c5.23,0.01,7.15,1.96,7.15,7.32
		C224.98,310.08,224.98,336.71,224.96,363.34z M232.76,282.68c-0.01-8.76-5.65-14.34-14.45-14.36c-14.41-0.01-28.82-0.01-43.23,0
		c-8.96,0.01-14.49,5.6-14.49,14.66c-0.01,26.97-0.01,53.95,0,80.92c0,9.01,5.45,14.69,14.46,14.75c14.4,0.1,28.81,0.1,43.22,0
		c9.03-0.06,14.49-5.72,14.5-14.72c0.01-13.44,0-26.86,0-40.3C232.77,309.98,232.8,296.33,232.76,282.68z M224.96,363.34
		c0,5.5-1.94,7.5-7.37,7.52c-13.97,0.03-27.94,0.03-41.91,0c-5.3-0.01-7.3-2.02-7.3-7.25c-0.01-13.43-0.01-26.85-0.01-40.28
		c0-13.32,0-26.63,0.01-39.95c0-5.33,1.91-7.26,7.2-7.26c14.08-0.01,28.15-0.01,42.23,0c5.23,0.01,7.15,1.96,7.15,7.32
		C224.98,310.08,224.98,336.71,224.96,363.34z M232.76,282.68c-0.01-8.76-5.65-14.34-14.45-14.36c-14.41-0.01-28.82-0.01-43.23,0
		c-8.96,0.01-14.49,5.6-14.49,14.66c-0.01,26.97-0.01,53.95,0,80.92c0,9.01,5.45,14.69,14.46,14.75c14.4,0.1,28.81,0.1,43.22,0
		c9.03-0.06,14.49-5.72,14.5-14.72c0.01-13.44,0-26.86,0-40.3C232.77,309.98,232.8,296.33,232.76,282.68z M224.96,363.34
		c0,5.5-1.94,7.5-7.37,7.52c-13.97,0.03-27.94,0.03-41.91,0c-5.3-0.01-7.3-2.02-7.3-7.25c-0.01-13.43-0.01-26.85-0.01-40.28
		c0-13.32,0-26.63,0.01-39.95c0-5.33,1.91-7.26,7.2-7.26c14.08-0.01,28.15-0.01,42.23,0c5.23,0.01,7.15,1.96,7.15,7.32
		C224.98,310.08,224.98,336.71,224.96,363.34z M256.13,269.86c-0.05-16.46-6.74-29.94-19.59-40.29c-1.27-1.02-2.53-2.04-3.38-3.46
		c-2.56-4.25-1.41-8.3,2.95-10.39c4.64-2.23,7.3-7.47,6.28-12.39c-1.07-5.14-5.57-9.1-10.8-9.12c-23.3-0.06-46.59-0.06-69.88,0
		c-5.19,0.01-9.82,4.1-10.79,9.15c-0.99,5.09,1.79,10.37,6.59,12.54c3.66,1.64,4.33,2.9,3.81,6.91c-0.39,3.04-2.31,4.98-4.56,6.8
		c-13.06,10.51-19.56,24.2-19.6,40.93c-0.04,20.03-0.01,40.08-0.01,60.12c0,20.69-0.01,41.38,0.01,62.08
		c0.01,12.05,8.37,20.54,20.33,20.57c26.11,0.04,52.22,0.04,78.33,0c11.82-0.03,20.31-8.47,20.32-20.26
		C256.21,351.98,256.27,310.92,256.13,269.86z M158.6,205.67c-0.2-2.46,1.48-3.69,4.89-3.69c22.07-0.01,44.15,0.01,66.21-0.03
		c2.64-0.01,5.01,0.37,4.99,3.59c-0.01,3.18-2.39,3.61-5.03,3.6c-10.92-0.04-21.86-0.01-32.78-0.01c-11.15,0-22.29-0.03-33.44,0.01
		C160.91,209.16,158.84,208.65,158.6,205.67z M248.37,392.36c-0.01,8.32-4.8,13.13-13.09,13.14c-25.79,0.01-51.59,0.01-77.38,0
		c-8.08-0.01-12.92-4.88-12.92-12.96c-0.01-20.8,0-41.62,0-62.42c0-19.72,0.03-39.45-0.01-59.17c-0.02-14.59,5.51-26.5,17.03-35.51
		c5.4-4.23,7.93-9.63,7.03-16.45c-0.25-1.91,0.43-2.07,2.01-2.07c17.12,0.04,34.26,0.05,51.38-0.01c1.82-0.01,2.1,0.57,1.9,2.21
		c-0.82,6.83,1.76,12.18,7.15,16.4c11.29,8.88,16.89,20.6,16.91,34.93C248.4,311.07,248.38,351.72,248.37,392.36z M232.76,282.68
		c-0.01-8.76-5.65-14.34-14.45-14.36c-14.41-0.01-28.82-0.01-43.23,0c-8.96,0.01-14.49,5.6-14.49,14.66
		c-0.01,26.97-0.01,53.95,0,80.92c0,9.01,5.45,14.69,14.46,14.75c14.4,0.1,28.81,0.1,43.22,0c9.03-0.06,14.49-5.72,14.5-14.72
		c0.01-13.44,0-26.86,0-40.3C232.77,309.98,232.8,296.33,232.76,282.68z M224.96,363.34c0,5.5-1.94,7.5-7.37,7.52
		c-13.97,0.03-27.94,0.03-41.91,0c-5.3-0.01-7.3-2.02-7.3-7.25c-0.01-13.43-0.01-26.85-0.01-40.28c0-13.32,0-26.63,0.01-39.95
		c0-5.33,1.91-7.26,7.2-7.26c14.08-0.01,28.15-0.01,42.23,0c5.23,0.01,7.15,1.96,7.15,7.32
		C224.98,310.08,224.98,336.71,224.96,363.34z M232.76,282.68c-0.01-8.76-5.65-14.34-14.45-14.36c-14.41-0.01-28.82-0.01-43.23,0
		c-8.96,0.01-14.49,5.6-14.49,14.66c-0.01,26.97-0.01,53.95,0,80.92c0,9.01,5.45,14.69,14.46,14.75c14.4,0.1,28.81,0.1,43.22,0
		c9.03-0.06,14.49-5.72,14.5-14.72c0.01-13.44,0-26.86,0-40.3C232.77,309.98,232.8,296.33,232.76,282.68z M224.96,363.34
		c0,5.5-1.94,7.5-7.37,7.52c-13.97,0.03-27.94,0.03-41.91,0c-5.3-0.01-7.3-2.02-7.3-7.25c-0.01-13.43-0.01-26.85-0.01-40.28
		c0-13.32,0-26.63,0.01-39.95c0-5.33,1.91-7.26,7.2-7.26c14.08-0.01,28.15-0.01,42.23,0c5.23,0.01,7.15,1.96,7.15,7.32
		C224.98,310.08,224.98,336.71,224.96,363.34z M232.76,282.68c-0.01-8.76-5.65-14.34-14.45-14.36c-14.41-0.01-28.82-0.01-43.23,0
		c-8.96,0.01-14.49,5.6-14.49,14.66c-0.01,26.97-0.01,53.95,0,80.92c0,9.01,5.45,14.69,14.46,14.75c14.4,0.1,28.81,0.1,43.22,0
		c9.03-0.06,14.49-5.72,14.5-14.72c0.01-13.44,0-26.86,0-40.3C232.77,309.98,232.8,296.33,232.76,282.68z M224.96,363.34
		c0,5.5-1.94,7.5-7.37,7.52c-13.97,0.03-27.94,0.03-41.91,0c-5.3-0.01-7.3-2.02-7.3-7.25c-0.01-13.43-0.01-26.85-0.01-40.28
		c0-13.32,0-26.63,0.01-39.95c0-5.33,1.91-7.26,7.2-7.26c14.08-0.01,28.15-0.01,42.23,0c5.23,0.01,7.15,1.96,7.15,7.32
		C224.98,310.08,224.98,336.71,224.96,363.34z M232.76,282.68c-0.01-8.76-5.65-14.34-14.45-14.36c-14.41-0.01-28.82-0.01-43.23,0
		c-8.96,0.01-14.49,5.6-14.49,14.66c-0.01,26.97-0.01,53.95,0,80.92c0,9.01,5.45,14.69,14.46,14.75c14.4,0.1,28.81,0.1,43.22,0
		c9.03-0.06,14.49-5.72,14.5-14.72c0.01-13.44,0-26.86,0-40.3C232.77,309.98,232.8,296.33,232.76,282.68z M224.96,363.34
		c0,5.5-1.94,7.5-7.37,7.52c-13.97,0.03-27.94,0.03-41.91,0c-5.3-0.01-7.3-2.02-7.3-7.25c-0.01-13.43-0.01-26.85-0.01-40.28
		c0-13.32,0-26.63,0.01-39.95c0-5.33,1.91-7.26,7.2-7.26c14.08-0.01,28.15-0.01,42.23,0c5.23,0.01,7.15,1.96,7.15,7.32
		C224.98,310.08,224.98,336.71,224.96,363.34z M232.76,282.68c-0.01-8.76-5.65-14.34-14.45-14.36c-14.41-0.01-28.82-0.01-43.23,0
		c-8.96,0.01-14.49,5.6-14.49,14.66c-0.01,26.97-0.01,53.95,0,80.92c0,9.01,5.45,14.69,14.46,14.75c14.4,0.1,28.81,0.1,43.22,0
		c9.03-0.06,14.49-5.72,14.5-14.72c0.01-13.44,0-26.86,0-40.3C232.77,309.98,232.8,296.33,232.76,282.68z M224.96,363.34
		c0,5.5-1.94,7.5-7.37,7.52c-13.97,0.03-27.94,0.03-41.91,0c-5.3-0.01-7.3-2.02-7.3-7.25c-0.01-13.43-0.01-26.85-0.01-40.28
		c0-13.32,0-26.63,0.01-39.95c0-5.33,1.91-7.26,7.2-7.26c14.08-0.01,28.15-0.01,42.23,0c5.23,0.01,7.15,1.96,7.15,7.32
		C224.98,310.08,224.98,336.71,224.96,363.34z"/>
	<path class="st3" d="M388.92,172.32c-0.57-6.74-5.87-12.35-12.38-13.85c-2.66-0.62-5.39-0.74-8.08-0.51
		c-2.02,0.17-2.95-0.68-3.58-2.42c-1.69-4.71-2.62-9.58-3.36-14.51c-1.85-12.25-1.99-24.6-2.54-36.95
		c-0.42-9.15-7.94-16.65-17.14-17.33c-9.53-0.71-18.01,5.46-19.98,14.48c-0.68,3.11-0.54,6.25-0.63,9.38
		c-0.37,13.22-1,26.41-3.96,39.36c-1.74,7.58-1.79,7.56-9.48,7.94c-9.73,0.48-16.43,7.51-16.5,17.32c-0.01,3.36,0,6.72,0,10.08
		c0,3.69-0.04,7.37,0.01,11.06c0.13,9.43,7.26,16.54,16.72,16.68c3.46,0.05,6.95,0.19,10.4-0.04c2.43-0.16,3.02,0.57,3.07,2.97
		c0.51,23.19,1.13,46.37,1.77,69.56c0.22,8.02,3.16,15.02,8.7,20.75c5.16,5.35,11.42,5.29,16.52-0.11
		c5.2-5.52,8.26-12.16,8.48-19.84c0.71-23.62,1.32-47.23,1.87-70.85c0.05-2.01,0.54-2.57,2.55-2.48c3.78,0.17,7.58,0.11,11.38,0.03
		c8.53-0.19,15.55-6.3,16.19-14.74C389.62,189.66,389.63,180.96,388.92,172.32z M329.08,106.49c0.06-3.13,0.66-6.02,2.73-8.45
		c3-3.54,7.71-4.82,12.07-3.3c4.31,1.49,7.19,5.35,7.35,10.09c0.41,12.34,0.67,24.68,2.51,36.93c0.71,4.7,1.51,9.38,3.08,13.9
		c0.48,1.38,0.78,2.33-1.44,2.31c-10.39-0.11-20.8-0.05-31.19-0.07c-0.3,0-0.58-0.16-0.94-0.26
		C328.26,140.89,328.76,123.7,329.08,106.49z M351.12,215.79c-0.39,11.79-0.68,23.59-1,35.39h-0.92c0,11.58,0.04,23.15-0.01,34.74
		c-0.02,5.67-2.53,10.43-6.04,14.67c-2.02,2.43-3.93,2.42-5.96-0.01c-3.54-4.23-5.93-9.06-6.09-14.69
		c-0.67-23.37-1.23-46.75-1.91-70.12c-0.06-2.04,0.3-2.83,2.56-2.77c5.62,0.16,11.26,0.19,16.88-0.01
		C350.97,212.91,351.18,213.85,351.12,215.79z M381.4,195.65c-0.11,6.18-3.65,9.57-9.81,9.6c-10.51,0.04-21.01,0.01-31.52,0.01
		c-10.28,0-20.57,0.01-30.87-0.01c-6.73-0.01-10.1-3.44-10.13-10.22c-0.01-6.49-0.04-13,0.01-19.49c0.04-6.02,3.38-9.76,9.28-9.79
		c21.23-0.1,42.45-0.1,63.68-0.01c5.76,0.03,9.22,3.62,9.33,9.44C381.53,182.01,381.53,188.83,381.4,195.65z"/>
	<path class="st3" d="M364.1,352.03c-3.44-11.28-9.92-20.83-17.4-29.71c-3.35-3.98-9.97-3.87-13.31,0.14
		c-7.21,8.66-13.72,17.89-17,28.84c-2.89,9.6-0.39,18.09,7.13,24.67c7.96,6.96,17.23,8.42,26.89,4.1c9.16-4.1,14-11.51,14.51-21.6
		C365.01,356.25,364.73,354.09,364.1,352.03z M339.88,374.39c-11.74-0.04-19.5-10.75-15.71-21.94c3.02-8.95,8.57-16.45,14.15-23.91
		c1.04-1.4,2.36-1.64,3.49-0.15c5.75,7.6,11.45,15.29,14.4,24.49C359.81,364.08,351.81,374.42,339.88,374.39z"/>
	<path class="st3" d="M232.76,282.68c-0.01-8.76-5.65-14.34-14.45-14.36c-14.41-0.01-28.82-0.01-43.23,0
		c-8.96,0.01-14.49,5.6-14.49,14.66c-0.01,26.97-0.01,53.95,0,80.92c0,9.01,5.45,14.69,14.46,14.75c14.4,0.1,28.81,0.1,43.22,0
		c9.03-0.06,14.49-5.72,14.5-14.72c0.01-13.44,0-26.86,0-40.3C232.77,309.98,232.8,296.33,232.76,282.68z M224.96,363.34
		c0,5.5-1.94,7.5-7.37,7.52c-13.97,0.03-27.94,0.03-41.91,0c-5.3-0.01-7.3-2.02-7.3-7.25c-0.01-13.43-0.01-26.85-0.01-40.28
		c0-13.32,0-26.63,0.01-39.95c0-5.33,1.91-7.26,7.2-7.26c14.08-0.01,28.15-0.01,42.23,0c5.23,0.01,7.15,1.96,7.15,7.32
		C224.98,310.08,224.98,336.71,224.96,363.34z"/>
	<path class="st3" d="M232.76,282.68c-0.01-8.76-5.65-14.34-14.45-14.36c-14.41-0.01-28.82-0.01-43.23,0
		c-8.96,0.01-14.49,5.6-14.49,14.66c-0.01,26.97-0.01,53.95,0,80.92c0,9.01,5.45,14.69,14.46,14.75c14.4,0.1,28.81,0.1,43.22,0
		c9.03-0.06,14.49-5.72,14.5-14.72c0.01-13.44,0-26.86,0-40.3C232.77,309.98,232.8,296.33,232.76,282.68z M224.96,363.34
		c0,5.5-1.94,7.5-7.37,7.52c-13.97,0.03-27.94,0.03-41.91,0c-5.3-0.01-7.3-2.02-7.3-7.25c-0.01-13.43-0.01-26.85-0.01-40.28
		c0-13.32,0-26.63,0.01-39.95c0-5.33,1.91-7.26,7.2-7.26c14.08-0.01,28.15-0.01,42.23,0c5.23,0.01,7.15,1.96,7.15,7.32
		C224.98,310.08,224.98,336.71,224.96,363.34z"/>
	<path class="st3" d="M240.03,110.76c-0.81-0.27-1.81,0.1-2.42-0.72h-6.27c-0.25,0.67-0.88,0.42-1.35,0.51
		c-10.96,2.11-19.73,7.65-26.25,16.72c-2.48,3.45-4.22,7.29-5.67,11.52c-0.27-0.36-0.4-0.55-0.53-0.72
		c-6.93-9.21-16.12-14.51-27.5-16.24c-11.01-1.68-19.13,5.67-18.31,16.7c1.47,19.68,18.66,36.13,38.45,36.79
		c2.04,0.07,5.18-0.73,5.88,0.26c1.03,1.44,0.34,4.12,0.36,6.28c0.04,3.3,1.69,5.23,4.48,5.23c2.81-0.01,4.45-1.92,4.46-5.24
		c0.01-5.44,0.08-10.89-0.04-16.32c-0.04-1.64,0.47-2.1,1.99-1.81c0.43,0.09,0.88,0.04,1.34,0.04
		c21.32,0.42,39.01-15.08,41.38-36.26C250.93,119.64,246.98,113.12,240.03,110.76z M189.54,153.14c-0.84-0.86-1.72-1.69-2.95-1.9
		c-2.04-0.34-3.72,0.31-4.77,2.12c-1.03,1.8-0.88,3.64,0.52,5.18c1.81,1.97,3.77,3.81,5.64,5.74c0.56,0.57,1.29,1.02,1.64,1.99
		c-15.45-1.8-26.25-11.97-28.74-26.92c-0.14-0.88-0.22-1.78-0.24-2.67c-0.05-3.7,2.44-6.34,6.16-6.05
		c12.69,1.01,21.66,7.45,27.05,18.93c1.47,3.13,2.17,6.47,2.55,10.54C193.87,157.53,191.7,155.35,189.54,153.14z M240.76,128.86
		c-2.39,13.73-13.73,24.32-27.67,25.85c-0.26,0.03-0.52,0-1.44,0c3.25-3.18,6.1-5.97,8.97-8.76c0.81-0.79,1.55-1.64,1.74-2.79
		c0.34-2.04-0.3-3.73-2.11-4.77c-1.9-1.09-3.76-0.84-5.34,0.67c-2.57,2.48-5.06,5.05-7.61,7.55c-0.51,0.5-0.88,1.22-1.71,1.34
		c0.65-13.81,11.85-26.14,25.86-28.49C239.47,118.1,242.16,120.82,240.76,128.86z"/>
	<path class="st3" d="M125.44,144.49c2.36-0.02,4.23,1.63,4.43,4.1c0.13,1.63,0.11,3.27,0.05,4.91c-0.04,1.05,0.28,1.49,1.38,1.43
		c1.41-0.07,2.83-0.07,4.24-0.01c3,0.13,5.01,2.07,4.91,4.65c-0.1,2.56-2.03,4.18-4.99,4.29c-1.76,0.07-4.02-0.77-5.15,0.35
		c-1.14,1.14-0.28,3.4-0.36,5.16c-0.15,3.06-1.91,5.06-4.51,5.03c-2.52-0.04-4.29-1.99-4.44-4.9c-0.01-0.07,0.01-0.15,0-0.22
		c-0.18-1.75,0.82-4.13-0.44-5.09c-1.15-0.88-3.41-0.29-5.18-0.34c-2.93-0.09-4.83-1.82-4.85-4.41c-0.01-2.46,1.84-4.28,4.59-4.52
		c0.22-0.02,0.45,0,0.67-0.01c1.68-0.13,3.98,0.75,4.89-0.38c0.85-1.06,0.27-3.26,0.33-4.95
		C121.1,146.46,122.81,144.51,125.44,144.49z"/>
	<path class="st3" d="M278.31,181.52c0.05,2.26-1.56,4.2-3.86,4.44c-1.48,0.16-2.99,0.22-4.46,0.06c-1.87-0.2-2.31,0.58-2.17,2.26
		c0.11,1.41,0.08,2.84-0.07,4.24c-0.28,2.46-2.23,4.14-4.52,4.06c-2.31-0.08-4.11-1.85-4.28-4.32c-0.1-1.64-0.07-3.28-0.04-4.91
		c0.02-0.97-0.34-1.32-1.31-1.3c-1.64,0.04-3.29,0.07-4.91-0.04c-2.48-0.15-4.23-1.95-4.31-4.28c-0.07-2.28,1.61-4.26,4.07-4.52
		c1.62-0.17,3.28-0.14,4.91-0.07c1.14,0.04,1.62-0.28,1.56-1.5c-0.08-1.56-0.07-3.13,0.03-4.69c0.16-2.5,1.94-4.21,4.29-4.27
		c2.34-0.06,4.25,1.57,4.51,4.05c0.17,1.62,0.15,3.28,0.07,4.91c-0.06,1.2,0.36,1.56,1.52,1.49c1.56-0.08,3.14-0.1,4.69,0.03
		C276.54,177.39,278.25,179.22,278.31,181.52z"/>
	<path class="st3" d="M150.92,186.04c0.03,2.54-1.96,4.56-4.47,4.53c-2.38-0.03-4.38-2.03-4.41-4.41c-0.04-2.47,2.04-4.55,4.52-4.51
		C148.99,181.66,150.89,183.59,150.92,186.04z"/>
	<path class="st3" d="M261.63,149.36c-0.01-2.57,1.93-4.5,4.49-4.46c2.43,0.04,4.36,1.97,4.38,4.39c0.02,2.45-2.1,4.57-4.53,4.52
		C263.58,153.76,261.64,151.78,261.63,149.36z"/>
</g>
</svg>
