<?xml version="1.0" encoding="utf-8"?>
<!-- Generator: Adobe Illustrator 26.5.0, SVG Export Plug-In . SVG Version: 6.00 Build 0)  -->
<svg version="1.1" id="Layer_1" xmlns="http://www.w3.org/2000/svg" xmlns:xlink="http://www.w3.org/1999/xlink" x="0px" y="0px"
	 viewBox="0 0 500 500" style="enable-background:new 0 0 500 500;" xml:space="preserve">
<style type="text/css">
	.st0{fill:#D09230;}
	.st1{fill:none;stroke:#D09230;stroke-width:6;stroke-miterlimit:10;}
	.st2{fill:#1E6F2F;}
	.st3{fill:#FCFCFC;}
	.st4{fill:#010101;}
	.st5{fill:#FEFEFE;}
	.st6{clip-path:url(#SVGID_00000176027584714178249380000007741538071272695947_);}
	.st7{fill:#FFFFFF;}
</style>
<circle class="st0" cx="250" cy="250" r="217.08"/>
<circle class="st1" cx="250" cy="250" r="243.2"/>
<circle class="st2" cx="250" cy="250" r="217.08"/>
<g>
	<path class="st2" d="M250,496.21c-65.76,0-127.59-25.61-174.09-72.11C29.41,377.59,3.8,315.76,3.8,250S29.41,122.41,75.91,75.91
		C122.41,29.41,184.24,3.8,250,3.8s127.59,25.61,174.09,72.11c46.5,46.5,72.11,108.33,72.11,174.09s-25.61,127.59-72.11,174.09
		C377.59,470.6,315.76,496.21,250,496.21z M250,9.8C117.55,9.8,9.8,117.55,9.8,250S117.55,490.21,250,490.21
		S490.21,382.45,490.21,250S382.45,9.8,250,9.8z"/>
</g>
<g>
	<path class="st3" d="M407.41,255.47c5.54-9.15,4-20.59-4.18-29.11c-5.28-5.5-11.74-9.81-17.56-14.79c-0.76-0.64-1.12-0.4-1.69,0.25
		c-2.11,2.35-4.08,2.51-6.52,0.55c-27.74-22.31-55.46-44.62-83.17-66.95c-2.73-2.2-2.92-3.99-0.7-6.65
		c0.71-0.86,0.93-1.42-0.19-2.07c-0.5-0.29-0.89-0.7-1.34-1.06c-28.46-23.09-56.92-46.19-85.4-69.27c-2.83-2.31-5.11-1.8-6.67,1.39
		c-3.25,6.7-2.12,13.06,1.92,19.22c3.38,5.13,8.14,9.08,12.82,13.09c30.64,26.24,62.02,51.72,93.27,77.32
		c21.2,17.36,42.52,34.63,63.74,51.96c1.32,1.09,2.18,1.31,3.78,0.25c5.54-3.67,12.92-3.08,18.15,1.21
		c9.22,7.53,6.88,21.55-4.2,25.22c-10.35,3.43-21.22-4.59-20.55-15.3c0.12-1.85-0.53-2.35-2.17-2.86
		c-34.4-10.9-68.75-21.91-103.14-32.76c-31.71-10-63.38-20.08-95.37-29.25c-4.74-1.36-9.51-2.59-14.52-2.66
		c-7.57-0.1-13.59,2.45-17.43,8.71c-2.01,3.27-1.15,5.34,2.68,6.57c43.17,13.88,86.33,27.75,129.5,41.63
		c4.45,1.43,8.9,2.83,13.55,4.3c-0.69-2.63-1.21-4.99-0.97-7.43c0.49,2.34,1.67,4.53,1.66,6.96c0.01,0.45,0.15,0.78,0.67,0.9
		c1.35,0.34,2.58,1.13,4.13,1.05c-0.94-2.19-0.84-4.35-1.08-6.48c0.76,2,1.74,3.93,1.73,6.09c0,0.62,0.22,1.03,0.9,1.22
		c1.21,0.34,2.42,0.72,3.86,1.14c-0.79-2.47-0.92-4.75-1.05-7.03c0.65,2,1.59,3.91,1.75,6.02c0.04,0.56-0.2,1.3,0.72,1.52
		c1.28,0.3,2.45,1.02,3.76,1.07c-0.36-2.45-0.7-4.79-1.04-7.13c1.06,2.07,1.71,4.21,1.99,6.44c0.08,0.59,0.02,1.22,0.88,1.46
		c1.21,0.33,2.39,0.73,3.63,1.13c-0.21-1.44-0.39-2.58-0.54-3.72c-0.15-1.13-0.29-2.26-0.43-3.39c0.41,0.24,0.54,0.48,0.61,0.75
		c0.36,1.32,0.73,2.64,1.07,3.97c0.79,3.23,0.89,3.32,4.75,3.93c-0.43-2.4-0.89-4.77-0.77-7.2c0.65,2.2,1.23,4.41,1.77,6.64
		c0.13,0.57-0.01,1.2,0.88,1.42c1.17,0.28,2.3,0.7,3.59,1.11c-0.33-2.14-0.62-4.04-0.91-5.95c0.85,1.66,1.4,3.38,1.88,5.12
		c0.16,0.57,0,1.22,0.87,1.45c1.17,0.31,2.3,0.72,3.62,1.13c-0.34-2.27-0.65-4.3-0.96-6.35c0.81,1.85,1.53,3.7,1.9,5.63
		c0.17,0.91,0.51,1.33,1.37,1.51c1.04,0.2,1.94,0.86,3.08,0.78c-0.3-2.12-0.59-4.2-0.89-6.28c0.79,1.88,1.42,3.76,1.9,5.67
		c0.16,0.6,0.03,1.2,0.88,1.44c1.36,0.37,2.7,0.82,4.27,1.31c-1.01-2.69-1.04-5.19-1.23-7.68c0.79,2.21,1.61,4.4,1.83,6.73
		c0.05,0.54-0.18,1.25,0.79,1.46c1.28,0.27,2.47,0.97,3.89,1.01c-0.79-2.56-0.98-5.05-1.03-7.55c0.72,2.37,1.64,4.69,1.81,7.16
		c0.04,0.67,0.22,0.98,0.88,1.17c1.22,0.35,2.42,0.75,3.83,1.19c-0.72-2.73-1.14-5.18-0.98-7.71c0.65,2.34,1.24,4.69,1.7,7.06
		c0.12,0.59,0.15,0.99,0.87,1.19c1.23,0.33,2.44,0.76,3.99,1.26c-0.88-2.36-0.95-4.45-1.06-6.55c0.7,1.86,1.56,3.68,1.67,5.67
		c0.03,0.66,0.06,1.18,0.88,1.4c1.22,0.33,2.42,0.72,3.84,1.15c-0.73-2.44-0.89-4.64-1.05-6.86c0.79,1.98,1.66,3.92,1.77,6.05
		c0.03,0.65,0.08,1.19,0.91,1.41c1.2,0.33,2.38,0.73,3.61,1.12c-0.37-2.5-0.69-4.75-1.03-6.98c0.94,1.97,1.77,3.94,1.98,6.05
		c0.06,0.59-0.11,1.32,0.77,1.51c1.28,0.29,2.45,1.02,3.8,1.05c-0.37-2.4-0.7-4.66-1.04-6.93c0.91,2.01,1.92,3.97,1.97,6.16
		c0.02,0.98,0.43,1.42,1.41,1.72c4.43,1.37,8.8,2.91,13.25,4.21C390.42,268.89,401.89,264.61,407.41,255.47z"/>
	<path class="st3" d="M387.46,254.59c7.35-1.75,11.43-8.57,9.39-15.69c-1.95-6.81-9.31-11.06-16.31-9.41
		c-7.06,1.68-11.2,8.72-9.2,15.69C373.28,251.91,380.65,256.21,387.46,254.59z M391.7,235.39c2.22,2.45,3.22,5.21,2,8.44
		c0.06-5.72-2.93-9.26-8.7-10.99C387.93,232.29,390,233.49,391.7,235.39z M387.41,250.98c-2.24,1.79-4.69,1.68-7.12,0.73
		c-3.28-1.27-5.49-3.45-5.88-7.09C377.08,249.82,381.27,252.17,387.41,250.98z"/>
	<path class="st3" d="M295.64,144.05c24.58,19.79,49.16,39.57,73.75,59.35c3.21,2.58,6.4,5.18,9.63,7.73
		c1.25,0.99,2.24,0.68,3.35-0.44c1.29-1.31,0.08-1.68-0.7-2.31c-12.24-9.94-24.47-19.9-36.71-29.84
		c-15.83-12.84-31.66-25.68-47.49-38.52c-0.43-0.35-0.89-0.67-1.35-1.01c-0.22,0.22-0.38,0.37-0.54,0.5
		C293.65,141.1,293.65,142.45,295.64,144.05z"/>
	<path class="st3" d="M288.44,167.55c1.7,1.43,3.56,2.07,6.07,1.3c-0.48-0.39-0.76-0.62-1.02-0.83
		c-18.72-15.44-37.56-30.74-56.11-46.36c-12.92-10.87-26.71-20.93-37.58-33.69c-1.18,2.43-0.83,4.18,1.49,6.12
		C230.33,118.58,259.39,143.05,288.44,167.55z"/>
	<path class="st3" d="M423.42,251.95l-0.01-0.01c-3.53-2.14-7.06-4.27-10.66-6.47c-1.31,8.67-2.36,10.51-10.9,18.96
		c3.58,1.6,7.16,3.15,10.68,4.79c2.08,0.96,3.9,0.9,5.52-0.73c0.03-0.04,0.04-0.07,0.07-0.11c1.99-3.53,3.97-7.08,6.01-10.57
		C425.37,255.67,425.42,253.73,423.42,251.95z"/>
	<path class="st3" d="M166.66,173.42c29.87,8.4,59.34,17.93,88.95,27.12c5.72,1.77,11.42,3.6,17.32,5.46
		c-0.68-2.34-2.15-3.56-4.33-4.21c-36.33-10.97-72.66-21.96-108.97-32.94c-3.2-0.97-4.52-0.49-6.63,2.4
		C157.8,171.33,162.26,172.18,166.66,173.42z"/>
	<path class="st4" d="M107.74,281.06c0,0.52-0.13,0.7-0.6,0.85c-6.58,2.04-13.16,4.12-19.73,6.15c-1.2,0.37-2.33-0.24-2.55-1.42
		c-0.18-1.03-0.1-2.11-0.13-3.16c-0.01-0.48,0.32-0.46,0.66-0.47c0.69,0,1.38,0.05,2.08-0.02c0.9-0.09,1.41-0.66,1.42-1.57
		c0.01-0.93-0.52-1.43-1.41-1.57c-0.14-0.02-0.28-0.01-0.42-0.01c-2.34-0.1-2.34-0.1-2.34-2.56c0-2.03,0-2.03,2.01-2.03h8.15
		c1.75,0,2.54-0.51,2.5-1.64c-0.02-1.11-0.78-1.57-2.58-1.57c-2.89,0-5.8-0.05-8.69,0.01c-1.01,0.02-1.44-0.15-1.42-1.31
		c0.08-2.91,0.02-2.91,2.98-2.91h4.57c1.07,0.01,1.85-0.43,1.85-1.57c0.01-1.13-0.7-1.59-1.81-1.59c-2.16,0.02-4.32-0.03-6.49,0.03
		c-0.88,0.02-1.11-0.28-1.06-1.11c0.06-1.11,0.05-2.21-0.01-3.32c-0.03-0.74,0.23-0.96,0.96-0.91c0.77,0.06,1.56,0.05,2.34-0.01
		c0.9-0.06,1.48-0.57,1.49-1.49c0.02-0.97-0.51-1.55-1.49-1.66c-0.09-0.01-0.18,0-0.28-0.01c-0.98-0.13-2.56,0.45-2.83-0.27
		c-0.46-1.27-0.17-2.81-0.15-4.23c0.01-0.66,0.59-0.44,0.96-0.45c2.94-0.01,5.89-0.02,8.83,0c1.1,0.01,1.95-0.24,2.03-1.51
		c0.08-1.08-0.61-1.64-2.04-1.64c-2.8-0.01-5.62-0.05-8.42,0.01c-1.03,0.02-1.52-0.15-1.41-1.33c0.13-1.31-0.43-3.1,0.24-3.86
		c0.77-0.89,2.58-0.21,3.94-0.29c0.42-0.03,0.83,0,1.25-0.01c1.04-0.02,1.68-0.53,1.71-1.58c0.02-1.07-0.69-1.58-1.68-1.61
		c-1.48-0.05-2.95-0.05-4.42,0c-0.77,0.03-0.99-0.18-1.04-0.99c-0.22-3.91,0.88-4.8,4.55-3.54c5.78,1.96,11.63,3.7,17.47,5.5
		c0.71,0.22,1,0.46,1,1.29c-0.05,6.54-0.02,13.08-0.02,19.61h0.01C107.72,267.89,107.71,274.47,107.74,281.06z"/>
	<path class="st4" d="M158.77,408.33c-0.77,1.88-1.78,3.63-2.92,5.3c-0.44,0.65-0.84,0.76-1.59,0.48
		c-5.03-1.84-7.97-5.58-9.61-10.49c-1.91-5.74-1.94-11.67-1.5-17.62c0.91-12.41,4.13-24.35,7.38-36.29
		c0.97-3.55,1.83-7.11,2.46-10.75c0.61-3.59,0.91-7.21,1.16-10.85c2.2,6.34,3.93,12.81,5.34,19.35c2.71,12.56,4.25,25.23,3.64,38.09
		C162.77,393.35,161.79,401.04,158.77,408.33z"/>
	<path class="st4" d="M194.45,240.92c-5.25-4.88-11.58-7.77-18.4-9.58c-17.73-4.7-35.43-3.97-53.1,0.53
		c-0.92,0.23-0.96,0.73-0.96,1.46c0.02,6.92,0.01,13.83,0.01,20.73c0,1.53-0.53,2.24-1.66,2.17c-1.38-0.07-1.52-1.06-1.52-2.16
		c0.01-4.06,0-8.11,0-12.17c0-2.57,0.01-5.15,0-7.74c-0.01-0.44,0.23-1.04-0.74-0.81c-4.14,0.99-7.15,4.51-7.16,8.71
		c-0.03,12.71-0.03,25.43,0,38.13c0,3.06,2.14,5.28,5.2,5.58c2.34,0.22,4.67,0.53,6.95,1.1c13.11,3.22,22.7,10.68,28,23.3
		c3.12,7.46,5.83,15.08,8.07,22.85c5.42,18.93,8.6,38.14,6.81,57.92c-0.77,8.44-2.44,16.65-7.18,24.12
		c2.05,0.21,3.94,0.21,5.81,0.02c4.83-0.45,9.11-2.13,12.45-5.8c3.16-3.47,4.76-7.7,5.74-12.2c1.89-8.65,1.66-17.4,1.04-26.13
		c-1.16-16.18-3.76-32.17-6.17-48.19c-1.64-10.83,0.08-20.96,5.59-30.44c2.83-4.88,6.71-8.82,10.82-12.63
		C205.8,268.81,205.93,251.61,194.45,240.92z M122,268.13c-0.03,0.99-0.48,1.7-1.57,1.72c-1.05,0.01-1.59-0.62-1.6-1.66
		c-0.02-1.88-0.02-3.76,0.01-5.64c0.01-0.97,0.58-1.59,1.53-1.6c1.03,0,1.59,0.65,1.63,1.67c0.02,0.91,0,1.83,0,2.76
		C122,266.29,122.02,267.21,122,268.13z M190.97,249.22c-0.67,0.81-1.63,0.69-2.63-0.29c-4.94-4.82-11.07-7.29-17.58-9.03
		c-1.03-0.27-2.05-0.48-3.08-0.74c-0.83-0.2-1.26-0.71-1.27-1.43c0.02-1.16,0.82-1.9,1.86-1.67c8.22,1.8,16.02,4.51,22.27,10.52
		C191.36,247.38,191.81,248.22,190.97,249.22z"/>
	<path class="st5" d="M194.45,240.92c-5.25-4.88-11.58-7.77-18.4-9.58c-17.73-4.7-35.43-3.97-53.1,0.53
		c-0.92,0.23-0.96,0.73-0.96,1.46c0.02,6.92,0.01,13.83,0.01,20.73c0,1.53-0.53,2.24-1.66,2.17c-1.38-0.07-1.52-1.06-1.52-2.16
		c0.01-4.06,0-8.11,0-12.17c0-2.57,0.01-5.15,0-7.74c-0.01-0.44,0.23-1.04-0.74-0.81c-4.14,0.99-7.15,4.51-7.16,8.71
		c-0.03,12.71-0.03,25.43,0,38.13c0,3.06,2.14,5.28,5.2,5.58c2.34,0.22,4.67,0.53,6.95,1.1c13.11,3.22,22.7,10.68,28,23.3
		c3.12,7.46,5.83,15.08,8.07,22.85c5.42,18.93,8.6,38.14,6.81,57.92c-0.77,8.44-2.44,16.65-7.18,24.12
		c2.05,0.21,3.94,0.21,5.81,0.02c4.83-0.45,9.11-2.13,12.45-5.8c3.16-3.47,4.76-7.7,5.74-12.2c1.89-8.65,1.66-17.4,1.04-26.13
		c-1.16-16.18-3.76-32.17-6.17-48.19c-1.64-10.83,0.08-20.96,5.59-30.44c2.83-4.88,6.71-8.82,10.82-12.63
		C205.8,268.81,205.93,251.61,194.45,240.92z M122,268.13c-0.03,0.99-0.48,1.7-1.57,1.72c-1.05,0.01-1.59-0.62-1.6-1.66
		c-0.02-1.88-0.02-3.76,0.01-5.64c0.01-0.97,0.58-1.59,1.53-1.6c1.03,0,1.59,0.65,1.63,1.67c0.02,0.91,0,1.83,0,2.76
		C122,266.29,122.02,267.21,122,268.13z M190.97,249.22c-0.67,0.81-1.63,0.69-2.63-0.29c-4.94-4.82-11.07-7.29-17.58-9.03
		c-1.03-0.27-2.05-0.48-3.08-0.74c-0.83-0.2-1.26-0.71-1.27-1.43c0.02-1.16,0.82-1.9,1.86-1.67c8.22,1.8,16.02,4.51,22.27,10.52
		C191.36,247.38,191.81,248.22,190.97,249.22z"/>
	<path class="st5" d="M163.14,385.55c-0.37,7.79-1.35,15.49-4.37,22.77c-0.77,1.88-1.78,3.63-2.92,5.3
		c-0.44,0.65-0.84,0.76-1.59,0.48c-5.03-1.84-7.97-5.58-9.61-10.49c-1.91-5.74-1.94-11.67-1.5-17.62
		c0.91-12.41,4.13-24.35,7.38-36.29c0.97-3.55,1.83-7.11,2.46-10.75c0.61-3.59,0.91-7.21,1.16-10.85c2.2,6.34,3.93,12.81,5.34,19.35
		C162.2,360.02,163.75,372.7,163.14,385.55z"/>
	<path class="st5" d="M107.74,281.06c0,0.52-0.13,0.7-0.6,0.85c-6.58,2.04-13.16,4.12-19.73,6.15c-1.2,0.37-2.33-0.24-2.55-1.42
		c-0.18-1.03-0.1-2.11-0.13-3.16c-0.01-0.48,0.32-0.46,0.66-0.47c0.69,0,1.38,0.05,2.08-0.02c0.9-0.09,1.41-0.66,1.42-1.57
		c0.01-0.93-0.52-1.43-1.41-1.57c-0.14-0.02-0.28-0.01-0.42-0.01c-2.34-0.1-2.34-0.1-2.34-2.56c0-2.03,0-2.03,2.01-2.03h8.15
		c1.75,0,2.54-0.51,2.5-1.64c-0.02-1.11-0.78-1.57-2.58-1.57c-2.89,0-5.8-0.05-8.69,0.01c-1.01,0.02-1.44-0.15-1.42-1.31
		c0.08-2.91,0.02-2.91,2.98-2.91h4.57c1.07,0.01,1.85-0.43,1.85-1.57c0.01-1.13-0.7-1.59-1.81-1.59c-2.16,0.02-4.32-0.03-6.49,0.03
		c-0.88,0.02-1.11-0.28-1.06-1.11c0.06-1.11,0.05-2.21-0.01-3.32c-0.03-0.74,0.23-0.96,0.96-0.91c0.77,0.06,1.56,0.05,2.34-0.01
		c0.9-0.06,1.48-0.57,1.49-1.49c0.02-0.97-0.51-1.55-1.49-1.66c-0.09-0.01-0.18,0-0.28-0.01c-0.98-0.13-2.56,0.45-2.83-0.27
		c-0.46-1.27-0.17-2.81-0.15-4.23c0.01-0.66,0.59-0.44,0.96-0.45c2.94-0.01,5.89-0.02,8.83,0c1.1,0.01,1.95-0.24,2.03-1.51
		c0.08-1.08-0.61-1.64-2.04-1.64c-2.8-0.01-5.62-0.05-8.42,0.01c-1.03,0.02-1.52-0.15-1.41-1.33c0.13-1.31-0.43-3.1,0.24-3.86
		c0.77-0.89,2.58-0.21,3.94-0.29c0.42-0.03,0.83,0,1.25-0.01c1.04-0.02,1.68-0.53,1.71-1.58c0.02-1.07-0.69-1.58-1.68-1.61
		c-1.48-0.05-2.95-0.05-4.42,0c-0.77,0.03-0.99-0.18-1.04-0.99c-0.22-3.91,0.88-4.8,4.55-3.54c5.78,1.96,11.63,3.7,17.47,5.5
		c0.71,0.22,1,0.46,1,1.29c-0.05,6.54-0.02,13.08-0.02,19.61h0.01C107.72,267.89,107.71,274.47,107.74,281.06z"/>
	<path class="st3" d="M335.56,399.93c-0.72,1.63-1.43,3.25-2.15,4.88c-12.43,2.18-27.48,3.87-44.58,3.87s-32.14-1.7-44.58-3.87
		c-0.72-1.63-1.43-3.25-2.15-4.88c13.05,2.27,28.82,4.04,46.73,4.04S322.51,402.2,335.56,399.93z"/>
	<path class="st3" d="M323.88,347.06c12.1-3.19,24.56-4.89,37.06-5.06c-0.13,0.62-0.27,1.22-0.43,1.79
		c-0.8,2.86-1.98,5.16-3.01,6.81c-0.23,0.36-0.44,0.69-0.64,0.99c-6.52,14.79-13.03,29.58-19.55,44.37l-2.36,0.41
		c-15.18,2.64-30.69,3.98-46.11,3.98c-15.41,0-30.92-1.34-46.11-3.98l-2.36-0.41c-6.52-14.79-13.03-29.59-19.55-44.37
		c-0.2-0.3-0.42-0.63-0.65-1c-1.02-1.65-2.21-3.95-3.01-6.8c-0.08-0.28-0.15-0.56-0.22-0.85c10.36-0.12,20.69,0.99,30.76,3.31
		c13.66,3.15,26.69,8.47,38.72,15.81l0.36,0.22l0.37-0.21C298.69,355.51,311.04,350.45,323.88,347.06z"/>
	<g>
		<defs>
			<path id="SVGID_1_" d="M361.2,340.46c0,0.04-0.01,0.07-0.01,0.11c-12.71,0.14-25.38,1.86-37.68,5.11
				c-12.82,3.39-25.17,8.41-36.7,14.95c-12.06-7.31-25.11-12.62-38.79-15.77c-10.27-2.37-20.82-3.49-31.39-3.34
				c-0.06-0.35-0.12-0.7-0.17-1.05c0,0-0.86-6.29,1.62-13.05c2.83-7.73,26.38-23.27,42.2-36.25c17.37-14.26,18.78-21.1,27.67-21.3
				c8.93-0.2,10.81,6.65,29.44,21.3c18.97,14.92,39.4,28.59,42.2,36.25C362.06,334.17,361.2,340.46,361.2,340.46z"/>
		</defs>
		<clipPath id="SVGID_00000041291705320360668200000001795056699237502894_">
			<use xlink:href="#SVGID_1_"  style="overflow:visible;"/>
		</clipPath>
		<g style="clip-path:url(#SVGID_00000041291705320360668200000001795056699237502894_);">
			<g>
				<circle class="st7" cx="343.64" cy="360.62" r="2.14"/>
			</g>
			<g>
				<circle class="st7" cx="336.45" cy="360.62" r="2.14"/>
			</g>
			<g>
				<circle class="st7" cx="329.26" cy="360.62" r="2.14"/>
			</g>
			<g>
				<circle class="st7" cx="322.07" cy="360.62" r="2.14"/>
			</g>
			<g>
				<circle class="st7" cx="314.87" cy="360.62" r="2.14"/>
			</g>
			<g>
				<circle class="st7" cx="307.68" cy="360.62" r="2.14"/>
			</g>
			<g>
				<circle class="st7" cx="300.49" cy="360.62" r="2.14"/>
			</g>
			<g>
				<circle class="st7" cx="293.3" cy="360.62" r="2.14"/>
			</g>
			<g>
				<circle class="st7" cx="286.11" cy="360.62" r="2.14"/>
			</g>
			<g>
				<circle class="st7" cx="278.92" cy="360.62" r="2.14"/>
			</g>
			<g>
				<circle class="st7" cx="271.72" cy="360.62" r="2.14"/>
			</g>
			<g>
				<circle class="st7" cx="264.53" cy="360.62" r="2.14"/>
			</g>
			<g>
				<circle class="st7" cx="257.34" cy="360.62" r="2.14"/>
			</g>
			<g>
				<circle class="st7" cx="250.15" cy="360.62" r="2.14"/>
			</g>
			<g>
				<circle class="st7" cx="242.96" cy="360.62" r="2.14"/>
			</g>
			<g>
				<circle class="st7" cx="235.77" cy="360.62" r="2.14"/>
			</g>
		</g>
		<g style="clip-path:url(#SVGID_00000041291705320360668200000001795056699237502894_);">
			<g>
				<circle class="st7" cx="343.64" cy="352.93" r="2.14"/>
			</g>
			<g>
				<circle class="st7" cx="336.45" cy="352.93" r="2.14"/>
			</g>
			<g>
				<circle class="st7" cx="329.26" cy="352.93" r="2.14"/>
			</g>
			<g>
				<circle class="st7" cx="322.07" cy="352.93" r="2.14"/>
			</g>
			<g>
				<circle class="st7" cx="314.87" cy="352.93" r="2.14"/>
			</g>
			<g>
				<circle class="st7" cx="307.68" cy="352.93" r="2.14"/>
			</g>
			<g>
				<circle class="st7" cx="300.49" cy="352.93" r="2.14"/>
			</g>
			<g>
				<circle class="st7" cx="293.3" cy="352.93" r="2.14"/>
			</g>
			<g>
				<circle class="st7" cx="286.11" cy="352.93" r="2.14"/>
			</g>
			<g>
				<circle class="st7" cx="278.92" cy="352.93" r="2.14"/>
			</g>
			<g>
				<circle class="st7" cx="271.72" cy="352.93" r="2.14"/>
			</g>
			<g>
				<circle class="st7" cx="264.53" cy="352.93" r="2.14"/>
			</g>
			<g>
				<circle class="st7" cx="257.34" cy="352.93" r="2.14"/>
			</g>
			<g>
				<circle class="st7" cx="250.15" cy="352.93" r="2.14"/>
			</g>
			<g>
				<circle class="st7" cx="242.96" cy="352.93" r="2.14"/>
			</g>
			<g>
				<circle class="st7" cx="235.77" cy="352.93" r="2.14"/>
			</g>
		</g>
		<g style="clip-path:url(#SVGID_00000041291705320360668200000001795056699237502894_);">
			<g>
				<circle class="st7" cx="343.64" cy="345.85" r="2.14"/>
			</g>
			<g>
				<circle class="st7" cx="336.45" cy="345.85" r="2.14"/>
			</g>
			<g>
				<circle class="st7" cx="329.26" cy="345.85" r="2.14"/>
			</g>
			<g>
				<circle class="st7" cx="322.07" cy="345.85" r="2.14"/>
			</g>
			<g>
				<circle class="st7" cx="314.87" cy="345.85" r="2.14"/>
			</g>
			<g>
				<circle class="st7" cx="307.68" cy="345.85" r="2.14"/>
			</g>
			<g>
				<circle class="st7" cx="300.49" cy="345.85" r="2.14"/>
			</g>
			<g>
				<circle class="st7" cx="293.3" cy="345.85" r="2.14"/>
			</g>
			<g>
				<circle class="st7" cx="286.11" cy="345.85" r="2.14"/>
			</g>
			<g>
				<circle class="st7" cx="278.92" cy="345.85" r="2.14"/>
			</g>
			<g>
				<circle class="st7" cx="271.72" cy="345.85" r="2.14"/>
			</g>
			<g>
				<circle class="st7" cx="264.53" cy="345.85" r="2.14"/>
			</g>
			<g>
				<circle class="st7" cx="257.34" cy="345.85" r="2.14"/>
			</g>
			<g>
				<circle class="st7" cx="250.15" cy="345.85" r="2.14"/>
			</g>
			<g>
				<circle class="st7" cx="242.96" cy="345.85" r="2.14"/>
			</g>
			<g>
				<circle class="st7" cx="235.77" cy="345.85" r="2.14"/>
			</g>
		</g>
		<g style="clip-path:url(#SVGID_00000041291705320360668200000001795056699237502894_);">
			<g>
				<circle class="st7" cx="343.64" cy="338.16" r="2.14"/>
			</g>
			<g>
				<circle class="st7" cx="350.03" cy="338.16" r="2.14"/>
			</g>
			<g>
				<circle class="st7" cx="356.62" cy="338.16" r="2.14"/>
			</g>
			<g>
				<circle class="st7" cx="336.45" cy="338.16" r="2.14"/>
			</g>
			<g>
				<circle class="st7" cx="329.26" cy="338.16" r="2.14"/>
			</g>
			<g>
				<circle class="st7" cx="322.07" cy="338.16" r="2.14"/>
			</g>
			<g>
				<circle class="st7" cx="314.87" cy="338.16" r="2.14"/>
			</g>
			<g>
				<circle class="st7" cx="307.68" cy="338.16" r="2.14"/>
			</g>
			<g>
				<circle class="st7" cx="300.49" cy="338.16" r="2.14"/>
			</g>
			<g>
				<circle class="st7" cx="293.3" cy="338.16" r="2.14"/>
			</g>
			<g>
				<circle class="st7" cx="286.11" cy="338.16" r="2.14"/>
			</g>
			<g>
				<circle class="st7" cx="278.92" cy="338.16" r="2.14"/>
			</g>
			<g>
				<circle class="st7" cx="271.72" cy="338.16" r="2.14"/>
			</g>
			<g>
				<circle class="st7" cx="264.53" cy="338.16" r="2.14"/>
			</g>
			<g>
				<circle class="st7" cx="257.34" cy="338.16" r="2.14"/>
			</g>
			<g>
				<circle class="st7" cx="250.15" cy="338.16" r="2.14"/>
			</g>
			<g>
				<circle class="st7" cx="242.96" cy="338.16" r="2.14"/>
			</g>
			<g>
				<circle class="st7" cx="235.77" cy="338.16" r="2.14"/>
			</g>
			<g>
				<circle class="st7" cx="228.83" cy="338.16" r="2.14"/>
			</g>
			<g>
				<circle class="st7" cx="221.29" cy="338.16" r="2.14"/>
			</g>
		</g>
		<g style="clip-path:url(#SVGID_00000041291705320360668200000001795056699237502894_);">
			<g>
				<circle class="st7" cx="343.64" cy="330.47" r="2.14"/>
			</g>
			<g>
				<circle class="st7" cx="350.03" cy="330.47" r="2.14"/>
			</g>
			<g>
				<circle class="st7" cx="356.25" cy="330.47" r="2.14"/>
			</g>
			<g>
				<circle class="st7" cx="336.45" cy="330.47" r="2.14"/>
			</g>
			<g>
				<circle class="st7" cx="329.26" cy="330.47" r="2.14"/>
			</g>
			<g>
				<circle class="st7" cx="322.07" cy="330.47" r="2.14"/>
			</g>
			<g>
				<circle class="st7" cx="314.87" cy="330.47" r="2.14"/>
			</g>
			<g>
				<circle class="st7" cx="307.68" cy="330.47" r="2.14"/>
			</g>
			<g>
				<circle class="st7" cx="300.49" cy="330.47" r="2.14"/>
			</g>
			<g>
				<circle class="st7" cx="293.3" cy="330.47" r="2.14"/>
			</g>
			<g>
				<circle class="st7" cx="286.11" cy="330.47" r="2.14"/>
			</g>
			<g>
				<circle class="st7" cx="278.92" cy="330.47" r="2.14"/>
			</g>
			<g>
				<circle class="st7" cx="271.72" cy="330.47" r="2.14"/>
			</g>
			<g>
				<circle class="st7" cx="264.53" cy="330.47" r="2.14"/>
			</g>
			<g>
				<circle class="st7" cx="257.34" cy="330.47" r="2.14"/>
			</g>
			<g>
				<circle class="st7" cx="250.15" cy="330.47" r="2.14"/>
			</g>
			<g>
				<circle class="st7" cx="242.96" cy="330.47" r="2.14"/>
			</g>
			<g>
				<circle class="st7" cx="235.77" cy="330.47" r="2.14"/>
			</g>
			<g>
				<circle class="st7" cx="229.37" cy="330.47" r="2.14"/>
			</g>
			<g>
				<circle class="st7" cx="222.18" cy="330.47" r="2.14"/>
			</g>
		</g>
		<g style="clip-path:url(#SVGID_00000041291705320360668200000001795056699237502894_);">
			<g>
				<circle class="st7" cx="343.64" cy="322.78" r="2.14"/>
			</g>
			<g>
				<circle class="st7" cx="351.35" cy="322.78" r="2.14"/>
			</g>
			<g>
				<circle class="st7" cx="336.45" cy="322.78" r="2.14"/>
			</g>
			<g>
				<circle class="st7" cx="329.26" cy="322.78" r="2.14"/>
			</g>
			<g>
				<circle class="st7" cx="322.07" cy="322.78" r="2.14"/>
			</g>
			<g>
				<circle class="st7" cx="314.87" cy="322.78" r="2.14"/>
			</g>
			<g>
				<circle class="st7" cx="307.68" cy="322.78" r="2.14"/>
			</g>
			<g>
				<circle class="st7" cx="300.49" cy="322.78" r="2.14"/>
			</g>
			<g>
				<circle class="st7" cx="293.3" cy="322.78" r="2.14"/>
			</g>
			<g>
				<circle class="st7" cx="286.11" cy="322.78" r="2.14"/>
			</g>
			<g>
				<circle class="st7" cx="278.92" cy="322.78" r="2.14"/>
			</g>
			<g>
				<circle class="st7" cx="271.72" cy="322.78" r="2.14"/>
			</g>
			<g>
				<circle class="st7" cx="264.53" cy="322.78" r="2.14"/>
			</g>
			<g>
				<circle class="st7" cx="257.34" cy="322.78" r="2.14"/>
			</g>
			<g>
				<circle class="st7" cx="250.15" cy="322.78" r="2.14"/>
			</g>
			<g>
				<circle class="st7" cx="242.96" cy="322.78" r="2.14"/>
			</g>
			<g>
				<circle class="st7" cx="235.77" cy="322.78" r="2.14"/>
			</g>
			<g>
				<circle class="st7" cx="227.23" cy="322.78" r="2.14"/>
			</g>
		</g>
		<g style="clip-path:url(#SVGID_00000041291705320360668200000001795056699237502894_);">
			<g>
				<circle class="st7" cx="343.64" cy="315.09" r="2.14"/>
			</g>
			<g>
				<circle class="st7" cx="336.45" cy="315.09" r="2.14"/>
			</g>
			<g>
				<circle class="st7" cx="329.26" cy="315.09" r="2.14"/>
			</g>
			<g>
				<circle class="st7" cx="322.07" cy="315.09" r="2.14"/>
			</g>
			<g>
				<circle class="st7" cx="314.87" cy="315.09" r="2.14"/>
			</g>
			<g>
				<circle class="st7" cx="307.68" cy="315.09" r="2.14"/>
			</g>
			<g>
				<circle class="st7" cx="300.49" cy="315.09" r="2.14"/>
			</g>
			<g>
				<circle class="st7" cx="293.3" cy="315.09" r="2.14"/>
			</g>
			<g>
				<circle class="st7" cx="286.11" cy="315.09" r="2.14"/>
			</g>
			<g>
				<circle class="st7" cx="278.92" cy="315.09" r="2.14"/>
			</g>
			<g>
				<circle class="st7" cx="271.72" cy="315.09" r="2.14"/>
			</g>
			<g>
				<circle class="st7" cx="264.53" cy="315.09" r="2.14"/>
			</g>
			<g>
				<circle class="st7" cx="257.34" cy="315.09" r="2.14"/>
			</g>
			<g>
				<circle class="st7" cx="250.15" cy="315.09" r="2.14"/>
			</g>
			<g>
				<circle class="st7" cx="242.96" cy="315.09" r="2.14"/>
			</g>
			<g>
				<circle class="st7" cx="235.77" cy="315.09" r="2.14"/>
			</g>
		</g>
		<g style="clip-path:url(#SVGID_00000041291705320360668200000001795056699237502894_);">
			<g>
				<circle class="st7" cx="343.64" cy="307.4" r="2.14"/>
			</g>
			<g>
				<circle class="st7" cx="336.45" cy="307.4" r="2.14"/>
			</g>
			<g>
				<circle class="st7" cx="329.26" cy="307.4" r="2.14"/>
			</g>
			<g>
				<circle class="st7" cx="322.07" cy="307.4" r="2.14"/>
			</g>
			<g>
				<circle class="st7" cx="314.87" cy="307.4" r="2.14"/>
			</g>
			<g>
				<circle class="st7" cx="307.68" cy="307.4" r="2.14"/>
			</g>
			<g>
				<circle class="st7" cx="300.49" cy="307.4" r="2.14"/>
			</g>
			<g>
				<circle class="st7" cx="293.3" cy="307.4" r="2.14"/>
			</g>
			<g>
				<circle class="st7" cx="286.11" cy="307.4" r="2.14"/>
			</g>
			<g>
				<circle class="st7" cx="278.92" cy="307.4" r="2.14"/>
			</g>
			<g>
				<circle class="st7" cx="271.72" cy="307.4" r="2.14"/>
			</g>
			<g>
				<circle class="st7" cx="264.53" cy="307.4" r="2.14"/>
			</g>
			<g>
				<circle class="st7" cx="257.34" cy="307.4" r="2.14"/>
			</g>
			<g>
				<circle class="st7" cx="250.15" cy="307.4" r="2.14"/>
			</g>
			<g>
				<circle class="st7" cx="242.96" cy="307.4" r="2.14"/>
			</g>
			<g>
				<circle class="st7" cx="235.77" cy="307.4" r="2.14"/>
			</g>
		</g>
		<g style="clip-path:url(#SVGID_00000041291705320360668200000001795056699237502894_);">
			<g>
				<circle class="st7" cx="343.64" cy="299.71" r="2.14"/>
			</g>
			<g>
				<circle class="st7" cx="336.45" cy="299.71" r="2.14"/>
			</g>
			<g>
				<circle class="st7" cx="329.26" cy="299.71" r="2.14"/>
			</g>
			<g>
				<circle class="st7" cx="322.07" cy="299.71" r="2.14"/>
			</g>
			<g>
				<circle class="st7" cx="314.87" cy="299.71" r="2.14"/>
			</g>
			<g>
				<circle class="st7" cx="307.68" cy="299.71" r="2.14"/>
			</g>
			<g>
				<circle class="st7" cx="300.49" cy="299.71" r="2.14"/>
			</g>
			<g>
				<circle class="st7" cx="293.3" cy="299.71" r="2.14"/>
			</g>
			<g>
				<circle class="st7" cx="286.11" cy="299.71" r="2.14"/>
			</g>
			<g>
				<circle class="st7" cx="278.92" cy="299.71" r="2.14"/>
			</g>
			<g>
				<circle class="st7" cx="271.72" cy="299.71" r="2.14"/>
			</g>
			<g>
				<circle class="st7" cx="264.53" cy="299.71" r="2.14"/>
			</g>
			<g>
				<circle class="st7" cx="257.34" cy="299.71" r="2.14"/>
			</g>
			<g>
				<circle class="st7" cx="250.15" cy="299.71" r="2.14"/>
			</g>
			<g>
				<circle class="st7" cx="242.96" cy="299.71" r="2.14"/>
			</g>
			<g>
				<circle class="st7" cx="235.77" cy="299.71" r="2.14"/>
			</g>
		</g>
		<g style="clip-path:url(#SVGID_00000041291705320360668200000001795056699237502894_);">
			<g>
				<circle class="st7" cx="343.64" cy="292.02" r="2.14"/>
			</g>
			<g>
				<circle class="st7" cx="336.45" cy="292.02" r="2.14"/>
			</g>
			<g>
				<circle class="st7" cx="329.26" cy="292.02" r="2.14"/>
			</g>
			<g>
				<circle class="st7" cx="322.07" cy="292.02" r="2.14"/>
			</g>
			<g>
				<circle class="st7" cx="314.87" cy="292.02" r="2.14"/>
			</g>
			<g>
				<circle class="st7" cx="307.68" cy="292.02" r="2.14"/>
			</g>
			<g>
				<circle class="st7" cx="300.49" cy="292.02" r="2.14"/>
			</g>
			<g>
				<circle class="st7" cx="293.3" cy="292.02" r="2.14"/>
			</g>
			<g>
				<circle class="st7" cx="286.11" cy="292.02" r="2.14"/>
			</g>
			<g>
				<circle class="st7" cx="278.92" cy="292.02" r="2.14"/>
			</g>
			<g>
				<circle class="st7" cx="271.72" cy="292.02" r="2.14"/>
			</g>
			<g>
				<circle class="st7" cx="264.53" cy="292.02" r="2.14"/>
			</g>
			<g>
				<circle class="st7" cx="257.34" cy="292.02" r="2.14"/>
			</g>
			<g>
				<circle class="st7" cx="250.15" cy="292.02" r="2.14"/>
			</g>
			<g>
				<circle class="st7" cx="242.96" cy="292.02" r="2.14"/>
			</g>
			<g>
				<circle class="st7" cx="235.77" cy="292.02" r="2.14"/>
			</g>
		</g>
		<g style="clip-path:url(#SVGID_00000041291705320360668200000001795056699237502894_);">
			<g>
				<circle class="st7" cx="343.64" cy="284.33" r="2.14"/>
			</g>
			<g>
				<circle class="st7" cx="336.45" cy="284.33" r="2.14"/>
			</g>
			<g>
				<circle class="st7" cx="329.26" cy="284.33" r="2.14"/>
			</g>
			<g>
				<circle class="st7" cx="322.07" cy="284.33" r="2.14"/>
			</g>
			<g>
				<circle class="st7" cx="314.87" cy="284.33" r="2.14"/>
			</g>
			<g>
				<circle class="st7" cx="307.68" cy="284.33" r="2.14"/>
			</g>
			<g>
				<circle class="st7" cx="300.49" cy="284.33" r="2.14"/>
			</g>
			<g>
				<circle class="st7" cx="293.3" cy="284.33" r="2.14"/>
			</g>
			<g>
				<circle class="st7" cx="286.11" cy="284.33" r="2.14"/>
			</g>
			<g>
				<circle class="st7" cx="278.92" cy="284.33" r="2.14"/>
			</g>
			<g>
				<circle class="st7" cx="271.72" cy="284.33" r="2.14"/>
			</g>
			<g>
				<circle class="st7" cx="264.53" cy="284.33" r="2.14"/>
			</g>
			<g>
				<circle class="st7" cx="257.34" cy="284.33" r="2.14"/>
			</g>
			<g>
				<circle class="st7" cx="250.15" cy="284.33" r="2.14"/>
			</g>
			<g>
				<circle class="st7" cx="242.96" cy="284.33" r="2.14"/>
			</g>
			<g>
				<circle class="st7" cx="235.77" cy="284.33" r="2.14"/>
			</g>
		</g>
		<g style="clip-path:url(#SVGID_00000041291705320360668200000001795056699237502894_);">
			<g>
				<circle class="st7" cx="343.64" cy="276.64" r="2.14"/>
			</g>
			<g>
				<circle class="st7" cx="336.45" cy="276.64" r="2.14"/>
			</g>
			<g>
				<circle class="st7" cx="329.26" cy="276.64" r="2.14"/>
			</g>
			<g>
				<circle class="st7" cx="322.07" cy="276.64" r="2.14"/>
			</g>
			<g>
				<circle class="st7" cx="314.87" cy="276.64" r="2.14"/>
			</g>
			<g>
				<circle class="st7" cx="307.68" cy="276.64" r="2.14"/>
			</g>
			<g>
				<circle class="st7" cx="300.49" cy="276.64" r="2.14"/>
			</g>
			<g>
				<circle class="st7" cx="293.3" cy="276.64" r="2.14"/>
			</g>
			<g>
				<circle class="st7" cx="286.11" cy="276.64" r="2.14"/>
			</g>
			<g>
				<circle class="st7" cx="289.23" cy="271.99" r="2.14"/>
			</g>
			<g>
				<circle class="st7" cx="278.92" cy="276.64" r="2.14"/>
			</g>
			<g>
				<circle class="st7" cx="271.72" cy="276.64" r="2.14"/>
			</g>
			<g>
				<circle class="st7" cx="264.53" cy="276.64" r="2.14"/>
			</g>
			<g>
				<circle class="st7" cx="257.34" cy="276.64" r="2.14"/>
			</g>
			<g>
				<circle class="st7" cx="250.15" cy="276.64" r="2.14"/>
			</g>
			<g>
				<circle class="st7" cx="242.96" cy="276.64" r="2.14"/>
			</g>
			<g>
				<circle class="st7" cx="235.77" cy="276.64" r="2.14"/>
			</g>
		</g>
	</g>
</g>
</svg>
