<?xml version="1.0" encoding="utf-8"?>
<!-- Generator: Adobe Illustrator 26.5.0, SVG Export Plug-In . SVG Version: 6.00 Build 0)  -->
<svg version="1.1" id="Layer_1" xmlns="http://www.w3.org/2000/svg" xmlns:xlink="http://www.w3.org/1999/xlink" x="0px" y="0px"
	 viewBox="0 0 500 500" style="enable-background:new 0 0 500 500;" xml:space="preserve">
<style type="text/css">
	.st0{fill:#D09230;}
	.st1{fill:none;stroke:#D09230;stroke-width:6;stroke-miterlimit:10;}
	.st2{fill:#1E6F2F;}
	.st3{fill:#FFFFFF;}
</style>
<circle class="st0" cx="250" cy="250" r="217.08"/>
<circle class="st1" cx="250" cy="250" r="243.2"/>
<circle class="st2" cx="250" cy="250" r="217.08"/>
<g>
	<path class="st2" d="M250,496.21c-65.76,0-127.59-25.61-174.09-72.11C29.41,377.59,3.8,315.76,3.8,250S29.41,122.41,75.91,75.91
		C122.41,29.41,184.24,3.8,250,3.8s127.59,25.61,174.09,72.11c46.5,46.5,72.11,108.33,72.11,174.09s-25.61,127.59-72.11,174.09
		C377.59,470.6,315.76,496.21,250,496.21z M250,9.8C117.55,9.8,9.8,117.55,9.8,250S117.55,490.21,250,490.21
		S490.21,382.45,490.21,250S382.45,9.8,250,9.8z"/>
</g>
<g>
	<path class="st3" d="M354.6,169.54c0-2.97-0.81-5.42-2.59-7.77c-7.39-9.77-14.62-19.65-22.12-29.33c-2.27-2.93-3.34-5.74-2.38-9.36
		c1.13-4.24-0.5-7.61-3.5-10.56c-4-3.93-7.95-7.92-11.91-11.9c-2.22-2.22-2.22-2.27-0.07-4.43c3.96-3.98,7.94-7.93,11.9-11.91
		c1.58-1.58,2.91-3.34,3.57-5.51c1.45-4.7-2.11-9.69-7.02-10.01c-3.18-0.2-5.76,0.75-8.01,3.07c-4.14,4.28-8.45,8.39-12.59,12.67
		c-1.45,1.51-2.48,1.54-3.96,0.01c-4.02-4.15-8.27-8.09-12.2-12.33c-2.72-2.93-5.89-3.72-9.65-3.39
		c-11.1,0.98-22.06,2.99-33.09,4.51c-12.55,1.72-25.06,3.7-37.62,5.28c-4.48,0.56-8.12,2.18-11.4,5.47
		c-29.56,29.74-59.21,59.38-88.92,88.95c-5.13,5.11-9.23,10.61-10.09,18.02v9.19c0.56,2.63,0.85,5.27,2.1,7.77
		c1.97,3.95,4.69,7.29,7.76,10.36c24.64,24.67,49.3,49.32,73.95,73.97c1.99,1.99,3.92,4.05,6.24,5.63c0.22,0.15,0.42,0.31,0.6,0.46
		c0,0,0.01,0,0.01,0.01c0.87,0.76,1.33,1.66,1.53,2.72c0.1,0.48,0.14,1.01,0.14,1.57c-0.01,5.31,1.43,10.28,4.33,14.72
		c4.89,7.49,11.56,12.29,20.75,12.95h119.45c3.91-0.36,7.69-1.15,11.06-3.34c8.81-5.72,13.74-13.51,13.73-24.33
		C354.51,258.32,354.54,213.93,354.6,169.54z M112.32,205.13c-2.59-2.59-3.98-5.65-4.07-9.06c0.05-4.23,1.79-7.37,4.56-10.14
		c20.36-20.3,40.67-40.64,60.99-60.97c9.63-9.63,19.26-19.24,28.86-28.88c0.95-0.95,1.92-1.42,3.29-1.62
		c21.96-3.1,43.91-6.26,65.85-9.45c1.23-0.18,2.05,0.07,2.92,0.96c3.68,3.77,7.41,7.5,11.18,11.18c0.92,0.9,1.02,1.41,0.03,2.35
		c-2.89,2.76-5.72,5.59-8.48,8.48c-0.91,0.96-1.49,1.08-2.41,0.04c-1.3-1.47-2.72-2.82-4.13-4.16c-3.26-3.07-8-3.06-10.98-0.01
		c-2.91,2.98-2.97,7.61,0.14,10.77c7.16,7.28,14.37,14.5,21.66,21.65c3.14,3.07,7.82,2.91,10.76-0.08c2.91-2.95,2.91-7.61-0.05-10.8
		c-1.33-1.43-2.71-2.82-4.15-4.15c-0.91-0.84-1.18-1.39-0.11-2.41c2.96-2.8,5.85-5.7,8.66-8.65c0.93-0.98,1.38-0.73,2.18,0.08
		c3.75,3.83,7.53,7.63,11.37,11.37c0.93,0.91,0.95,1.77,0.78,2.95c-3.17,21.94-6.3,43.89-9.4,65.84c-0.16,1.17-0.55,2.04-1.38,2.87
		c-30.27,30.23-60.5,60.5-90.78,90.73c-5.38,5.38-13.02,5.33-18.43-0.07C164.88,257.7,138.61,231.4,112.32,205.13z M326.12,315.05
		c-37.35,0.03-74.7,0.03-112.05,0c-6.28,0-11.4-4.26-12.65-10.17c-0.27-1.26-0.04-1.62,1.23-1.73c7.95-0.64,14.16-4.52,19.7-10.08
		c30.13-30.28,60.35-60.45,90.59-90.61c2.16-2.16,3.25-4.58,3.66-7.59c1.99-14.65,4.13-29.27,6.23-43.91
		c0.02-0.15,0.14-0.28,0.44-0.82c5.18,6.92,10.21,13.64,15.27,20.34c0.53,0.71,0.46,1.43,0.46,2.18
		c0.01,43.22,0.03,86.43-0.01,129.65C338.97,309.51,333.36,315.04,326.12,315.05z"/>
	<path class="st3" d="M197.14,244.24c7.82-23.41,15.62-46.81,23.43-70.22c4.05-12.14,8.13-24.28,12.16-36.44
		c1.67-5.04-0.76-9.63-5.57-10.67c-3.98-0.87-7.56,1.57-9.11,6.24c-9.03,27.1-18.06,54.2-27.09,81.3
		c-2.82,8.45-5.68,16.87-8.44,25.33c-1.81,5.53,1.65,10.56,7.12,10.53C193.28,250.29,195.78,248.31,197.14,244.24z"/>
	<path class="st3" d="M164.52,165.58c-12.64-0.1-23.06,10.21-23.11,22.87c-0.05,12.74,10.12,23,22.86,23.05
		c12.68,0.05,23.04-10.26,23.05-22.93C187.33,176.07,177.03,165.69,164.52,165.58z M164.19,196.18c-4.2-0.07-7.5-3.48-7.47-7.69
		c0.04-4.15,3.51-7.61,7.63-7.6c4.19,0.01,7.8,3.73,7.66,7.88C171.86,192.94,168.37,196.25,164.19,196.18z"/>
	<path class="st3" d="M251.14,211.49c12.59-0.06,22.74-10.29,22.76-22.91c0.02-12.63-10.38-23.04-23-23
		c-12.63,0.04-22.96,10.48-22.87,23.12C228.12,201.44,238.38,211.57,251.14,211.49z M251.04,180.89c4.12,0.06,7.57,3.57,7.56,7.7
		c-0.01,4.17-3.42,7.59-7.59,7.6c-4.2,0.02-7.6-3.32-7.66-7.5C243.28,184.44,246.85,180.83,251.04,180.89z"/>
</g>
<g>
	<path class="st3" d="M198.41,352.5c-1.38,2.08-3.54,5.19-6.46,9.34c-6.15-2.69-11.65-4.04-16.5-4.04c-6.38,0-9.57,2.38-9.57,7.15
		c0,2.15,0.73,3.85,2.19,5.08c1.46,1.23,4.5,2.73,9.11,4.5c8.31,3.23,14.28,6.73,17.94,10.5c3.65,3.77,5.48,8.31,5.48,13.61
		c0,7.46-2.81,13.23-8.42,17.3c-4.61,3.31-10.34,4.96-17.19,4.96c-8.08,0-16.69-2.92-25.84-8.77l6.69-9.34
		c4.46,3,10.19,4.5,17.19,4.5c7.92,0,11.88-3.19,11.88-9.58c0-4.15-4.27-7.69-12.8-10.61c-13.77-4.61-20.65-12-20.65-22.15
		c0-6.15,2.31-11.03,6.92-14.65c4.31-3.46,10.04-5.19,17.19-5.19C183.72,345.11,191.33,347.57,198.41,352.5z"/>
	<path class="st3" d="M255.85,419.52H244.2l-1.15-4.96c-5.08,4.23-10.23,6.34-15.46,6.34c-11.61,0-17.42-5.65-17.42-16.96
		c0-5.61,2.42-10,7.27-13.15c4.92-3.23,12.19-4.84,21.8-4.84h2.42v-0.23c0-3.31-0.69-5.58-2.08-6.81c-1.38-1.23-3.88-1.85-7.5-1.85
		c-5.08,0-9.73,1.62-13.96,4.84c-1.38-2.54-2.69-5.04-3.92-7.5c4.38-3.38,8.21-5.67,11.48-6.86c3.27-1.19,7.17-1.79,11.71-1.79
		c12.3,0,18.46,7.69,18.46,23.07V419.52z M241.2,394.83h-1.73c-4.38,0-7.92,0.77-10.61,2.31c-2.69,1.54-4.04,3.58-4.04,6.11
		c0,4.77,2.08,7.15,6.23,7.15c2.54,0,4.77-0.73,6.69-2.19c1.92-1.46,3.07-3.31,3.46-5.54V394.83z"/>
	<path class="st3" d="M286.08,345.11v74.4h-14.54v-66.79L286.08,345.11z"/>
	<path class="st3" d="M350.22,398.06h-35.99c0.31,3.54,1.75,6.48,4.33,8.82c2.58,2.35,5.63,3.52,9.17,3.52
		c5,0,10.23-1.54,15.69-4.61l3.69,7.73c-5.54,4.92-12.46,7.38-20.76,7.38c-8.92,0-15.88-2.54-20.88-7.61
		c-4.77-4.77-7.15-11.34-7.15-19.73c0-8.23,2.69-15.03,8.08-20.42c4.84-4.92,11-7.38,18.46-7.38c8.31,0,14.77,2.81,19.38,8.42
		c4,4.77,6,10.96,6,18.57V398.06z M313.42,387.33h22.26c-0.39-7.54-4.04-11.3-10.96-11.3C318.03,376.03,314.26,379.8,313.42,387.33z
		"/>
</g>
</svg>
