<?xml version="1.0" encoding="utf-8"?>
<!-- Generator: Adobe Illustrator 27.0.1, SVG Export Plug-In . SVG Version: 6.00 Build 0)  -->
<svg version="1.1" id="Layer_1" xmlns="http://www.w3.org/2000/svg" xmlns:xlink="http://www.w3.org/1999/xlink" x="0px" y="0px"
	 viewBox="0 0 500 117.6" style="zenable-background:new 0 0 500 117.6;" xml:space="preserve">
<style type="text/css">
	.st0{fill:#339933;}
	.st1{fill:#FFFFFF;}
	.st2{fill:#D09230;}
</style>
<g>
	<polygon class="st0" points="474.9,58.8 500,116.6 25.2,116.6 0,58.8 25.2,1 500,1 	"/>
	<circle class="st1" cx="424.5" cy="58.8" r="36.2"/>
	<path class="st2" d="M443.7,39.9c-0.4,0-0.7,0.1-1.1,0.3c-2.2,1.5-4.4,3.1-6.4,4.8c-2.6,2.1-5.1,4.4-7.5,6.7c0,0,0,0.1-0.1,0.1
		c-4.7,4.6-9,9.5-13,14.7c-0.4,0.5-0.6,0.4-1,0.1c-3.7-2.6-7.4-5.2-11.1-7.8c-0.4-0.3-0.6-0.3-0.9,0.1c-0.9,1-1.9,1.9-2.9,2.8
		c-0.5,0.4-0.5,0.7-0.1,1.2c4.9,6.8,9.8,13.6,14.3,20.6c0.4,0.7,0.8,1.3,1.3,2.1c0.1-0.2,0.2-0.3,0.3-0.4
		c3.7-6.4,7.6-12.6,11.8-18.6c2.1-3.1,4.2-6.1,6.5-9c0.3-0.5,0.7-0.9,1-1.4c4.2-5.4,8.5-10.6,13.6-15.2c0.4-0.3,0.7-0.7,1.2-1.1
		C447.5,39.9,445.6,39.9,443.7,39.9z"/>
</g>
</svg>
