<?xml version="1.0" encoding="utf-8"?>
<!-- Generator: Adobe Illustrator 27.0.1, SVG Export Plug-In . SVG Version: 6.00 Build 0)  -->
<svg version="1.1" id="Layer_1" xmlns="http://www.w3.org/2000/svg" xmlns:xlink="http://www.w3.org/1999/xlink" x="0px" y="0px"
	 viewBox="0 0 500 117.6" style="enable-background:new 0 0 500 117.6;" xml:space="preserve">
<style type="text/css">
	.st0{fill:#C1ED9A;}
	.st1{fill:#FFFFFF;}
</style>
<g>
	<polygon class="st0" points="474.9,58.8 500,117.6 25.1,117.6 0,58.8 25.1,0 500,0 	"/>
	<ellipse class="st1" cx="421.1" cy="58.8" rx="36.1" ry="36.8"/>
	<g>
		<path d="M425.3,54c5.8,1,9,5.1,9,9.8c0,10.7-12.8,15.1-17,15.1c-3,0-5.8-1.3-6.7-2.2c-1-0.8-1.2-1.6-1.1-2.4
			c0.1-0.8,1-1.8,1.6-2.2c0.5-0.4,1.1-0.4,1.6,0c1.6,1.4,4.4,3.5,8.1,3.5c4.3,0,7.4-3.3,7.4-9.6c0-5.9-4.5-8.2-8.1-8.2
			c-1.4,0-3,0.4-4,0.7l-0.4-1.9c5.8-1.9,10-4.3,10-8.9c0-4-2.7-6-6.1-6c-3.5,0-6.1,2.6-7.7,5.2l-1.4-1.4l2.9-4.1
			c1.8-2.1,4.8-3.7,8.3-3.7h0c5.9,0,9.7,3.7,9.7,8.6c0,1.8-0.6,3.2-1.9,4.5c-1.1,1-2.6,2.2-4.4,3.4V54z"/>
	</g>
</g>
</svg>
