<?xml version="1.0" encoding="utf-8"?>
<!-- Generator: Adobe Illustrator 27.0.1, SVG Export Plug-In . SVG Version: 6.00 Build 0)  -->
<svg version="1.1" id="Layer_1" xmlns="http://www.w3.org/2000/svg" xmlns:xlink="http://www.w3.org/1999/xlink" x="0px" y="0px"
	 viewBox="0 0 500 117.6" style="enable-background:new 0 0 500 117.6;" xml:space="preserve">
<style type="text/css">
	.st0{fill:#C1ED9A;}
	.st1{fill:#FFFFFF;}
</style>
<g>
	<polygon class="st0" points="474.9,58.8 500,117.6 25.3,117.6 0.2,58.8 25.3,0 500,0 	"/>
	<ellipse class="st1" cx="422.7" cy="58.8" rx="36.1" ry="36.8"/>
	<g>
		<path d="M429.7,66.8v4.4c0,4.3,0.3,4.7,5.5,5.2v1.8h-17.1v-1.8c5.7-0.5,6-1,6-5.2v-4.3h-16.8v-2c6.4-9.4,12.9-18.6,19.5-27.2h2.9
			v26h6.2v3.2H429.7z M424.1,45.1H424c-4,5.3-8.1,11.5-12.5,18.6h12.6V45.1z"/>
	</g>
</g>
</svg>
