<?xml version="1.0" encoding="utf-8"?>
<!-- Generator: Adobe Illustrator 27.0.1, SVG Export Plug-In . SVG Version: 6.00 Build 0)  -->
<svg version="1.1" id="Layer_1" xmlns="http://www.w3.org/2000/svg" xmlns:xlink="http://www.w3.org/1999/xlink" x="0px" y="0px"
	 viewBox="0 0 485.3 117.6" style="enable-background:new 0 0 485.3 117.6;" xml:space="preserve">
<style type="text/css">
	.st0{fill:#339933;}
	.st1{fill:#FFFFFF;}
	.st2{fill:#D09230;}
</style>
<g>
	<polygon class="st0" points="0,117.6 484.4,117.6 458.8,58.8 484.4,0 0,0 	"/>
	<circle class="st1" cx="403.4" cy="58.8" r="36.8"/>
</g>
<path class="st2" d="M422,39.6c-0.4,0-0.7,0.1-1,0.3c-2.2,1.4-4.2,3-6.3,4.7c-2.5,2.1-4.9,4.3-7.3,6.5c0,0,0,0.1-0.1,0.1
	c-4.5,4.5-8.8,9.2-12.7,14.3c-0.4,0.5-0.6,0.4-0.9,0.1c-3.6-2.5-7.2-5-10.7-7.5c-0.4-0.3-0.6-0.3-0.9,0.1c-0.9,0.9-1.8,1.9-2.8,2.7
	c-0.5,0.4-0.4,0.7-0.1,1.2c4.8,6.6,9.6,13.2,13.9,20c0.4,0.6,0.8,1.3,1.2,2c0.1-0.2,0.2-0.3,0.3-0.4c3.6-6.2,7.4-12.2,11.5-18.1
	c2-3,4.1-5.9,6.3-8.8c0.3-0.5,0.7-0.9,1-1.4c4-5.2,8.3-10.3,13.2-14.8c0.4-0.3,0.7-0.6,1.2-1.1C425.8,39.6,423.9,39.6,422,39.6z"/>
</svg>
