<?xml version="1.0" encoding="utf-8"?>
<!-- Generator: Adobe Illustrator 27.0.1, SVG Export Plug-In . SVG Version: 6.00 Build 0)  -->
<svg version="1.1" id="Layer_1" xmlns="http://www.w3.org/2000/svg" xmlns:xlink="http://www.w3.org/1999/xlink" x="0px" y="0px"
	 viewBox="0 0 500 117.6" style="enable-background:new 0 0 500 117.6;" xml:space="preserve">
<style type="text/css">
	.st0{fill:#C1ED9A;}
	.st1{fill:#FFFFFF;}
</style>
<polygon class="st0" points="474.9,58.8 500,117.6 25.3,117.6 0.3,58.8 25.3,0 500,0 "/>
<ellipse class="st1" cx="420.9" cy="58.8" rx="36.1" ry="36.8"/>
<g>
	<path d="M413.6,55.9c2.6-1,5.8-2,7.5-2c8.2,0,12.5,5.5,12.5,10.9c0,3.9-1.9,7.5-5.9,10.8c-3.5,2.7-7.9,4.5-11.3,4.5
		c-2.9,0-5.6-1.3-6.7-2.2c-1-0.9-1.3-1.5-1.2-2.3c0-0.7,0.6-1.7,1.5-2.4c0.6-0.4,1.1-0.4,1.8,0.1c1.4,1.3,4.2,3.5,8.2,3.5
		c5.2,0,7.7-4.6,7.7-9.3c0-5.7-3.5-9.7-10.4-9.7c-2.8,0-5.2,0.8-6.7,1.3l2.6-19.8h18.8l0.4,0.5l-1.8,4.6h-15.3L413.6,55.9z"/>
</g>
</svg>
