<?xml version="1.0" encoding="utf-8"?>
<!-- Generator: Adobe Illustrator 26.5.0, SVG Export Plug-In . SVG Version: 6.00 Build 0)  -->
<svg version="1.1" id="Layer_4" xmlns="http://www.w3.org/2000/svg" xmlns:xlink="http://www.w3.org/1999/xlink" x="0px" y="0px"
	 viewBox="0 0 500 500" style="enable-background:new 0 0 500 500;" xml:space="preserve">
<style type="text/css">
	.st0{fill:#D09230;}
	.st1{fill:#FFFFFF;}
</style>
<rect class="st0" width="500" height="500"/>
<g>
	<path class="st1" d="M263.67,469.01c-5.84-2.33-12.08-3.7-17.12-7.91c-5.09-4.26-8.82-9.24-10.04-15.85c-1-5.44,0.59-10.1,4.54-14
		c1.5-1.48,2.36-1.53,3.29,0.62c1.3,2.99,2.9,5.82,4.99,8.4c5.99,7.39,13.25,7.96,20.13,1.26c9.06-8.82,12.85-20.24,15.54-32.17
		c4.9-21.73-1.72-41-12.66-59.36c-9.89-16.6-22-31.56-34.9-45.82c-7.59-8.39-8.73-14.21-2.54-25.9
		c4.14-7.83,10.51-13.78,18.69-17.52c5.61-2.57,11.49-1.36,17.27-0.99c12.78,0.82,25.5,3.06,38.37,1.44
		c12.38-1.57,17.52-10.44,12.73-22.1c-1.23-3.01-2.79-5.88-4.3-9.01c3.66-2.03,8.88-0.15,11.31-4.69c1.84-3.44,0.69-6.82-3.73-10.58
		c0.72-0.51,1.41-0.98,2.08-1.46c5.38-3.84,5.72-6.51,1.47-11.48c-5.62-6.58-5.13-10.07,2.16-15.17c5.92-4.15,6.38-5.96,2.16-11.75
		c-5.3-7.27-11.46-13.85-17.89-20.1c-6.01-5.85-9.33-12.31-7.95-20.92c0.62-3.91,0.67-7.98-0.04-11.94
		c-0.61-3.39-2.02-6.22-5.95-6.88c-3.81-0.65-6.49,1.45-7.31,4.49c-3.72,13.83-15.84,17.87-26.71,23.04
		c-5.76,2.74-7.55,6.89-7.6,12.49c-0.05,6.25,2.51,9.3,8.5,10.52c-4.32,3.96-6.95,4.29-11.41,0.33c-3.18-2.83-4.83-2.1-6.91,1.08
		c-3.29,5.03-6.23,10.16-7.82,16.01c-0.7,2.57-0.61,5.04,0.15,7.57c1.93,6.41,6.28,8.19,12.12,4.95c0.82-0.46,1.51-1.71,2.55-1.12
		c1.15,0.65,0.81,2.03,0.7,3.11c-0.54,5.4-4.14,8.2-8.8,9.95c-5.65,2.12-11.56,3.19-17.56,3.14c-5.37-0.05-8.48,1.84-10.95,7.04
		c-6.88,14.5-13.76,29.04-22.51,42.58c-7.47,11.56-9.41,12.43-22.15,7.47c-19.17-7.46-33.3-21.07-44.5-37.87
		c-17.97-26.96-26.24-56.77-23.76-89.06c2.71-35.33,18.8-63.74,47.07-85.07c14.42-10.88,30.06-19.51,48.04-23.08
		c27.05-5.37,49.16,3.45,61.16,8.21c80.57,32.01,113.61,131.57,117.26,143.07c17.54,55.27,11.93,101.24,9.36,120.56
		c-11.23,84.41-56.07,132.17-66.46,141.24c-10.9,9.51-22.82,15.29-22.82,15.29c-7.36,4.07-15.47,5.99-23.56,7.96
		C272.79,469.01,268.23,469.01,263.67,469.01z"/>
</g>
</svg>
