<?xml version="1.0" encoding="utf-8"?>
<!-- Generator: Adobe Illustrator 26.5.0, SVG Export Plug-In . SVG Version: 6.00 Build 0)  -->
<svg version="1.1" id="Layer_4" xmlns="http://www.w3.org/2000/svg" xmlns:xlink="http://www.w3.org/1999/xlink" x="0px" y="0px"
	 viewBox="0 0 500 500" style="enable-background:new 0 0 500 500;" xml:space="preserve">
<style type="text/css">
	.st0{fill:#D09230;}
	.st1{fill:#FFFFFF;}
</style>
<rect class="st0" width="500" height="500"/>
<g>
	<path class="st1" d="M422.67,125.96c-21.09-33.43-50.88-55.48-88.86-66.36c-28.36-8.15-56.75-7.44-84.91,0.85
		c-23.48,6.91-44.15,19.08-61.79,36.08c-19,18.27-32.5,40.06-40.37,65.29c-3.69,11.87-5.84,23.99-6.54,36.39
		c-0.11,2.28-0.9,2.93-3.19,2.85c-6-0.17-12.01-0.2-18.01,0c-18.83,0.65-30.95,17.82-24.98,35.52c0.9,2.71-0.06,2.88-2.09,3.24
		c-17.03,3.21-26.56,19.31-20.8,35.35c0.87,2.42,0.39,3.1-1.89,3.95c-3.9,1.45-8.79,5.74-10.26,7.17c-1.69,1.64-3.87,4.53-4.99,9.71
		c-0.16,1.33-0.27,2.82-0.27,4.46c-0.01,1.74,0.11,3.33,0.27,4.73c0.71,6.58,3.14,9.37,4.75,11.23c1.41,1.63,3.13,3.04,5.2,4.19
		c3.38,1.92,4.4,4.31,4.37,8.03c-0.14,21.68-0.39,43.36,0.06,65.04c0.37,18.1,8.43,32.62,22.97,43.33
		c7.08,5.22,15.11,8.34,23.96,9.13h182.33c1.35-1.55,3.3-0.76,4.93-1.13c25.34-5.89,42.31-26.84,42.54-52.86
		c0.11-12.63,0.06-25.29-0.03-37.92c-0.03-2.23,0.56-3.33,2.76-4.14c8.71-3.21,17.11-7.22,24.98-12.23
		c42.71-27.2,67.26-65.91,72.59-116.31C449.03,187.19,441.08,155.2,422.67,125.96z M69.39,300.72c-0.11-5.05,3.72-7.78,10.91-7.78
		h254.22c6.79,0,10.71,2.85,10.57,7.72c-0.14,5.02-3.78,7.61-10.71,7.61H80.16C73.2,308.27,69.48,305.65,69.39,300.72z
		 M96.88,254.65c6.88-0.08,13.76,0,20.66-0.03c5.44-0.03,8.85-2.76,9.19-7.19c0.31-4.34-2.79-7.44-8.26-8.15
		c-6.68-0.87-11.14-5.86-10.8-12.09c0.34-6.23,5.3-10.83,12.04-10.83c31.26-0.06,62.53,0.06,93.82-0.06
		c16.38-0.08,28.53-7.41,35.91-22.16c2.96-5.89,4.17-12.26,3.66-19.28c9.92,4.74,16.49,17.25,15.22,28.5
		c-0.14,1.27-0.37,2.54-0.48,3.81c-0.4,5.41,2.88,9.08,8.29,9.13c6.12,0.08,12.26-0.03,18.38,0.03c6.99,0.08,12.01,4.62,12.29,11.02
		c0.25,6.2-4.17,11.05-10.97,11.92c-5.19,0.68-8.29,3.69-8.12,7.92c0.17,4.43,3.64,7.36,8.96,7.41c6.91,0.06,13.78-0.03,20.69,0.03
		c7.33,0.06,12.52,4.93,12.4,11.64c-0.08,6.54-5.19,11.3-12.35,11.3c-73.52,0.03-147.04,0.03-220.53,0
		c-7.13,0-12.21-4.91-12.23-11.45C84.67,259.59,89.75,254.74,96.88,254.65z M330.38,242.28c-3.3-1.75-6.93-2.34-10.82-3.04
		c3.44-8.37,3.52-16.41-0.79-24.16c-5.1-9.13-13.11-13.59-23.43-14.04c-3.58-0.14-7.92,1.21-10.51-0.39
		c-2.68-1.63-1.3-6.48-2.14-9.87c-4.65-19.06-19.99-32.9-39.55-35.44c-3.16-0.42-5.81,0.54-7.72,3.1c-2.14,2.93-1.61,5.92-0.17,9.02
		c5.05,10.91,2.34,22.21-6.79,29.01c-3.92,2.9-8.37,4.4-13.19,4.48c-6.37,0.14-12.77,0-19.14,0.08c-1.97,0.06-2.48-0.34-2.23-2.51
		c5.36-43.05,28.47-72.03,69.29-86.23c38.2-13.33,84.29,1.61,108.62,34.03c16.29,21.71,23.29,46.03,19.99,72.93
		c-3.3,26.89-16.01,48.83-37.1,65.97c-2.96-2.71-6.03-5.24-9.95-6.26c-2.31-0.59-2.11-1.66-1.47-3.55
		C347.94,262.01,342.75,248.87,330.38,242.28z M345.15,334.29c0-1.13,0.11-2.17-0.03-3.19c-0.76-5.47,0.28-9.42,6.03-12.43
		c5.98-3.13,8.63-9.5,9.16-16.35c0.14-1.69,0.76-2.73,2.06-3.75c23.43-17.99,38.28-41.47,43.55-70.53
		c5.72-31.43-0.68-60.58-19-86.83c-14.46-20.72-33.83-35.24-57.9-43.02c-31.54-10.2-62.19-7.53-91.31,8.4
		c-24.78,13.53-42.06,33.88-52.15,60.27c-3.69,9.56-6.15,19.45-6.71,29.68c-0.17,3.44-1.13,4.85-4.91,4.57
		c-5.44-0.39-10.97-0.11-16.46-0.08c-1.41,0-2.26,0.03-2.11-2c1.64-23.03,8.09-44.51,20.33-64.16
		c17.68-28.33,42.37-47.92,74.03-58.55c21.14-7.1,42.88-8.8,64.92-5.22c34,5.5,62.08,21.65,84.2,47.87
		c16.6,19.7,26.89,42.54,30.47,68.16c5.3,38.06-3.47,72.65-26.47,103.43c-14.77,19.73-33.8,34.14-56.49,43.69
		C346.14,334.38,345.85,334.29,345.15,334.29z M289.95,430.81h-17.17c-49.39,0.03-98.81,0.03-148.22,0
		c-23.09,0-39.86-16.69-39.89-39.69c-0.06-21.42,0.06-42.88-0.08-64.3c-0.03-2.73,0.7-3.3,3.35-3.3c3.58,0,7.13,0.03,10.71,0
		c36.22,0.08,72.51,0.06,108.73,0.06c39.58,0,79.13,0.03,118.71-0.06c2.79,0,3.83,0.45,3.81,3.61c-0.17,21.31-0.06,42.62-0.08,63.94
		C329.76,414.1,313.04,430.81,289.95,430.81z"/>
	<path class="st1" d="M273.94,338.91c-44.4-0.03-88.8-0.03-133.23,0c-5.33,0-8.17,1.3-9.36,4.76c-0.51,1.41-0.73,3.19-0.73,5.38
		v56.27c0,7.56,2.59,10.18,10.09,10.18h107.21h26.02c7.27,0,9.89-2.65,9.89-9.98c0.03-18.89,0.03-37.77,0-56.66
		C283.84,341.56,281.21,338.91,273.94,338.91z M268.59,396.93c0.03,2.68-0.62,3.33-3.33,3.33c-14.07-0.11-28.13-0.11-42.23-0.08
		h-15.98c-19.28,0-38.56-0.06-57.82,0.08c-2.68,0-3.38-0.62-3.35-3.33c0.17-13.28,0.14-26.56,0.03-39.83
		c-0.03-2.17,0.48-2.82,2.4-2.9c0.03-0.03,0.03-0.03,0.06,0c0.03-0.03,0.03-0.03,0.06,0c0.14-0.03,0.28-0.03,0.42-0.03
		c38.93,0.08,77.86,0.08,116.82,0c2.34,0,2.96,0.54,2.93,2.93C268.47,370.37,268.44,383.65,268.59,396.93z"/>
	<path class="st1" d="M213.42,369.56c-13.33-0.03-26.72-0.03-40.06,0h-2.76c-5.58,0-9.13,2.93-9.27,7.47
		c-0.14,4.65,3.55,7.81,9.27,7.84c7.16,0.03,14.29,0,21.42,0h6.17c5.07,0,10.15,0,15.22-0.03c5.53-0.03,9.11-3.1,9.11-7.64
		C222.49,372.66,218.91,369.56,213.42,369.56z"/>
	<path class="st1" d="M245.55,369.58c-3.97,0-7.56,3.52-7.64,7.5c-0.06,4.12,3.69,7.84,7.81,7.72c4-0.11,7.47-3.72,7.44-7.7
		C253.11,373.14,249.56,369.58,245.55,369.58z"/>
</g>
</svg>
