<?xml version="1.0" encoding="utf-8"?>
<!-- Generator: Adobe Illustrator 26.5.0, SVG Export Plug-In . SVG Version: 6.00 Build 0)  -->
<svg version="1.1" id="Layer_4" xmlns="http://www.w3.org/2000/svg" xmlns:xlink="http://www.w3.org/1999/xlink" x="0px" y="0px"
	 viewBox="0 0 500 500" style="enable-background:new 0 0 500 500;" xml:space="preserve">
<style type="text/css">
	.st0{fill:#D09230;}
	.st1{fill:#FCFCFC;}
	.st2{fill:#010101;}
	.st3{fill:#FEFEFE;}
	.st4{clip-path:url(#SVGID_00000122710387350026629060000011365269692604882572_);}
	.st5{fill:#FFFFFF;}
</style>
<rect class="st0" width="500" height="500"/>
<g>
	<path class="st1" d="M439.35,269.08c6.87-11.35,4.97-25.55-5.19-36.12c-6.55-6.83-14.57-12.18-21.79-18.35
		c-0.94-0.79-1.39-0.5-2.1,0.3c-2.62,2.92-5.06,3.12-8.09,0.68c-34.41-27.68-68.81-55.36-103.2-83.07
		c-3.38-2.73-3.63-4.96-0.86-8.25c0.89-1.07,1.15-1.77-0.23-2.57c-0.62-0.36-1.11-0.87-1.66-1.32
		c-35.31-28.65-70.62-57.31-105.97-85.95c-3.52-2.86-6.35-2.23-8.27,1.72c-4.03,8.32-2.63,16.21,2.39,23.85
		c4.19,6.36,10.1,11.27,15.9,16.25c38.02,32.56,76.95,64.17,115.73,95.94c26.31,21.54,52.75,42.96,79.09,64.47
		c1.64,1.36,2.71,1.63,4.69,0.31c6.87-4.55,16.03-3.82,22.52,1.5c11.44,9.34,8.54,26.73-5.21,31.29
		c-12.84,4.25-26.34-5.69-25.5-18.98c0.15-2.3-0.66-2.91-2.69-3.55c-42.68-13.52-85.3-27.18-127.98-40.65
		c-39.34-12.41-78.64-24.92-118.33-36.29c-5.89-1.69-11.8-3.21-18.01-3.3c-9.39-0.13-16.86,3.04-21.63,10.81
		c-2.49,4.05-1.43,6.62,3.32,8.15c53.57,17.22,107.12,34.43,160.68,51.66c5.52,1.78,11.05,3.52,16.81,5.34
		c-0.85-3.26-1.5-6.19-1.2-9.22c0.61,2.91,2.07,5.62,2.07,8.64c0.01,0.56,0.18,0.96,0.83,1.12c1.67,0.42,3.2,1.4,5.13,1.31
		c-1.16-2.72-1.04-5.4-1.34-8.04c0.94,2.48,2.16,4.88,2.15,7.55c0,0.77,0.27,1.28,1.11,1.52c1.5,0.42,3,0.89,4.79,1.41
		c-0.98-3.07-1.15-5.9-1.3-8.73c0.81,2.48,1.97,4.85,2.17,7.47c0.05,0.7-0.25,1.61,0.9,1.89c1.59,0.38,3.04,1.26,4.67,1.32
		c-0.45-3.04-0.87-5.94-1.29-8.85c1.32,2.57,2.12,5.23,2.47,7.99c0.1,0.73,0.03,1.51,1.09,1.81c1.5,0.41,2.97,0.91,4.5,1.41
		c-0.26-1.78-0.48-3.2-0.67-4.62c-0.19-1.4-0.36-2.81-0.53-4.21c0.51,0.29,0.67,0.6,0.76,0.93c0.45,1.64,0.91,3.28,1.32,4.92
		c0.98,4,1.1,4.12,5.9,4.88c-0.53-2.98-1.1-5.92-0.95-8.93c0.8,2.73,1.52,5.47,2.2,8.24c0.16,0.71-0.02,1.49,1.09,1.77
		c1.45,0.35,2.86,0.86,4.45,1.37c-0.41-2.65-0.77-5.01-1.13-7.38c1.06,2.06,1.74,4.2,2.33,6.35c0.2,0.71,0,1.51,1.08,1.79
		c1.45,0.38,2.85,0.89,4.49,1.4c-0.43-2.81-0.8-5.34-1.19-7.88c1.01,2.3,1.89,4.59,2.35,6.98c0.21,1.13,0.63,1.65,1.7,1.87
		c1.28,0.25,2.41,1.07,3.82,0.96c-0.37-2.63-0.73-5.21-1.1-7.79c0.98,2.33,1.76,4.66,2.36,7.04c0.2,0.75,0.04,1.49,1.09,1.78
		c1.68,0.46,3.34,1.02,5.3,1.63c-1.26-3.34-1.29-6.44-1.52-9.53c0.98,2.75,2,5.46,2.27,8.35c0.06,0.67-0.22,1.55,0.98,1.81
		c1.59,0.34,3.06,1.2,4.83,1.26c-0.99-3.18-1.22-6.27-1.28-9.37c0.89,2.94,2.04,5.82,2.25,8.88c0.05,0.83,0.28,1.21,1.09,1.45
		c1.51,0.44,3.01,0.93,4.76,1.48c-0.9-3.38-1.42-6.43-1.22-9.56c0.81,2.91,1.54,5.82,2.11,8.77c0.14,0.73,0.19,1.23,1.07,1.47
		c1.53,0.41,3.02,0.94,4.95,1.56c-1.09-2.93-1.18-5.53-1.32-8.13c0.87,2.31,1.94,4.57,2.08,7.04c0.04,0.82,0.07,1.46,1.1,1.74
		c1.52,0.41,3,0.89,4.76,1.43c-0.91-3.02-1.1-5.76-1.3-8.52c0.98,2.45,2.06,4.86,2.2,7.5c0.04,0.8,0.1,1.48,1.13,1.74
		c1.49,0.41,2.95,0.91,4.48,1.39c-0.46-3.11-0.86-5.89-1.28-8.66c1.17,2.44,2.2,4.89,2.45,7.51c0.07,0.73-0.14,1.63,0.96,1.88
		c1.59,0.36,3.04,1.26,4.71,1.3c-0.46-2.97-0.87-5.78-1.3-8.6c1.12,2.49,2.38,4.93,2.44,7.64c0.02,1.22,0.54,1.76,1.75,2.14
		c5.5,1.7,10.92,3.61,16.44,5.22C418.27,285.74,432.51,280.42,439.35,269.08z"/>
	<path class="st1" d="M414.6,267.99c9.12-2.18,14.18-10.64,11.66-19.46c-2.42-8.46-11.56-13.72-20.24-11.67
		c-8.76,2.08-13.89,10.82-11.41,19.47C397.01,264.67,406.15,270,414.6,267.99z M419.87,244.17c2.76,3.05,4,6.47,2.48,10.48
		c0.08-7.1-3.63-11.49-10.79-13.63C415.18,240.32,417.76,241.81,419.87,244.17z M414.54,263.51c-2.78,2.21-5.82,2.09-8.84,0.9
		c-4.08-1.57-6.82-4.28-7.3-8.79C401.73,262.07,406.92,264.98,414.54,263.51z"/>
	<path class="st1" d="M300.67,130.84c30.5,24.55,61,49.1,91.51,73.64c3.98,3.21,7.94,6.43,11.95,9.6c1.55,1.23,2.79,0.84,4.15-0.55
		c1.6-1.63,0.1-2.09-0.87-2.87c-15.19-12.33-30.36-24.69-45.55-37.02c-19.64-15.94-39.29-31.86-58.93-47.8
		c-0.54-0.43-1.11-0.83-1.68-1.25c-0.28,0.27-0.47,0.46-0.66,0.62C298.2,127.17,298.2,128.85,300.67,130.84z"/>
	<path class="st1" d="M291.74,159.99c2.11,1.78,4.41,2.57,7.53,1.61c-0.59-0.49-0.94-0.77-1.27-1.03
		c-23.23-19.15-46.61-38.15-69.62-57.52c-16.03-13.49-33.14-25.97-46.63-41.81c-1.47,3.01-1.03,5.18,1.85,7.6
		C219.64,99.23,255.69,129.6,291.74,159.99z"/>
	<path class="st1" d="M459.22,264.72l-0.01-0.01c-4.38-2.65-8.76-5.3-13.23-8.03c-1.62,10.76-2.93,13.03-13.52,23.52
		c4.44,1.99,8.88,3.91,13.25,5.94c2.59,1.19,4.84,1.11,6.85-0.91c0.03-0.05,0.05-0.09,0.08-0.14c2.47-4.38,4.92-8.78,7.45-13.11
		C461.64,269.33,461.7,266.93,459.22,264.72z"/>
	<path class="st1" d="M140.63,167.27c37.06,10.43,73.64,22.24,110.37,33.64c7.09,2.19,14.17,4.47,21.5,6.77
		c-0.85-2.9-2.67-4.41-5.37-5.23c-45.08-13.61-90.15-27.25-135.21-40.88c-3.98-1.2-5.61-0.61-8.23,2.98
		C129.63,164.68,135.17,165.74,140.63,167.27z"/>
	<path class="st2" d="M67.53,300.83c0,0.64-0.16,0.87-0.74,1.06c-8.17,2.53-16.33,5.11-24.48,7.63c-1.49,0.46-2.89-0.3-3.16-1.76
		c-0.23-1.27-0.13-2.62-0.16-3.92c-0.01-0.6,0.4-0.57,0.82-0.59c0.86,0,1.72,0.06,2.58-0.03c1.12-0.11,1.75-0.82,1.76-1.95
		c0.01-1.16-0.64-1.77-1.75-1.95c-0.17-0.03-0.34-0.01-0.52-0.01c-2.9-0.13-2.9-0.13-2.9-3.18c0-2.52,0-2.52,2.49-2.52h10.12
		c2.17,0,3.15-0.63,3.1-2.03c-0.03-1.37-0.97-1.95-3.2-1.95c-3.59,0-7.2-0.06-10.79,0.01c-1.26,0.03-1.79-0.19-1.76-1.63
		c0.1-3.61,0.03-3.61,3.69-3.61h5.67c1.33,0.01,2.29-0.53,2.29-1.95c0.01-1.4-0.87-1.97-2.25-1.97c-2.68,0.03-5.37-0.04-8.06,0.04
		c-1.09,0.03-1.37-0.34-1.32-1.37c0.07-1.37,0.06-2.75-0.01-4.12c-0.04-0.92,0.29-1.19,1.19-1.13c0.96,0.07,1.93,0.06,2.9-0.01
		c1.12-0.07,1.83-0.7,1.85-1.85c0.03-1.2-0.63-1.92-1.85-2.06c-0.11-0.01-0.23,0-0.34-0.01c-1.22-0.16-3.18,0.56-3.51-0.33
		c-0.57-1.57-0.21-3.49-0.19-5.25c0.01-0.82,0.73-0.54,1.19-0.56c3.65-0.01,7.31-0.03,10.96,0c1.36,0.01,2.42-0.3,2.52-1.87
		c0.1-1.34-0.76-2.03-2.53-2.03c-3.48-0.01-6.97-0.06-10.44,0.01c-1.27,0.03-1.89-0.19-1.75-1.65c0.16-1.63-0.53-3.85,0.3-4.79
		c0.96-1.1,3.2-0.26,4.89-0.36c0.52-0.04,1.03,0,1.55-0.01c1.29-0.03,2.09-0.66,2.12-1.96c0.03-1.33-0.86-1.96-2.09-2
		c-1.83-0.06-3.66-0.06-5.48,0c-0.96,0.04-1.23-0.23-1.29-1.23c-0.27-4.85,1.09-5.95,5.65-4.39c7.17,2.43,14.44,4.59,21.68,6.82
		c0.89,0.27,1.24,0.57,1.24,1.6c-0.06,8.11-0.03,16.22-0.03,24.34h0.01C67.5,284.49,67.48,292.66,67.53,300.83z"/>
	<path class="st2" d="M130.84,458.75c-0.96,2.33-2.2,4.51-3.62,6.58c-0.54,0.8-1.04,0.94-1.97,0.6c-6.24-2.29-9.89-6.92-11.92-13.02
		c-2.38-7.13-2.4-14.48-1.86-21.86c1.13-15.4,5.12-30.22,9.16-45.03c1.2-4.41,2.27-8.83,3.05-13.33c0.76-4.45,1.13-8.94,1.45-13.46
		c2.73,7.87,4.88,15.9,6.62,24.01c3.36,15.58,5.28,31.31,4.52,47.26C135.8,440.16,134.59,449.71,130.84,458.75z"/>
	<path class="st2" d="M175.11,251.03c-6.51-6.05-14.36-9.64-22.84-11.89c-22.01-5.84-43.97-4.92-65.89,0.66
		c-1.14,0.29-1.19,0.9-1.19,1.82c0.03,8.58,0.01,17.15,0.01,25.73c0,1.9-0.66,2.78-2.06,2.69c-1.72-0.09-1.89-1.32-1.89-2.68
		c0.01-5.04,0-10.06,0-15.09c0-3.19,0.01-6.4,0-9.6c-0.01-0.54,0.29-1.29-0.92-1c-5.14,1.23-8.87,5.59-8.89,10.8
		c-0.04,15.77-0.04,31.55,0,47.32c0,3.79,2.66,6.55,6.45,6.92c2.9,0.27,5.79,0.66,8.63,1.36c16.27,3.99,28.17,13.25,34.74,28.92
		c3.88,9.26,7.24,18.71,10.02,28.36c6.72,23.49,10.67,47.33,8.46,71.87c-0.96,10.47-3.03,20.66-8.91,29.93
		c2.55,0.26,4.89,0.26,7.21,0.03c5.99-0.56,11.3-2.65,15.45-7.2c3.92-4.31,5.91-9.56,7.13-15.14c2.35-10.73,2.06-21.59,1.29-32.42
		c-1.45-20.07-4.66-39.92-7.65-59.79c-2.03-13.43,0.1-26.01,6.94-37.77c3.51-6.05,8.33-10.95,13.42-15.67
		C189.2,285.64,189.36,264.29,175.11,251.03z M85.21,284.8c-0.04,1.23-0.6,2.1-1.95,2.13c-1.3,0.01-1.97-0.77-1.99-2.06
		c-0.03-2.33-0.03-4.66,0.01-7c0.01-1.2,0.72-1.97,1.9-1.99c1.27,0,1.97,0.8,2.02,2.07c0.03,1.13,0,2.27,0,3.42
		C85.21,282.51,85.24,283.65,85.21,284.8z M170.8,261.33c-0.83,1-2.02,0.86-3.26-0.36c-6.12-5.98-13.74-9.04-21.82-11.2
		c-1.27-0.33-2.55-0.6-3.82-0.92c-1.03-0.24-1.56-0.89-1.57-1.77c0.03-1.45,1.02-2.36,2.3-2.07c10.2,2.23,19.87,5.59,27.63,13.05
		C171.27,259.04,171.83,260.09,170.8,261.33z"/>
	<path class="st3" d="M175.11,251.03c-6.51-6.05-14.36-9.64-22.84-11.89c-22.01-5.84-43.97-4.92-65.89,0.66
		c-1.14,0.29-1.19,0.9-1.19,1.82c0.03,8.58,0.01,17.15,0.01,25.73c0,1.9-0.66,2.78-2.06,2.69c-1.72-0.09-1.89-1.32-1.89-2.68
		c0.01-5.04,0-10.06,0-15.09c0-3.19,0.01-6.4,0-9.6c-0.01-0.54,0.29-1.29-0.92-1c-5.14,1.23-8.87,5.59-8.89,10.8
		c-0.04,15.77-0.04,31.55,0,47.32c0,3.79,2.66,6.55,6.45,6.92c2.9,0.27,5.79,0.66,8.63,1.36c16.27,3.99,28.17,13.25,34.74,28.92
		c3.88,9.26,7.24,18.71,10.02,28.36c6.72,23.49,10.67,47.33,8.46,71.87c-0.96,10.47-3.03,20.66-8.91,29.93
		c2.55,0.26,4.89,0.26,7.21,0.03c5.99-0.56,11.3-2.65,15.45-7.2c3.92-4.31,5.91-9.56,7.13-15.14c2.35-10.73,2.06-21.59,1.29-32.42
		c-1.45-20.07-4.66-39.92-7.65-59.79c-2.03-13.43,0.1-26.01,6.94-37.77c3.51-6.05,8.33-10.95,13.42-15.67
		C189.2,285.64,189.36,264.29,175.11,251.03z M85.21,284.8c-0.04,1.23-0.6,2.1-1.95,2.13c-1.3,0.01-1.97-0.77-1.99-2.06
		c-0.03-2.33-0.03-4.66,0.01-7c0.01-1.2,0.72-1.97,1.9-1.99c1.27,0,1.97,0.8,2.02,2.07c0.03,1.13,0,2.27,0,3.42
		C85.21,282.51,85.24,283.65,85.21,284.8z M170.8,261.33c-0.83,1-2.02,0.86-3.26-0.36c-6.12-5.98-13.74-9.04-21.82-11.2
		c-1.27-0.33-2.55-0.6-3.82-0.92c-1.03-0.24-1.56-0.89-1.57-1.77c0.03-1.45,1.02-2.36,2.3-2.07c10.2,2.23,19.87,5.59,27.63,13.05
		C171.27,259.04,171.83,260.09,170.8,261.33z"/>
	<path class="st3" d="M136.26,430.49c-0.46,9.67-1.67,19.22-5.42,28.26c-0.96,2.33-2.2,4.51-3.62,6.58c-0.54,0.8-1.04,0.94-1.97,0.6
		c-6.24-2.29-9.89-6.92-11.92-13.02c-2.38-7.13-2.4-14.48-1.86-21.86c1.13-15.4,5.12-30.22,9.16-45.03
		c1.2-4.41,2.27-8.83,3.05-13.33c0.76-4.45,1.13-8.94,1.45-13.46c2.73,7.87,4.88,15.9,6.62,24.01
		C135.1,398.81,137.02,414.54,136.26,430.49z"/>
	<path class="st3" d="M67.53,300.83c0,0.64-0.16,0.87-0.74,1.06c-8.17,2.53-16.33,5.11-24.48,7.63c-1.49,0.46-2.89-0.3-3.16-1.76
		c-0.23-1.27-0.13-2.62-0.16-3.92c-0.01-0.6,0.4-0.57,0.82-0.59c0.86,0,1.72,0.06,2.58-0.03c1.12-0.11,1.75-0.82,1.76-1.95
		c0.01-1.16-0.64-1.77-1.75-1.95c-0.17-0.03-0.34-0.01-0.52-0.01c-2.9-0.13-2.9-0.13-2.9-3.18c0-2.52,0-2.52,2.49-2.52h10.12
		c2.17,0,3.15-0.63,3.1-2.03c-0.03-1.37-0.97-1.95-3.2-1.95c-3.59,0-7.2-0.06-10.79,0.01c-1.26,0.03-1.79-0.19-1.76-1.63
		c0.1-3.61,0.03-3.61,3.69-3.61h5.67c1.33,0.01,2.29-0.53,2.29-1.95c0.01-1.4-0.87-1.97-2.25-1.97c-2.68,0.03-5.37-0.04-8.06,0.04
		c-1.09,0.03-1.37-0.34-1.32-1.37c0.07-1.37,0.06-2.75-0.01-4.12c-0.04-0.92,0.29-1.19,1.19-1.13c0.96,0.07,1.93,0.06,2.9-0.01
		c1.12-0.07,1.83-0.7,1.85-1.85c0.03-1.2-0.63-1.92-1.85-2.06c-0.11-0.01-0.23,0-0.34-0.01c-1.22-0.16-3.18,0.56-3.51-0.33
		c-0.57-1.57-0.21-3.49-0.19-5.25c0.01-0.82,0.73-0.54,1.19-0.56c3.65-0.01,7.31-0.03,10.96,0c1.36,0.01,2.42-0.3,2.52-1.87
		c0.1-1.34-0.76-2.03-2.53-2.03c-3.48-0.01-6.97-0.06-10.44,0.01c-1.27,0.03-1.89-0.19-1.75-1.65c0.16-1.63-0.53-3.85,0.3-4.79
		c0.96-1.1,3.2-0.26,4.89-0.36c0.52-0.04,1.03,0,1.55-0.01c1.29-0.03,2.09-0.66,2.12-1.96c0.03-1.33-0.86-1.96-2.09-2
		c-1.83-0.06-3.66-0.06-5.48,0c-0.96,0.04-1.23-0.23-1.29-1.23c-0.27-4.85,1.09-5.95,5.65-4.39c7.17,2.43,14.44,4.59,21.68,6.82
		c0.89,0.27,1.24,0.57,1.24,1.6c-0.06,8.11-0.03,16.22-0.03,24.34h0.01C67.5,284.49,67.48,292.66,67.53,300.83z"/>
	<path class="st1" d="M350.21,448.32c-0.89,2.02-1.78,4.04-2.67,6.06c-15.43,2.7-34.1,4.81-55.31,4.81
		c-21.21,0-39.88-2.11-55.31-4.81c-0.89-2.02-1.78-4.04-2.67-6.06c16.2,2.82,35.76,5.01,57.98,5.01
		C314.44,453.34,334.01,451.14,350.21,448.32z"/>
	<path class="st1" d="M335.71,382.73c15.01-3.96,30.47-6.07,45.99-6.27c-0.16,0.77-0.33,1.51-0.54,2.22
		c-0.99,3.55-2.46,6.41-3.73,8.45c-0.28,0.45-0.55,0.86-0.8,1.23c-8.08,18.35-16.17,36.71-24.26,55.06l-2.93,0.51
		c-18.84,3.28-38.08,4.94-57.21,4.94c-19.12,0-38.37-1.66-57.22-4.94l-2.92-0.51c-8.09-18.35-16.17-36.71-24.26-55.06
		c-0.25-0.37-0.53-0.79-0.81-1.24c-1.27-2.05-2.74-4.9-3.73-8.44c-0.1-0.34-0.19-0.7-0.28-1.06c12.85-0.15,25.68,1.23,38.17,4.1
		c16.95,3.9,33.12,10.51,48.05,19.62l0.45,0.27l0.46-0.26C304.45,393.21,319.78,386.94,335.71,382.73z"/>
	<g>
		<defs>
			<path id="SVGID_1_" d="M382.02,374.54c0,0.04-0.01,0.09-0.02,0.13c-15.78,0.18-31.5,2.31-46.75,6.34
				c-15.91,4.2-31.23,10.44-45.54,18.55c-14.97-9.07-31.16-15.66-48.13-19.56c-12.74-2.94-25.83-4.33-38.95-4.14
				c-0.08-0.43-0.15-0.87-0.21-1.31c0,0-1.06-7.8,2.01-16.2c3.51-9.59,32.73-28.87,52.36-44.98c21.56-17.69,23.3-26.19,34.33-26.43
				c11.08-0.25,13.41,8.25,36.53,26.43c23.54,18.52,48.89,35.47,52.36,44.98C383.09,366.74,382.02,374.54,382.02,374.54z"/>
		</defs>
		<clipPath id="SVGID_00000027576135250587061370000015930528380325644442_">
			<use xlink:href="#SVGID_1_"  style="overflow:visible;"/>
		</clipPath>
		<g style="clip-path:url(#SVGID_00000027576135250587061370000015930528380325644442_);">
			<g>
				<circle class="st5" cx="360.23" cy="399.55" r="2.66"/>
			</g>
			<g>
				<circle class="st5" cx="351.3" cy="399.55" r="2.66"/>
			</g>
			<g>
				<circle class="st5" cx="342.38" cy="399.55" r="2.66"/>
			</g>
			<g>
				<circle class="st5" cx="333.46" cy="399.55" r="2.66"/>
			</g>
			<g>
				<circle class="st5" cx="324.53" cy="399.55" r="2.66"/>
			</g>
			<g>
				<circle class="st5" cx="315.61" cy="399.55" r="2.66"/>
			</g>
			<g>
				<circle class="st5" cx="306.69" cy="399.55" r="2.66"/>
			</g>
			<g>
				<circle class="st5" cx="297.76" cy="399.55" r="2.66"/>
			</g>
			<g>
				<circle class="st5" cx="288.84" cy="399.55" r="2.66"/>
			</g>
			<g>
				<circle class="st5" cx="279.92" cy="399.55" r="2.66"/>
			</g>
			<g>
				<circle class="st5" cx="270.99" cy="399.55" r="2.66"/>
			</g>
			<g>
				<circle class="st5" cx="262.07" cy="399.55" r="2.66"/>
			</g>
			<g>
				<circle class="st5" cx="253.15" cy="399.55" r="2.66"/>
			</g>
			<g>
				<circle class="st5" cx="244.22" cy="399.55" r="2.66"/>
			</g>
			<g>
				<circle class="st5" cx="235.3" cy="399.55" r="2.66"/>
			</g>
			<g>
				<circle class="st5" cx="226.38" cy="399.55" r="2.66"/>
			</g>
		</g>
		<g style="clip-path:url(#SVGID_00000027576135250587061370000015930528380325644442_);">
			<g>
				<circle class="st5" cx="360.23" cy="390.01" r="2.66"/>
			</g>
			<g>
				<circle class="st5" cx="351.3" cy="390.01" r="2.66"/>
			</g>
			<g>
				<circle class="st5" cx="342.38" cy="390.01" r="2.66"/>
			</g>
			<g>
				<circle class="st5" cx="333.46" cy="390.01" r="2.66"/>
			</g>
			<g>
				<circle class="st5" cx="324.53" cy="390.01" r="2.66"/>
			</g>
			<g>
				<circle class="st5" cx="315.61" cy="390.01" r="2.66"/>
			</g>
			<g>
				<circle class="st5" cx="306.69" cy="390.01" r="2.66"/>
			</g>
			<g>
				<circle class="st5" cx="297.76" cy="390.01" r="2.66"/>
			</g>
			<g>
				<circle class="st5" cx="288.84" cy="390.01" r="2.66"/>
			</g>
			<g>
				<circle class="st5" cx="279.92" cy="390.01" r="2.66"/>
			</g>
			<g>
				<circle class="st5" cx="270.99" cy="390.01" r="2.66"/>
			</g>
			<g>
				<circle class="st5" cx="262.07" cy="390.01" r="2.66"/>
			</g>
			<g>
				<circle class="st5" cx="253.15" cy="390.01" r="2.66"/>
			</g>
			<g>
				<circle class="st5" cx="244.22" cy="390.01" r="2.66"/>
			</g>
			<g>
				<circle class="st5" cx="235.3" cy="390.01" r="2.66"/>
			</g>
			<g>
				<circle class="st5" cx="226.38" cy="390.01" r="2.66"/>
			</g>
		</g>
		<g style="clip-path:url(#SVGID_00000027576135250587061370000015930528380325644442_);">
			<g>
				<circle class="st5" cx="360.23" cy="381.23" r="2.66"/>
			</g>
			<g>
				<circle class="st5" cx="351.3" cy="381.23" r="2.66"/>
			</g>
			<g>
				<circle class="st5" cx="342.38" cy="381.23" r="2.66"/>
			</g>
			<g>
				<circle class="st5" cx="333.46" cy="381.23" r="2.66"/>
			</g>
			<g>
				<circle class="st5" cx="324.53" cy="381.23" r="2.66"/>
			</g>
			<g>
				<circle class="st5" cx="315.61" cy="381.23" r="2.66"/>
			</g>
			<g>
				<circle class="st5" cx="306.69" cy="381.23" r="2.66"/>
			</g>
			<g>
				<circle class="st5" cx="297.76" cy="381.23" r="2.66"/>
			</g>
			<g>
				<circle class="st5" cx="288.84" cy="381.23" r="2.66"/>
			</g>
			<g>
				<circle class="st5" cx="279.92" cy="381.23" r="2.66"/>
			</g>
			<g>
				<circle class="st5" cx="270.99" cy="381.23" r="2.66"/>
			</g>
			<g>
				<circle class="st5" cx="262.07" cy="381.23" r="2.66"/>
			</g>
			<g>
				<circle class="st5" cx="253.15" cy="381.23" r="2.66"/>
			</g>
			<g>
				<circle class="st5" cx="244.22" cy="381.23" r="2.66"/>
			</g>
			<g>
				<circle class="st5" cx="235.3" cy="381.23" r="2.66"/>
			</g>
			<g>
				<circle class="st5" cx="226.38" cy="381.23" r="2.66"/>
			</g>
		</g>
		<g style="clip-path:url(#SVGID_00000027576135250587061370000015930528380325644442_);">
			<g>
				<circle class="st5" cx="360.23" cy="371.69" r="2.66"/>
			</g>
			<g>
				<circle class="st5" cx="368.15" cy="371.69" r="2.66"/>
			</g>
			<g>
				<circle class="st5" cx="376.33" cy="371.69" r="2.66"/>
			</g>
			<g>
				<circle class="st5" cx="351.3" cy="371.69" r="2.66"/>
			</g>
			<g>
				<circle class="st5" cx="342.38" cy="371.69" r="2.66"/>
			</g>
			<g>
				<circle class="st5" cx="333.46" cy="371.69" r="2.66"/>
			</g>
			<g>
				<circle class="st5" cx="324.53" cy="371.69" r="2.66"/>
			</g>
			<g>
				<circle class="st5" cx="315.61" cy="371.69" r="2.66"/>
			</g>
			<g>
				<circle class="st5" cx="306.69" cy="371.69" r="2.66"/>
			</g>
			<g>
				<circle class="st5" cx="297.76" cy="371.69" r="2.66"/>
			</g>
			<g>
				<circle class="st5" cx="288.84" cy="371.69" r="2.66"/>
			</g>
			<g>
				<circle class="st5" cx="279.92" cy="371.69" r="2.66"/>
			</g>
			<g>
				<circle class="st5" cx="270.99" cy="371.69" r="2.66"/>
			</g>
			<g>
				<circle class="st5" cx="262.07" cy="371.69" r="2.66"/>
			</g>
			<g>
				<circle class="st5" cx="253.15" cy="371.69" r="2.66"/>
			</g>
			<g>
				<circle class="st5" cx="244.22" cy="371.69" r="2.66"/>
			</g>
			<g>
				<circle class="st5" cx="235.3" cy="371.69" r="2.66"/>
			</g>
			<g>
				<circle class="st5" cx="226.38" cy="371.69" r="2.66"/>
			</g>
			<g>
				<circle class="st5" cx="217.78" cy="371.69" r="2.66"/>
			</g>
			<g>
				<circle class="st5" cx="208.42" cy="371.69" r="2.66"/>
			</g>
		</g>
		<g style="clip-path:url(#SVGID_00000027576135250587061370000015930528380325644442_);">
			<g>
				<circle class="st5" cx="360.23" cy="362.15" r="2.66"/>
			</g>
			<g>
				<circle class="st5" cx="368.15" cy="362.15" r="2.66"/>
			</g>
			<g>
				<circle class="st5" cx="375.87" cy="362.15" r="2.66"/>
			</g>
			<g>
				<circle class="st5" cx="351.3" cy="362.15" r="2.66"/>
			</g>
			<g>
				<circle class="st5" cx="342.38" cy="362.15" r="2.66"/>
			</g>
			<g>
				<circle class="st5" cx="333.46" cy="362.15" r="2.66"/>
			</g>
			<g>
				<circle class="st5" cx="324.53" cy="362.15" r="2.66"/>
			</g>
			<g>
				<circle class="st5" cx="315.61" cy="362.15" r="2.66"/>
			</g>
			<g>
				<circle class="st5" cx="306.69" cy="362.15" r="2.66"/>
			</g>
			<g>
				<circle class="st5" cx="297.76" cy="362.15" r="2.66"/>
			</g>
			<g>
				<circle class="st5" cx="288.84" cy="362.15" r="2.66"/>
			</g>
			<g>
				<circle class="st5" cx="279.92" cy="362.15" r="2.66"/>
			</g>
			<g>
				<circle class="st5" cx="270.99" cy="362.15" r="2.66"/>
			</g>
			<g>
				<circle class="st5" cx="262.07" cy="362.15" r="2.66"/>
			</g>
			<g>
				<circle class="st5" cx="253.15" cy="362.15" r="2.66"/>
			</g>
			<g>
				<circle class="st5" cx="244.22" cy="362.15" r="2.66"/>
			</g>
			<g>
				<circle class="st5" cx="235.3" cy="362.15" r="2.66"/>
			</g>
			<g>
				<circle class="st5" cx="226.38" cy="362.15" r="2.66"/>
			</g>
			<g>
				<circle class="st5" cx="218.44" cy="362.15" r="2.66"/>
			</g>
			<g>
				<circle class="st5" cx="209.51" cy="362.15" r="2.66"/>
			</g>
		</g>
		<g style="clip-path:url(#SVGID_00000027576135250587061370000015930528380325644442_);">
			<g>
				<circle class="st5" cx="360.23" cy="352.6" r="2.66"/>
			</g>
			<g>
				<circle class="st5" cx="369.8" cy="352.6" r="2.66"/>
			</g>
			<g>
				<circle class="st5" cx="351.3" cy="352.6" r="2.66"/>
			</g>
			<g>
				<circle class="st5" cx="342.38" cy="352.6" r="2.66"/>
			</g>
			<g>
				<circle class="st5" cx="333.46" cy="352.6" r="2.66"/>
			</g>
			<g>
				<circle class="st5" cx="324.53" cy="352.6" r="2.66"/>
			</g>
			<g>
				<circle class="st5" cx="315.61" cy="352.6" r="2.66"/>
			</g>
			<g>
				<circle class="st5" cx="306.69" cy="352.6" r="2.66"/>
			</g>
			<g>
				<circle class="st5" cx="297.76" cy="352.6" r="2.66"/>
			</g>
			<g>
				<circle class="st5" cx="288.84" cy="352.6" r="2.66"/>
			</g>
			<g>
				<circle class="st5" cx="279.92" cy="352.6" r="2.66"/>
			</g>
			<g>
				<circle class="st5" cx="270.99" cy="352.6" r="2.66"/>
			</g>
			<g>
				<circle class="st5" cx="262.07" cy="352.6" r="2.66"/>
			</g>
			<g>
				<circle class="st5" cx="253.15" cy="352.6" r="2.66"/>
			</g>
			<g>
				<circle class="st5" cx="244.22" cy="352.6" r="2.66"/>
			</g>
			<g>
				<circle class="st5" cx="235.3" cy="352.6" r="2.66"/>
			</g>
			<g>
				<circle class="st5" cx="226.38" cy="352.6" r="2.66"/>
			</g>
			<g>
				<circle class="st5" cx="215.78" cy="352.6" r="2.66"/>
			</g>
		</g>
		<g style="clip-path:url(#SVGID_00000027576135250587061370000015930528380325644442_);">
			<g>
				<circle class="st5" cx="360.23" cy="343.06" r="2.66"/>
			</g>
			<g>
				<circle class="st5" cx="351.3" cy="343.06" r="2.66"/>
			</g>
			<g>
				<circle class="st5" cx="342.38" cy="343.06" r="2.66"/>
			</g>
			<g>
				<circle class="st5" cx="333.46" cy="343.06" r="2.66"/>
			</g>
			<g>
				<circle class="st5" cx="324.53" cy="343.06" r="2.66"/>
			</g>
			<g>
				<circle class="st5" cx="315.61" cy="343.06" r="2.66"/>
			</g>
			<g>
				<circle class="st5" cx="306.69" cy="343.06" r="2.66"/>
			</g>
			<g>
				<circle class="st5" cx="297.76" cy="343.06" r="2.66"/>
			</g>
			<g>
				<circle class="st5" cx="288.84" cy="343.06" r="2.66"/>
			</g>
			<g>
				<circle class="st5" cx="279.92" cy="343.06" r="2.66"/>
			</g>
			<g>
				<circle class="st5" cx="270.99" cy="343.06" r="2.66"/>
			</g>
			<g>
				<circle class="st5" cx="262.07" cy="343.06" r="2.66"/>
			</g>
			<g>
				<circle class="st5" cx="253.15" cy="343.06" r="2.66"/>
			</g>
			<g>
				<circle class="st5" cx="244.22" cy="343.06" r="2.66"/>
			</g>
			<g>
				<circle class="st5" cx="235.3" cy="343.06" r="2.66"/>
			</g>
			<g>
				<circle class="st5" cx="226.38" cy="343.06" r="2.66"/>
			</g>
		</g>
		<g style="clip-path:url(#SVGID_00000027576135250587061370000015930528380325644442_);">
			<g>
				<circle class="st5" cx="360.23" cy="333.52" r="2.66"/>
			</g>
			<g>
				<circle class="st5" cx="351.3" cy="333.52" r="2.66"/>
			</g>
			<g>
				<circle class="st5" cx="342.38" cy="333.52" r="2.66"/>
			</g>
			<g>
				<circle class="st5" cx="333.46" cy="333.52" r="2.66"/>
			</g>
			<g>
				<circle class="st5" cx="324.53" cy="333.52" r="2.66"/>
			</g>
			<g>
				<circle class="st5" cx="315.61" cy="333.52" r="2.66"/>
			</g>
			<g>
				<circle class="st5" cx="306.69" cy="333.52" r="2.66"/>
			</g>
			<g>
				<circle class="st5" cx="297.76" cy="333.52" r="2.66"/>
			</g>
			<g>
				<circle class="st5" cx="288.84" cy="333.52" r="2.66"/>
			</g>
			<g>
				<circle class="st5" cx="279.92" cy="333.52" r="2.66"/>
			</g>
			<g>
				<circle class="st5" cx="270.99" cy="333.52" r="2.66"/>
			</g>
			<g>
				<circle class="st5" cx="262.07" cy="333.52" r="2.66"/>
			</g>
			<g>
				<circle class="st5" cx="253.15" cy="333.52" r="2.66"/>
			</g>
			<g>
				<circle class="st5" cx="244.22" cy="333.52" r="2.66"/>
			</g>
			<g>
				<circle class="st5" cx="235.3" cy="333.52" r="2.66"/>
			</g>
			<g>
				<circle class="st5" cx="226.38" cy="333.52" r="2.66"/>
			</g>
		</g>
		<g style="clip-path:url(#SVGID_00000027576135250587061370000015930528380325644442_);">
			<g>
				<circle class="st5" cx="360.23" cy="323.98" r="2.66"/>
			</g>
			<g>
				<circle class="st5" cx="351.3" cy="323.98" r="2.66"/>
			</g>
			<g>
				<circle class="st5" cx="342.38" cy="323.98" r="2.66"/>
			</g>
			<g>
				<circle class="st5" cx="333.46" cy="323.98" r="2.66"/>
			</g>
			<g>
				<circle class="st5" cx="324.53" cy="323.98" r="2.66"/>
			</g>
			<g>
				<circle class="st5" cx="315.61" cy="323.98" r="2.66"/>
			</g>
			<g>
				<circle class="st5" cx="306.69" cy="323.98" r="2.66"/>
			</g>
			<g>
				<circle class="st5" cx="297.76" cy="323.98" r="2.66"/>
			</g>
			<g>
				<circle class="st5" cx="288.84" cy="323.98" r="2.66"/>
			</g>
			<g>
				<circle class="st5" cx="279.92" cy="323.98" r="2.66"/>
			</g>
			<g>
				<circle class="st5" cx="270.99" cy="323.98" r="2.66"/>
			</g>
			<g>
				<circle class="st5" cx="262.07" cy="323.98" r="2.66"/>
			</g>
			<g>
				<circle class="st5" cx="253.15" cy="323.98" r="2.66"/>
			</g>
			<g>
				<circle class="st5" cx="244.22" cy="323.98" r="2.66"/>
			</g>
			<g>
				<circle class="st5" cx="235.3" cy="323.98" r="2.66"/>
			</g>
			<g>
				<circle class="st5" cx="226.38" cy="323.98" r="2.66"/>
			</g>
		</g>
		<g style="clip-path:url(#SVGID_00000027576135250587061370000015930528380325644442_);">
			<g>
				<circle class="st5" cx="360.23" cy="314.43" r="2.66"/>
			</g>
			<g>
				<circle class="st5" cx="351.3" cy="314.43" r="2.66"/>
			</g>
			<g>
				<circle class="st5" cx="342.38" cy="314.43" r="2.66"/>
			</g>
			<g>
				<circle class="st5" cx="333.46" cy="314.43" r="2.66"/>
			</g>
			<g>
				<circle class="st5" cx="324.53" cy="314.43" r="2.66"/>
			</g>
			<g>
				<circle class="st5" cx="315.61" cy="314.43" r="2.66"/>
			</g>
			<g>
				<circle class="st5" cx="306.69" cy="314.43" r="2.66"/>
			</g>
			<g>
				<circle class="st5" cx="297.76" cy="314.43" r="2.66"/>
			</g>
			<g>
				<circle class="st5" cx="288.84" cy="314.43" r="2.66"/>
			</g>
			<g>
				<circle class="st5" cx="279.92" cy="314.43" r="2.66"/>
			</g>
			<g>
				<circle class="st5" cx="270.99" cy="314.43" r="2.66"/>
			</g>
			<g>
				<circle class="st5" cx="262.07" cy="314.43" r="2.66"/>
			</g>
			<g>
				<circle class="st5" cx="253.15" cy="314.43" r="2.66"/>
			</g>
			<g>
				<circle class="st5" cx="244.22" cy="314.43" r="2.66"/>
			</g>
			<g>
				<circle class="st5" cx="235.3" cy="314.43" r="2.66"/>
			</g>
			<g>
				<circle class="st5" cx="226.38" cy="314.43" r="2.66"/>
			</g>
		</g>
		<g style="clip-path:url(#SVGID_00000027576135250587061370000015930528380325644442_);">
			<g>
				<circle class="st5" cx="360.23" cy="304.89" r="2.66"/>
			</g>
			<g>
				<circle class="st5" cx="351.3" cy="304.89" r="2.66"/>
			</g>
			<g>
				<circle class="st5" cx="342.38" cy="304.89" r="2.66"/>
			</g>
			<g>
				<circle class="st5" cx="333.46" cy="304.89" r="2.66"/>
			</g>
			<g>
				<circle class="st5" cx="324.53" cy="304.89" r="2.66"/>
			</g>
			<g>
				<circle class="st5" cx="315.61" cy="304.89" r="2.66"/>
			</g>
			<g>
				<circle class="st5" cx="306.69" cy="304.89" r="2.66"/>
			</g>
			<g>
				<circle class="st5" cx="297.76" cy="304.89" r="2.66"/>
			</g>
			<g>
				<circle class="st5" cx="288.84" cy="304.89" r="2.66"/>
			</g>
			<g>
				<circle class="st5" cx="279.92" cy="304.89" r="2.66"/>
			</g>
			<g>
				<circle class="st5" cx="270.99" cy="304.89" r="2.66"/>
			</g>
			<g>
				<circle class="st5" cx="262.07" cy="304.89" r="2.66"/>
			</g>
			<g>
				<circle class="st5" cx="253.15" cy="304.89" r="2.66"/>
			</g>
			<g>
				<circle class="st5" cx="244.22" cy="304.89" r="2.66"/>
			</g>
			<g>
				<circle class="st5" cx="235.3" cy="304.89" r="2.66"/>
			</g>
			<g>
				<circle class="st5" cx="226.38" cy="304.89" r="2.66"/>
			</g>
		</g>
		<g style="clip-path:url(#SVGID_00000027576135250587061370000015930528380325644442_);">
			<g>
				<circle class="st5" cx="360.23" cy="295.35" r="2.66"/>
			</g>
			<g>
				<circle class="st5" cx="351.3" cy="295.35" r="2.66"/>
			</g>
			<g>
				<circle class="st5" cx="342.38" cy="295.35" r="2.66"/>
			</g>
			<g>
				<circle class="st5" cx="333.46" cy="295.35" r="2.66"/>
			</g>
			<g>
				<circle class="st5" cx="324.53" cy="295.35" r="2.66"/>
			</g>
			<g>
				<circle class="st5" cx="315.61" cy="295.35" r="2.66"/>
			</g>
			<g>
				<circle class="st5" cx="306.69" cy="295.35" r="2.66"/>
			</g>
			<g>
				<circle class="st5" cx="297.76" cy="295.35" r="2.66"/>
			</g>
			<g>
				<circle class="st5" cx="288.84" cy="295.35" r="2.66"/>
			</g>
			<g>
				<circle class="st5" cx="292.72" cy="289.58" r="2.66"/>
			</g>
			<g>
				<circle class="st5" cx="279.92" cy="295.35" r="2.66"/>
			</g>
			<g>
				<circle class="st5" cx="270.99" cy="295.35" r="2.66"/>
			</g>
			<g>
				<circle class="st5" cx="262.07" cy="295.35" r="2.66"/>
			</g>
			<g>
				<circle class="st5" cx="253.15" cy="295.35" r="2.66"/>
			</g>
			<g>
				<circle class="st5" cx="244.22" cy="295.35" r="2.66"/>
			</g>
			<g>
				<circle class="st5" cx="235.3" cy="295.35" r="2.66"/>
			</g>
			<g>
				<circle class="st5" cx="226.38" cy="295.35" r="2.66"/>
			</g>
		</g>
	</g>
</g>
</svg>
