<?xml version="1.0" encoding="utf-8"?>
<!-- Generator: Adobe Illustrator 26.5.0, SVG Export Plug-In . SVG Version: 6.00 Build 0)  -->
<svg version="1.1" id="Layer_4" xmlns="http://www.w3.org/2000/svg" xmlns:xlink="http://www.w3.org/1999/xlink" x="0px" y="0px"
	 viewBox="0 0 500 500" style="enable-background:new 0 0 500 500;" xml:space="preserve">
<style type="text/css">
	.st0{fill:#D09230;}
	.st1{fill:#FFFFFF;}
</style>
<rect class="st0" width="500" height="500"/>
<g>
	<path class="st1" d="M430.77,205.93c0-4.36-1.19-7.96-3.8-11.41c-10.85-14.35-21.47-28.86-32.49-43.07
		c-3.34-4.31-4.91-8.43-3.5-13.74c1.65-6.22-0.73-11.18-5.14-15.51c-5.88-5.77-11.68-11.63-17.49-17.47
		c-3.26-3.26-3.26-3.34-0.1-6.51c5.82-5.84,11.66-11.65,17.48-17.49c2.31-2.32,4.27-4.91,5.24-8.09c2.12-6.9-3.11-14.24-10.31-14.7
		c-4.67-0.29-8.47,1.1-11.76,4.51c-6.08,6.28-12.4,12.32-18.48,18.6c-2.13,2.21-3.65,2.26-5.81,0.02
		c-5.9-6.1-12.15-11.88-17.92-18.1c-3.99-4.31-8.66-5.46-14.18-4.98c-16.3,1.44-32.39,4.4-48.59,6.62
		c-18.42,2.52-36.8,5.44-55.25,7.75c-6.57,0.82-11.93,3.21-16.74,8.03C148.54,124.07,105,167.59,61.37,211.02
		c-7.53,7.5-13.55,15.58-14.82,26.46v13.49c0.82,3.86,1.24,7.74,3.09,11.41c2.9,5.8,6.88,10.7,11.39,15.21
		c36.18,36.22,72.4,72.42,108.59,108.62c2.92,2.93,5.75,5.94,9.17,8.26c0.32,0.22,0.61,0.45,0.88,0.68c0,0,0.01,0,0.01,0.01
		c1.27,1.12,1.95,2.43,2.24,4c0.14,0.71,0.2,1.48,0.2,2.3c-0.01,7.79,2.1,15.1,6.36,21.62c7.18,11,16.97,18.05,30.47,19.02h175.41
		c5.74-0.53,11.29-1.69,16.24-4.9c12.93-8.4,20.18-19.85,20.16-35.72C430.64,336.3,430.68,271.12,430.77,205.93z M74.99,258.19
		c-3.81-3.8-5.85-8.29-5.98-13.3c0.07-6.21,2.62-10.82,6.7-14.89c29.89-29.81,59.73-59.69,89.57-89.53
		c14.14-14.14,28.28-28.25,42.38-42.42c1.39-1.39,2.83-2.08,4.83-2.37c32.25-4.55,64.47-9.19,96.7-13.87c1.8-0.26,3.02,0.1,4.29,1.4
		c5.41,5.53,10.88,11.02,16.42,16.42c1.35,1.32,1.49,2.07,0.04,3.46c-4.25,4.05-8.39,8.21-12.45,12.45
		c-1.34,1.41-2.18,1.59-3.54,0.06c-1.9-2.15-3.99-4.15-6.07-6.11c-4.79-4.51-11.75-4.5-16.13-0.02c-4.28,4.38-4.36,11.18,0.2,15.82
		c10.51,10.69,21.1,21.3,31.81,31.79c4.61,4.51,11.48,4.28,15.81-0.11c4.28-4.34,4.28-11.17-0.08-15.86
		c-1.95-2.1-3.98-4.15-6.09-6.09c-1.34-1.23-1.73-2.04-0.16-3.54c4.35-4.12,8.59-8.36,12.71-12.7c1.36-1.43,2.03-1.07,3.21,0.12
		c5.51,5.62,11.06,11.2,16.7,16.69c1.37,1.33,1.39,2.59,1.14,4.33c-4.66,32.22-9.26,64.45-13.8,96.69c-0.24,1.71-0.8,3-2.02,4.22
		c-44.45,44.4-88.85,88.85-133.31,133.24c-7.9,7.89-19.11,7.83-27.06-0.1C152.17,335.39,113.6,296.76,74.99,258.19z M388.95,419.6
		c-54.85,0.05-109.69,0.04-164.54,0c-9.23,0-16.74-6.26-18.57-14.94c-0.39-1.84-0.06-2.38,1.8-2.53
		c11.67-0.94,20.8-6.63,28.93-14.81c44.25-44.46,88.63-88.77,133.03-133.06c3.18-3.18,4.78-6.72,5.38-11.14
		c2.93-21.51,6.07-42.99,9.15-64.48c0.03-0.22,0.21-0.41,0.64-1.2c7.6,10.16,14.99,20.04,22.42,29.87c0.78,1.04,0.67,2.1,0.67,3.2
		c0.01,63.46,0.04,126.93-0.02,190.39C407.82,411.47,399.58,419.59,388.95,419.6z"/>
	<path class="st1" d="M199.54,315.62c11.49-34.37,22.94-68.74,34.41-103.11c5.95-17.83,11.94-35.65,17.85-53.5
		c2.45-7.4-1.12-14.14-8.18-15.67c-5.85-1.27-11.1,2.3-13.38,9.17c-13.26,39.79-26.52,79.59-39.78,119.38
		c-4.14,12.4-8.33,24.77-12.39,37.2c-2.65,8.11,2.42,15.51,10.46,15.47C193.88,324.51,197.55,321.6,199.54,315.62z"/>
	<path class="st1" d="M151.65,200.11c-18.56-0.15-33.87,14.99-33.94,33.58c-0.08,18.71,14.87,33.77,33.57,33.85
		c18.62,0.07,33.84-15.07,33.85-33.67C185.14,215.52,170.01,200.27,151.65,200.11z M151.16,245.05c-6.16-0.1-11.02-5.11-10.97-11.29
		c0.06-6.1,5.15-11.18,11.2-11.16c6.15,0.01,11.46,5.48,11.25,11.57C162.43,240.28,157.3,245.15,151.16,245.05z"/>
	<path class="st1" d="M278.84,267.53c18.49-0.09,33.4-15.11,33.43-33.65c0.03-18.55-15.25-33.83-33.78-33.78
		c-18.55,0.06-33.71,15.39-33.58,33.95C245.04,252.77,260.11,267.64,278.84,267.53z M278.69,222.59c6.05,0.09,11.12,5.25,11.1,11.3
		c-0.02,6.12-5.03,11.14-11.15,11.16c-6.17,0.03-11.16-4.87-11.25-11.02C267.3,227.81,272.54,222.5,278.69,222.59z"/>
</g>
</svg>
