<?xml version="1.0" encoding="utf-8"?>
<!-- Generator: Adobe Illustrator 27.2.0, SVG Export Plug-In . SVG Version: 6.00 Build 0)  -->
<svg version="1.1" id="Layer_1" xmlns="http://www.w3.org/2000/svg" xmlns:xlink="http://www.w3.org/1999/xlink" x="0px" y="0px"
	 viewBox="0 0 500 117.6" style="enable-background:new 0 0 500 117.6;" xml:space="preserve">
<style type="text/css">
	.st0{fill:#D09230;}
	.st1{fill:#FFFFFF;}
</style>
<g>
	<polygon class="st0" points="474.9,58.8 500,117.6 25.2,117.6 0,58.8 25.2,0 500,0 	"/>
	<ellipse class="st1" cx="424.5" cy="58.8" rx="36.2" ry="36.8"/>
	<g>
		<path d="M436.6,69.3c-0.9,3-1.6,6-2.3,8.9h-24.5v-1.5c3.6-3.5,7.3-7.1,10.4-10.9c4-4.7,8-9.9,8-15.3c0-5.3-2.8-8.4-7.5-8.4
			c-4.4,0-7.2,3.5-8.9,6.1l-1.5-1.4l3.9-5.5c2.1-2.2,5.1-3.8,8.8-3.8c5.9,0,11.1,4.2,11.1,11c0,5.5-2.4,9.2-8.6,15.6l-8.9,9.1h11.8
			c3.6,0,4.3-0.2,6.4-4.4L436.6,69.3z"/>
	</g>
</g>
</svg>
