<?xml version="1.0" encoding="utf-8"?>
<!-- Generator: Adobe Illustrator 27.2.0, SVG Export Plug-In . SVG Version: 6.00 Build 0)  -->
<svg version="1.1" id="Layer_1" xmlns="http://www.w3.org/2000/svg" xmlns:xlink="http://www.w3.org/1999/xlink" x="0px" y="0px"
	 viewBox="0 0 500 117.6" style="enable-background:new 0 0 500 117.6;" xml:space="preserve">
<style type="text/css">
	.st0{fill:#D09230;}
	.st1{fill:#FFFFFF;}
</style>
<g>
	<polygon class="st0" points="474.9,58.8 500,117.6 25.3,117.6 0.2,58.8 25.3,0 500,0 	"/>
	<ellipse class="st1" cx="420.9" cy="58.8" rx="36.1" ry="36.8"/>
	<g>
		<path d="M417.7,54c1.5-0.7,2.7-1.1,4-1.1c7,0,11.8,5.2,11.8,11.9c0,7.7-5.7,14.2-13.4,14.2c-7.7,0-13.6-6.2-13.6-16.1
			c0-14.1,9.9-21.3,16.8-23.8c2.6-0.9,6-1.7,8.5-2.1l0.4,2.1c-2.1,0.4-4.7,1.2-7,2.2c-3.8,1.8-9.9,5.9-11.8,14.7L417.7,54z
			 M418.9,56.7c-2.3,0-4.3,0.8-5.8,1.6c-0.3,1.2-0.4,3-0.4,4.5c0,7.8,3.3,13.9,8.3,13.9c4.9,0,6.4-5.3,6.4-9.5
			C427.5,61.8,424.6,56.7,418.9,56.7L418.9,56.7z"/>
	</g>
</g>
</svg>
