<?xml version="1.0" encoding="utf-8"?>
<!-- Generator: Adobe Illustrator 27.3.1, SVG Export Plug-In . SVG Version: 6.00 Build 0)  -->
<svg version="1.1" id="Layer_1" xmlns="http://www.w3.org/2000/svg" xmlns:xlink="http://www.w3.org/1999/xlink" x="0px" y="0px"
	 width="550.2px" height="117.6px" viewBox="0 0 550.2 117.6" style="enable-background:new 0 0 550.2 117.6;" xml:space="preserve"
	>
<style type="text/css">
	.st0{fill:#C1ED9A;}
	.st1{fill:#FFFFFF;}
</style>
<g>
	<polygon class="st0" points="525.1,58.8 550.2,117.6 25.1,117.6 0,58.8 25.1,0 550.2,0 	"/>
	<ellipse class="st1" cx="472.9" cy="58.8" rx="36.1" ry="36.8"/>
	<g>
		<path d="M479.9,66.8v4.4c0,4.3,0.3,4.7,5.5,5.2v1.8h-17.1v-1.8c5.7-0.5,6-1,6-5.2v-4.3h-16.8v-2c6.4-9.4,12.9-18.6,19.5-27.2h2.9
			v26h6.2v3.2L479.9,66.8L479.9,66.8z M474.3,45.1h-0.1c-4,5.3-8.1,11.5-12.5,18.6h12.6V45.1z"/>
	</g>
</g>
</svg>
