<?xml version="1.0" encoding="utf-8"?>
<!-- Generator: Adobe Illustrator 27.3.1, SVG Export Plug-In . SVG Version: 6.00 Build 0)  -->
<svg version="1.1" id="Layer_1" xmlns="http://www.w3.org/2000/svg" xmlns:xlink="http://www.w3.org/1999/xlink" x="0px" y="0px"
	 width="550.1px" height="117.6px" viewBox="0 0 550.1 117.6" style="enable-background:new 0 0 550.1 117.6;" xml:space="preserve"
	>
<style type="text/css">
	.st0{fill:#339933;}
	.st1{fill:#FFFFFF;}
	.st2{fill:#D09230;}
</style>
<g>
	<polygon class="st0" points="550.1,0.1 550.1,117.5 25.6,117.5 0,58.8 25.6,0.1 	"/>
	<circle class="st1" cx="497.7" cy="58.8" r="36.8"/>
	<path class="st2" d="M517.2,39.6c-0.4,0-0.7,0.1-1.1,0.3c-2.3,1.5-4.4,3.2-6.5,4.9c-2.7,2.2-5.2,4.5-7.7,6.9c0,0,0,0.1-0.1,0.1
		c-4.8,4.7-9.2,9.7-13.2,15c-0.4,0.5-0.6,0.4-1,0.1c-3.7-2.6-7.5-5.2-11.2-7.9c-0.4-0.3-0.6-0.3-1,0.1c-0.9,1-1.9,2-2.9,2.9
		c-0.5,0.4-0.5,0.7-0.1,1.2c5,6.9,10,13.8,14.6,21c0.4,0.7,0.8,1.4,1.3,2.1c0.1-0.2,0.2-0.3,0.3-0.4c3.8-6.5,7.8-12.8,12-18.9
		c2.1-3.1,4.3-6.2,6.6-9.2c0.4-0.5,0.7-1,1.1-1.4c4.2-5.5,8.7-10.8,13.8-15.5c0.4-0.3,0.7-0.7,1.2-1.1
		C521.1,39.6,519.1,39.6,517.2,39.6z"/>
</g>
</svg>
