<?xml version="1.0" encoding="utf-8"?>
<!-- Generator: Adobe Illustrator 26.5.0, SVG Export Plug-In . SVG Version: 6.00 Build 0)  -->
<svg version="1.1" id="Layer_4" xmlns="http://www.w3.org/2000/svg" xmlns:xlink="http://www.w3.org/1999/xlink" x="0px" y="0px"
	 viewBox="0 0 500 500" style="enable-background:new 0 0 500 500;" xml:space="preserve">
<style type="text/css">
	.st0{fill:url(#SVGID_1_);}
	.st1{fill:url(#SVGID_00000036939609246060658720000005699468334080826298_);}
	.st2{fill:url(#SVGID_00000062168923888826617350000014258631081335134104_);}
	.st3{fill:#FFFFFF;}
	.st4{fill:url(#SVGID_00000180344727284684563690000011100204107475656105_);}
	.st5{fill:url(#SVGID_00000036963031926409586190000014837296162339287463_);}
	.st6{fill:url(#SVGID_00000091008277234325458480000004740476947099197866_);}
</style>
<path d="M38.26,355.36c-3.83,0.48-13.12,0.02-15.36,0H38.26z"/>
<linearGradient id="SVGID_1_" gradientUnits="userSpaceOnUse" x1="28.4253" y1="330.825" x2="28.4253" y2="355.3632">
	<stop  offset="0" style="stop-color:#F2AA35"/>
	<stop  offset="0.4002" style="stop-color:#D19230"/>
	<stop  offset="1" style="stop-color:#996A28"/>
</linearGradient>
<path class="st0" d="M35.01,343.09c0.13,3.6-1.86,6.49-1.86,6.49s-0.34,0.53-0.72,1.02c-0.79,0.99,8.78,3.52,7.29,4.4
	c-0.27,0.16-0.77,0.27-1.47,0.36H22.74c-6.77,0-12.27-5.5-12.27-12.27v-0.13c0.08-6.73,5.54-12.13,12.27-12.13
	c2.05,0,21.3,0,22.88,0.85C49.85,333.95,34.87,339.14,35.01,343.09z"/>
<linearGradient id="SVGID_00000134928023180131869540000004174621954057112468_" gradientUnits="userSpaceOnUse" x1="47.8694" y1="470.593" x2="489.0555" y2="29.407">
	<stop  offset="0" style="stop-color:#1E7030"/>
	<stop  offset="0.9925" style="stop-color:#439A35"/>
	<stop  offset="1" style="stop-color:#439A35"/>
</linearGradient>
<path style="fill:url(#SVGID_00000134928023180131869540000004174621954057112468_);" d="M489.52,470.13H59.56
	c-16.21,0-29.48-13.26-29.48-29.48V59.35c0-16.21,13.26-29.48,29.48-29.48h429.96V470.13z"/>
<linearGradient id="SVGID_00000091008130340189719820000005515908545185345716_" gradientUnits="userSpaceOnUse" x1="250" y1="343.0941" x2="250" y2="432.7838">
	<stop  offset="0" style="stop-color:#F2AA35"/>
	<stop  offset="0.4002" style="stop-color:#D19230"/>
	<stop  offset="1" style="stop-color:#996A28"/>
</linearGradient>
<path style="fill:url(#SVGID_00000091008130340189719820000005515908545185345716_);" d="M489.52,355.36v77.42H27.27
	c-9.27,0-16.79-7.51-16.79-16.79v-72.9c0,6.77,5.5,12.27,12.27,12.27H489.52z"/>
<path class="st3" d="M385.97,287.53c19.24-19.49,31.13-46.26,31.13-75.81c0-59.59-48.3-107.89-107.89-107.89
	s-107.89,48.3-107.89,107.89c0,59.59,48.3,107.89,107.89,107.89c19.01,0,36.87-4.92,52.38-13.55l40.17,24.77L385.97,287.53z"/>
<linearGradient id="SVGID_00000033356238846177324160000017038954718714277006_" gradientUnits="userSpaceOnUse" x1="298.2069" y1="208.4409" x2="324.0157" y2="208.4409">
	<stop  offset="0" style="stop-color:#F2AA35"/>
	<stop  offset="0.5319" style="stop-color:#D19230"/>
	<stop  offset="1" style="stop-color:#B17B2B"/>
</linearGradient>
<circle style="fill:url(#SVGID_00000033356238846177324160000017038954718714277006_);" cx="311.11" cy="208.44" r="12.9"/>
<linearGradient id="SVGID_00000114066792067221107280000016384455601302909854_" gradientUnits="userSpaceOnUse" x1="96.5484" y1="291.5264" x2="277.6071" y2="110.4677">
	<stop  offset="0" style="stop-color:#F2AA35"/>
	<stop  offset="0.5319" style="stop-color:#D19230"/>
	<stop  offset="1" style="stop-color:#B17B2B"/>
</linearGradient>
<path style="fill:url(#SVGID_00000114066792067221107280000016384455601302909854_);" d="M201.32,78.87
	c-59.59,0-107.89,48.3-107.89,107.89c0,29.2,11.61,55.69,30.45,75.11l-14.27,42.72l37.27-24.67c15.98,9.36,34.58,14.73,54.43,14.73
	c59.59,0,107.89-48.3,107.89-107.89S260.9,78.87,201.32,78.87z"/>
<g>
	<path class="st3" d="M102.42,416.38v-48.8h6.8v42.85h20.75v5.95H102.42z"/>
	<path class="st3" d="M140.17,373.73v-6.87h6.59v6.87H140.17z M140.17,416.38v-35.49h6.59v35.49H140.17z"/>
	<path class="st3" d="M167.16,416.38l-9.49-35.49h7.08l7.51,29.82h2.48l7.72-29.82h6.73l-9.49,35.49H167.16z"/>
	<path class="st3" d="M212.56,417.08c-3.64,0-6.51-0.67-8.61-2.02c-2.1-1.35-3.62-3.36-4.57-6.06c-0.94-2.69-1.42-6.07-1.42-10.13
		c0-4.44,0.63-8.03,1.88-10.77c1.25-2.74,3.01-4.75,5.28-6.02c2.27-1.27,4.98-1.91,8.15-1.91c4.86,0,8.54,1.31,11.01,3.93
		c2.48,2.62,3.72,6.84,3.72,12.64l-0.35,4.46H204.7c0.05,3.4,0.68,5.96,1.91,7.69c1.23,1.72,3.45,2.58,6.66,2.58
		c1.37,0,2.87-0.04,4.5-0.11c1.63-0.07,3.25-0.15,4.85-0.25c1.6-0.09,2.97-0.19,4.11-0.28l0.14,4.96c-1.18,0.19-2.6,0.39-4.25,0.6
		c-1.65,0.21-3.36,0.38-5.14,0.5C215.71,417.02,214.07,417.08,212.56,417.08z M204.7,396.33h16.72c0-4.01-0.65-6.82-1.95-8.43
		c-1.3-1.6-3.36-2.41-6.2-2.41c-2.79,0-4.91,0.83-6.38,2.48C205.43,389.62,204.7,392.41,204.7,396.33z"/>
	<path class="st3" d="M277.66,417.08c-3.68,0-6.72-0.52-9.1-1.56c-2.38-1.04-4.24-2.61-5.56-4.71c-1.32-2.1-2.24-4.72-2.76-7.86
		c-0.52-3.14-0.78-6.76-0.78-10.87c0-4.2,0.26-7.89,0.78-11.05c0.52-3.16,1.45-5.8,2.8-7.9c1.35-2.1,3.2-3.68,5.56-4.75
		s5.41-1.59,9.14-1.59c1.65,0,3.33,0.08,5.03,0.25c1.7,0.17,3.29,0.38,4.78,0.64c1.49,0.26,2.77,0.51,3.86,0.74l-0.28,5.6
		c-0.99-0.19-2.23-0.37-3.72-0.53c-1.49-0.16-3-0.32-4.53-0.46c-1.54-0.14-2.94-0.21-4.21-0.21c-2.55,0-4.63,0.38-6.23,1.13
		c-1.61,0.76-2.85,1.91-3.72,3.47c-0.87,1.56-1.46,3.54-1.77,5.95c-0.31,2.41-0.46,5.31-0.46,8.71c0,3.31,0.15,6.16,0.46,8.57
		c0.31,2.41,0.89,4.38,1.74,5.91c0.85,1.54,2.09,2.67,3.72,3.4c1.63,0.73,3.74,1.1,6.34,1.1c1.98,0,4.14-0.12,6.48-0.35
		c2.34-0.24,4.33-0.5,5.99-0.78l0.21,5.67c-1.13,0.24-2.47,0.47-4,0.71c-1.54,0.24-3.14,0.43-4.82,0.57
		C280.9,417.01,279.26,417.08,277.66,417.08z"/>
	<path class="st3" d="M303.44,416.38V365.8h6.59v16.86c1.23-0.52,2.83-1.06,4.82-1.63c1.98-0.57,3.87-0.85,5.67-0.85
		c3.26,0,5.77,0.58,7.54,1.74c1.77,1.16,2.99,3.02,3.65,5.6c0.66,2.57,0.99,5.94,0.99,10.09v18.77h-6.66v-18.35
		c0-2.93-0.17-5.26-0.5-7.01c-0.33-1.75-0.98-3.01-1.95-3.79s-2.44-1.17-4.43-1.17c-1.65,0-3.34,0.21-5.06,0.64
		c-1.72,0.42-3.08,0.85-4.07,1.27v28.4H303.44z"/>
	<path class="st3" d="M354.58,417.08c-3.35,0-5.9-0.92-7.65-2.76c-1.75-1.84-2.62-4.56-2.62-8.15c0-2.41,0.42-4.36,1.27-5.84
		c0.85-1.49,2.11-2.61,3.79-3.36c1.68-0.75,3.76-1.2,6.27-1.35l10.27-0.99v-2.76c0-2.22-0.5-3.79-1.49-4.71s-2.48-1.38-4.46-1.38
		c-1.23,0-2.67,0.05-4.32,0.14c-1.65,0.09-3.28,0.21-4.89,0.35s-3.05,0.28-4.32,0.42l-0.28-4.82c1.18-0.28,2.58-0.54,4.21-0.78
		c1.63-0.24,3.34-0.45,5.14-0.64c1.79-0.19,3.45-0.28,4.96-0.28c2.79,0,5.08,0.4,6.87,1.2c1.79,0.8,3.12,2.05,3.97,3.75
		c0.85,1.7,1.27,3.9,1.27,6.59v17.42c0.09,0.95,0.48,1.64,1.17,2.09c0.68,0.45,1.55,0.74,2.58,0.89l-0.21,4.89
		c-1.04,0-2.02-0.04-2.94-0.11s-1.76-0.22-2.51-0.46c-0.76-0.19-1.43-0.46-2.02-0.82c-0.59-0.35-1.15-0.77-1.67-1.24
		c-0.85,0.38-1.96,0.78-3.33,1.2c-1.37,0.42-2.83,0.78-4.39,1.06S356.14,417.08,354.58,417.08z M355.93,411.84
		c1.18,0,2.4-0.12,3.65-0.35c1.25-0.24,2.44-0.51,3.58-0.81c1.13-0.31,2.05-0.58,2.76-0.81v-10.62l-9.42,0.92
		c-1.98,0.14-3.4,0.7-4.25,1.67c-0.85,0.97-1.27,2.35-1.27,4.14c0,1.84,0.41,3.28,1.24,4.32
		C353.03,411.32,354.27,411.84,355.93,411.84z"/>
	<path class="st3" d="M398.5,417.15c-2.5,0-4.5-0.38-5.99-1.13s-2.55-2.06-3.19-3.93c-0.64-1.87-0.96-4.5-0.96-7.9v-17.71h-4.82
		v-5.6h4.82v-10.41h6.52v10.41h10.55v5.6h-10.55v15.87c0,2.31,0.11,4.12,0.32,5.42c0.21,1.3,0.65,2.21,1.31,2.73s1.7,0.78,3.12,0.78
		c0.47,0,1.06-0.01,1.77-0.04c0.71-0.02,1.44-0.07,2.2-0.14c0.75-0.07,1.42-0.13,1.98-0.18l0.35,5.38
		c-1.09,0.19-2.36,0.38-3.83,0.57C400.64,417.06,399.44,417.15,398.5,417.15z"/>
</g>
<circle class="st3" cx="201.32" cy="188.13" r="12.9"/>
<circle class="st3" cx="248.86" cy="188.13" r="12.9"/>
<linearGradient id="SVGID_00000124150290765686037810000004772938964501001145_" gradientUnits="userSpaceOnUse" x1="345.7469" y1="208.4409" x2="371.5558" y2="208.4409">
	<stop  offset="0" style="stop-color:#F2AA35"/>
	<stop  offset="0.5319" style="stop-color:#D19230"/>
	<stop  offset="1" style="stop-color:#B17B2B"/>
</linearGradient>
<circle style="fill:url(#SVGID_00000124150290765686037810000004772938964501001145_);" cx="358.65" cy="208.44" r="12.9"/>
<circle class="st3" cx="154.93" cy="188.13" r="12.9"/>
</svg>
