<?xml version="1.0" encoding="utf-8"?>
<!-- Generator: Adobe Illustrator 26.5.0, SVG Export Plug-In . SVG Version: 6.00 Build 0)  -->
<svg version="1.1" id="Layer_4" xmlns="http://www.w3.org/2000/svg" xmlns:xlink="http://www.w3.org/1999/xlink" x="0px" y="0px"
	 viewBox="0 0 500 500" style="enable-background:new 0 0 500 500;" xml:space="preserve">
<style type="text/css">
	.st0{fill:#FFFFFF;}
</style>
<g>
	<path class="st0" d="M482.45,128.28c-3.99-12.57-15.07-20.98-28.32-21.2c-11.25-0.17-22.51-0.04-34.35-0.04h-0.23
		c0.04-0.07,0.07-0.15,0.11-0.22c0.72-1.45,1.15-2.33,1.6-3.2c9.43-18.09,9.07-36.43,0.09-54.32
		c-18.01-35.82-64.45-43.96-94.94-16.9c-13.31,11.83-26.46,23.85-39.58,35.9c-2.1,1.93-3.21,2.56-5.73,0.21
		c-17.73-16.67-44.62-16.62-62.32,0.1c-2.28,2.16-3.37,1.82-5.4-0.04c-13.02-11.94-26.16-23.73-39.2-35.63
		c-11.08-10.09-23.92-16.2-38.99-16.55c-22.49-0.53-40.79,8.29-53.17,27.11c-12.43,18.93-13.74,39.16-3.63,59.79
		c0.56,1.12,1.92,2.06,1.18,3.74c-10.95,0-21.91-0.1-32.87,0.02c-13.79,0.13-24.41,7.89-29.09,20.83c-0.37,1.03-0.06,2.54-1.54,3.05
		v55.73c3.03,7.38,7.97,11.85,16.46,11.85c144.95-0.05,289.89-0.02,434.83-0.04c10.2-0.01,16.51-6.31,16.53-16.49
		c0.04-14.62-0.01-29.22,0.02-43.84C483.94,134.78,483.47,131.49,482.45,128.28z M297.23,99.85c5.64-4.86,11.09-9.94,16.61-14.95
		c10.7-9.7,21.32-19.48,32.12-29.06c12.24-10.87,26.94-11.99,39.19-3.24c9.59,6.84,14.25,19.04,11.71,30.58
		c-2.58,11.65-12.68,21.31-24.86,23.08c-12.24,1.77-24.59,0.39-36.89,0.76c-0.76,0.02-1.53,0-2.28,0c-10.94,0-21.9,0.05-32.84-0.06
		c-1.42-0.01-3.74,1.21-4.15-1.27C295.51,103.74,295.21,101.61,297.23,99.85z M126.87,47.38c9.02-1.9,17.45,0.06,24.33,6.14
		c17.33,15.34,34.36,31.01,51.59,46.45c1.99,1.8,1.75,3.93,1.32,5.85c-0.5,2.28-2.8,1.12-4.25,1.14
		c-11.27,0.11-22.54,0.06-33.8,0.06c0-0.01,0-0.02,0-0.02c-11.27,0-22.55,0.26-33.81-0.06c-16.01-0.46-28.34-12.08-29.59-27.37
		C101.36,63.9,111.19,50.7,126.87,47.38z"/>
	<path class="st0" d="M215.18,228.54c-54.82,0.07-109.64,0.05-164.44,0.05c-0.61,0-1.22,0.05-1.83,0c-1.89-0.13-2.78,0.61-2.75,2.61
		c0.26,14.45-0.46,28.89,0.38,43.34c-0.01,31.16-0.01,62.33-0.01,93.49c-0.01,27.67-0.06,55.33,0.02,83
		c0.05,17.25,10.84,29.92,26.95,31.88c-0.05,0.26,0,0.5,0.13,0.73h146.2c0.02-0.92,0.06-1.83,0.06-2.74
		c0-82.68-0.04-165.36,0.09-248.04C220,228.92,218.45,228.54,215.18,228.54z"/>
	<path class="st0" d="M453.84,231.19c0.05-2.88-1.83-2.6-3.68-2.6c-55.43,0-110.84,0.02-166.27-0.05c-3.03-0.01-3.85,0.93-3.85,3.88
		c0.09,83.75,0.09,167.48,0.11,251.23h146.2c0.13-0.23,0.17-0.48,0.13-0.74c16.25-1.98,26.95-14.7,26.96-32.34
		c0.04-58.68,0.01-117.35,0-176.04C454.29,260.09,453.55,245.63,453.84,231.19z"/>
</g>
</svg>
