<?xml version="1.0" encoding="utf-8"?>
<!-- Generator: Adobe Illustrator 26.5.0, SVG Export Plug-In . SVG Version: 6.00 Build 0)  -->
<svg version="1.1" id="Layer_4" xmlns="http://www.w3.org/2000/svg" xmlns:xlink="http://www.w3.org/1999/xlink" x="0px" y="0px"
	 viewBox="0 0 500 500" style="enable-background:new 0 0 500 500;" xml:space="preserve">
<style type="text/css">
	.st0{fill:url(#SVGID_1_);}
	.st1{fill:#FFFFFF;}
</style>
<linearGradient id="SVGID_1_" gradientUnits="userSpaceOnUse" x1="47.8694" y1="470.593" x2="489.0555" y2="29.407">
	<stop  offset="0" style="stop-color:#1E7030"/>
	<stop  offset="0.9925" style="stop-color:#439A35"/>
	<stop  offset="1" style="stop-color:#439A35"/>
</linearGradient>
<path class="st0" d="M489.52,470.13H59.56c-16.21,0-29.48-13.26-29.48-29.48V59.35c0-16.21,13.26-29.48,29.48-29.48h429.96V470.13z"
	/>
<g>
	<path class="st1" d="M317.54,131.59c4.18-6.09,9.42-11.11,15.59-15.16c3.46-2.27,7.12-4.18,11.11-5.89
		c-7.04-4.45-14.63-7.45-21.89-11.09c1.98,0.27,3.91,0.68,5.86,1.03c7.32,1.33,14.45,3.18,20.61,7.63c0.71,0.51,1.33,0.26,2.02,0.04
		c5.96-1.85,12.03-3.26,18.21-4.14c2.92-0.42,5.83-0.86,8.85-1.3c-0.2-0.35-0.29-0.55-0.41-0.73c-4.1-6.29-9.46-11.38-15.48-15.76
		c-8.59-6.24-17.88-11.07-28.23-13.75c-10.71-2.77-21.69-3.52-32.62-4.53c-10.21-0.94-19.75-3.85-28.75-8.69h-1.33
		c-1.11,0.84-1.33,1.92-0.94,3.21c2.02,6.71,3.57,13.54,5.28,20.33c3.62,14.35,10,27.2,20.44,37.83
		c5.42,5.51,11.66,9.77,19.24,11.83C316.23,132.77,316.87,132.57,317.54,131.59z"/>
	<path class="st1" d="M436.55,94.97c-1.09-0.83-2.16-0.58-3.24,0.04c-0.57,0.33-1.18,0.6-1.77,0.89
		c-5.67,2.79-11.64,4.73-17.77,6.18c-12.41,2.92-25.13,3.69-37.73,5.31c-8.56,1.1-17.01,2.62-25.23,5.34
		c-17.01,5.64-29.08,16.66-36.4,33c-8.05,17.97-11.94,36.79-11.79,56.46c0,0.83-0.02,1.66,0,2.49c0.19,7.13,0.4,14.26,2.31,21.21
		c0.24,0.86,0.53,1.69,1.1,2.39c0.65,0.8,1.43,1.23,2.47,0.76c1.04-0.47,1.49-1.27,1.23-2.41c-0.11-0.48-0.2-0.98-0.33-1.46
		c-0.9-3.49-1.39-7.04-1.56-10.64c-0.42-9.06,1.12-17.82,3.98-26.39c2.7-8.07,6.69-15.33,12.85-21.35
		c10.16-9.94,22.98-14.53,36.21-18.37c0.66-0.19,1.12-0.07,1.35,0.54c0.23,0.62-0.31,0.87-0.73,1.12c-0.28,0.17-0.6,0.28-0.9,0.42
		c-4.18,2-8.41,3.89-12.53,6c-12.2,6.24-21.1,15.67-26.76,28.14c-1.3,2.87-2.26,5.89-2.1,9.12c0.15,3.1,1.83,4.25,4.77,3.33
		c0.58-0.18,1.16-0.37,1.72-0.58c3.51-1.33,7.11-2.37,10.79-3.16c10.28-2.21,20.79-2.87,31.14-4.61
		c9.75-1.64,18.92-4.74,27.24-10.16c15.89-10.37,25.92-25.17,32.16-42.76c3.59-10.1,5.6-20.65,8.35-30.98
		c0.58-2.19,1.29-4.34,1.86-6.52C437.59,97.11,437.73,95.87,436.55,94.97z"/>
	<path class="st1" d="M411.79,178.6c-0.34-0.49-0.91-1.21-1.75-1.97c-3.37,3.09-7,5.9-10.9,8.45c-6.23,4.07-13.1,7.13-20.8,9.24
		h10.95c-5.33,18.72-10.61,37.31-15.92,55.89c-0.11,0.37-0.21,0.74-0.32,1.11h-34.17c0-18.22,0-36.45,0-54.67
		c-1.64,0.02-3.84,0.23-6.33,0.98c-1.87,0.57-3.41,1.3-4.6,1.97c0,17.24,0,34.48,0,51.72h-50.52v-57h20.65
		c0.32-7,1.14-13.92,2.47-20.73c-47.37,0-97.82,0.01-145.19,0.08c-2.85,0.01-3.85-0.78-4.4-3.51c-1.92-9.48-4.09-18.91-6.22-28.36
		c-1.34-5.94-4.88-9.22-10.6-9.25c-20.55-0.11-41.1-0.1-61.65,0.01c-4.38,0.02-7.56,2.44-9.21,6.5
		c-2.78,6.89,2.31,13.93,10.14,13.96c16.67,0.07,33.34,0.06,50.01-0.02c2.01-0.02,2.98,0.46,3.44,2.54
		c11.86,53.71,23.77,107.41,35.76,161.08c0.55,2.47,0.3,3.68-2.15,4.97c-11.56,6.1-17.45,19.19-15.07,32.78
		c2.15,12.32,13.13,22.52,25.93,24.28c6.43,0.89,12.9,0.07,19.62,0.61c-22.02,5.95-27.65,23.7-24.95,37.12
		c2.85,14.15,16.81,25.08,31,24.32c16.38-0.88,28.62-12.59,29.74-29.18c0.05-0.61,0.06-1.22,0.06-1.83c0-0.07,0.01-0.14,0.01-0.2
		c0-0.05-0.01-0.09-0.01-0.14c0-0.72-0.03-1.44-0.09-2.16c-0.01-0.1-0.02-0.21-0.02-0.32c-0.07-0.72-0.16-1.43-0.27-2.15
		c-0.02-0.1-0.03-0.21-0.05-0.32c-0.12-0.71-0.27-1.42-0.44-2.13c-0.02-0.1-0.05-0.19-0.08-0.3c-0.19-0.72-0.4-1.42-0.64-2.12
		c-0.02-0.09-0.06-0.17-0.09-0.26c-0.26-0.72-0.53-1.42-0.84-2.12c-0.02-0.05-0.05-0.12-0.08-0.17c-0.31-0.71-0.65-1.4-1.03-2.08
		c-0.02-0.03-0.04-0.07-0.05-0.1c-0.38-0.68-0.79-1.35-1.23-2.01c-0.04-0.07-0.09-0.14-0.12-0.2c-0.43-0.64-0.89-1.27-1.38-1.87
		c-0.05-0.05-0.08-0.12-0.12-0.17c-0.04-0.05-0.08-0.09-0.11-0.13c-0.12-0.14-0.23-0.27-0.34-0.4c-0.17-0.21-0.34-0.41-0.52-0.61
		c-0.15-0.17-0.3-0.33-0.46-0.5c-0.1-0.12-0.21-0.23-0.32-0.35c-0.04-0.04-0.09-0.08-0.12-0.12c-0.21-0.22-0.43-0.43-0.65-0.64
		c-0.13-0.13-0.26-0.26-0.4-0.39c-0.28-0.26-0.58-0.52-0.86-0.78c-0.06-0.05-0.11-0.09-0.17-0.15c-0.02-0.02-0.04-0.03-0.06-0.05
		c-0.09-0.09-0.19-0.16-0.29-0.24c-0.11-0.09-0.21-0.19-0.33-0.28c-0.11-0.09-0.23-0.18-0.34-0.26c-0.03-0.02-0.07-0.05-0.1-0.08
		c-0.12-0.09-0.24-0.19-0.37-0.28c-0.05-0.05-0.12-0.09-0.17-0.14c-0.13-0.1-0.27-0.2-0.41-0.3c-0.1-0.08-0.2-0.14-0.3-0.21
		c-0.1-0.07-0.2-0.14-0.3-0.21c-0.1-0.07-0.19-0.14-0.3-0.21c-0.04-0.03-0.09-0.06-0.14-0.1c-0.16-0.1-0.33-0.2-0.51-0.31
		c-0.12-0.08-0.26-0.16-0.39-0.24c-0.06-0.04-0.12-0.08-0.18-0.11c-0.05-0.04-0.12-0.06-0.17-0.1c-0.45-0.26-0.91-0.53-1.38-0.78
		c-0.17-0.09-0.34-0.19-0.52-0.28c-0.57-0.29-1.15-0.57-1.75-0.84c-0.02-0.01-0.03-0.02-0.05-0.02c-0.27-0.12-0.55-0.23-0.83-0.36
		c-0.11-0.05-0.23-0.09-0.33-0.14c-0.05-0.02-0.09-0.03-0.12-0.05c-0.07-0.02-0.14-0.05-0.21-0.08c-0.23-0.09-0.46-0.18-0.69-0.26
		c-0.13-0.05-0.27-0.09-0.41-0.15c-0.03-0.01-0.07-0.02-0.11-0.04c-0.16-0.05-0.32-0.11-0.48-0.16c-0.05-0.02-0.12-0.05-0.17-0.06
		c-0.26-0.1-0.54-0.19-0.82-0.26c-0.07-0.02-0.14-0.05-0.21-0.06c-0.06-0.02-0.13-0.04-0.19-0.06c-0.09-0.02-0.18-0.05-0.27-0.08
		c-0.22-0.06-0.45-0.12-0.67-0.18c-0.25-0.07-0.49-0.13-0.74-0.19c-0.52-0.13-1.05-0.26-1.59-0.37H336.5
		c-0.02,0.01-0.05,0.01-0.07,0.02c-20.45,5.15-27.88,21.89-25.34,36.51c2.41,13.87,16.1,25.23,30.55,24.95
		c15.71-0.31,28.1-11.57,30.19-27.61c1.61-12.38-5.26-29.05-26.14-33.92c-0.17-0.04-0.33-0.09-0.5-0.12h0.53
		c5.85,0.02,11.04,0.11,16.22-0.02c5.82-0.14,10.22-4.69,10.2-10.28c-0.03-5.6-4.45-9.99-10.28-10.23
		c-1.03-0.04-2.06-0.01-3.08-0.01h-180.5c-1.13,0-2.29,0.05-3.42-0.05c-5.41-0.45-9.57-4.91-9.57-10.21c0-5.32,4.14-9.78,9.54-10.24
		c1.14-0.1,2.28-0.05,3.42-0.05h180.83c8.21,0,11.19-2.23,13.46-10.19c11.07-38.72,22.08-77.48,33.21-116.18
		c2.42-8.37,4.31-16.89,7.5-25.02c0.15-0.38,0.39-1.06,0.48-1.92C414.02,181.78,412.41,179.48,411.79,178.6z M351.59,409.89
		c0.02,5.54-4.58,10.22-10.13,10.29c-5.68,0.08-10.46-4.7-10.39-10.39c0.07-5.55,4.75-10.15,10.3-10.12
		C346.92,399.69,351.57,404.33,351.59,409.89z M206.36,409.81c0.07,5.54-4.5,10.26-10.05,10.37c-5.68,0.12-10.49-4.62-10.46-10.3
		c0.03-5.55,4.67-10.19,10.22-10.21C201.61,399.64,206.3,404.25,206.36,409.81z M327.95,262.26c0,18.42,0,36.83,0,55.25
		c-16.84-0.02-33.68-0.04-50.52-0.04v-55.21H327.95z M266.5,317.46c-15.63,0-31.26,0.01-46.89,0.02v-55.22h46.89V317.46z
		 M266.5,251.32h-46.89v-57h46.89V251.32z M156.59,194.33h52.08v57h-39.6c-4.17-18.83-8.35-37.65-12.52-56.48
		C156.53,194.74,156.57,194.61,156.59,194.33z M183.13,314.88c-3.86-17.55-7.74-35.08-11.63-52.62h37.18v55.22
		c-7.28,0-14.55,0-21.83,0.01C184.78,317.49,183.64,317.24,183.13,314.88z M355.04,314.53c-0.61,2.18-1.4,2.99-3.86,2.99
		c-4.1-0.01-8.2,0-12.3-0.01c0-18.42,0-36.84,0-55.25h31.05C364.95,279.68,359.96,297.09,355.04,314.53z"/>
</g>
</svg>
