<?xml version="1.0" encoding="utf-8"?>
<!-- Generator: Adobe Illustrator 26.5.0, SVG Export Plug-In . SVG Version: 6.00 Build 0)  -->
<svg version="1.1" id="Layer_4" xmlns="http://www.w3.org/2000/svg" xmlns:xlink="http://www.w3.org/1999/xlink" x="0px" y="0px"
	 viewBox="0 0 500 500" style="enable-background:new 0 0 500 500;" xml:space="preserve">
<style type="text/css">
	.st0{fill:#D09230;}
	.st1{fill:#FFFFFF;}
</style>
<rect class="st0" width="500" height="500"/>
<g>
	<path class="st1" d="M246.06,52.29c-1.78-0.56-3.81-0.2-5.36-1.49H120.1c-1.33,0.98-2.97,1.55-3.91,3.06
		c-1.52,2.39-1.78,4.86-0.45,7.35c1.51,2.81,3.99,3.77,7.11,3.76c22.16-0.04,44.32-0.03,66.48-0.03
		c15.16,0.01,30.31-0.07,45.48,0.03c11.95,0.08,21.2,8.19,22.25,19.09c0.31,3.13-1.49,7.43,1,9.07c2.26,1.5,6.27,0.37,9.51,0.4
		c0.64,0,1.3-0.04,1.94,0c1.31,0.11,1.76-0.45,1.85-1.76C272.99,70.83,261.08,57.06,246.06,52.29z"/>
	<path class="st1" d="M374.24,64.15c3.2-1.67,4.63-5.53,3.31-8.9c-0.85-2.19-2.75-3.28-4.58-4.45h-3.89c-0.86,0.54-1.8,1-2.58,1.64
		c-2.87,2.34-3.45,6.3-1.44,9.36C367.04,64.81,371.01,65.84,374.24,64.15z"/>
	<path class="st1" d="M199.95,186.73c-13.52-7.01-20.88-17.76-20.95-33.14c-0.01-2.47-0.55-3.3-3.2-3.26
		c-12.05,0.15-24.11,0.15-36.16,0c-2.66-0.03-3.4,0.55-3.45,3.33c-0.28,14.73-6.91,25.7-20.09,32.52
		c-24.53,12.68-36.79,32.8-36.76,60.43c0.03,26.84,0,53.68,0.01,80.5c0,28.4-0.09,56.79,0.03,85.18c0.09,21.75,15.34,36.85,37,36.87
		c27.61,0.03,55.23,0.04,82.84-0.01c20.91-0.04,36.54-15.22,36.6-36.16c0.16-56.27,0.35-112.53-0.08-168.79
		C235.53,218.16,223.21,198.77,199.95,186.73z M207.3,321.16c0,9.46,0.06,18.92-0.02,28.38c-0.2,26.04-19.3,46.99-45.22,49.67
		c-24.82,2.57-48.2-14.88-53.34-39.93c-0.68-3.28-0.95-6.68-0.96-10.04c-0.09-18.79-0.12-37.58-0.03-56.37
		c0.12-25.69,19.01-46.84,44.33-49.76c24.95-2.88,48.07,13.6,54.06,38.5c1.6,6.64,1.12,13.39,1.17,20.11
		C207.35,308.2,207.3,314.68,207.3,321.16z"/>
	<path class="st1" d="M389.22,231.33c-4.65-4.13-9.4-8.15-14.15-12.17c-11.62-9.83-17.75-22.35-18.3-37.54
		c-0.08-2.23-0.72-2.78-2.87-2.75c-7.38,0.12-14.78,0.17-22.17-0.02c-2.69-0.07-3.45,0.7-3.56,3.39
		c-0.61,15.22-7.05,27.6-18.69,37.36c-3.98,3.33-7.82,6.83-11.82,10.12c-13.06,10.74-19.31,24.52-19.18,41.43
		c0.17,23.08,0.04,46.15,0.04,69.24c0,23.98-0.09,47.96,0.03,71.95c0.12,21.75,15.36,36.79,37.05,36.82
		c18.27,0.03,36.55,0.09,54.83-0.01c20.46-0.12,35.96-15.46,36-35.89c0.12-48.23,0.1-96.46-0.01-144.69
		C406.41,253.61,400.38,241.23,389.22,231.33z M383.88,345.4c-5.05,21.28-24.56,34.56-47.01,32.19
		c-20.13-2.12-36.45-20.2-37.01-41.01c-0.08-2.85-0.01-5.7-0.01-9.75c-0.75-10.07,1.02-20.73,7.71-30.17
		c10.44-14.72,28.56-21.34,45.9-16.79c16.89,4.42,29.49,18.84,31.29,36.54C385.75,326.06,386.15,335.84,383.88,345.4z"/>
	<path class="st1" d="M129.08,110.5c0.18,7.63,0.12,15.27,0.02,22.91c-0.03,2.16,0.56,2.89,2.83,2.88
		c17.08-0.09,34.16-0.11,51.24,0.01c2.52,0.02,2.99-0.87,2.96-3.14c-0.12-7.5-0.14-15.02,0.01-22.52c0.05-2.41-0.65-3.07-3.04-3.02
		c-8.41,0.13-16.82,0.05-25.23,0.05c-8.54,0-17.09,0.06-25.63-0.04C130.03,107.59,129.02,107.92,129.08,110.5z"/>
	<path class="st1" d="M324.23,164.59c6.09-0.13,12.18-0.04,18.27-0.04c6.21,0,12.43-0.07,18.66,0.04c1.94,0.04,2.73-0.37,2.68-2.52
		c-0.15-6.08,0.01-12.18-0.08-18.26c-0.08-5-2.69-7.5-7.83-7.52c-8.95-0.06-17.89-0.06-26.83-0.01c-5.28,0.04-7.83,2.56-7.94,7.9
		c-0.12,5.83,0.11,11.67-0.09,17.5C320.98,164.22,321.97,164.64,324.23,164.59z"/>
	<path class="st1" d="M406.66,93.54c-8.02-0.04-14.3,6.21-14.29,14.23c0.01,7.83,6.17,14.01,14.03,14.09
		c8.01,0.08,14.31-6.19,14.28-14.21C420.66,99.81,414.48,93.59,406.66,93.54z"/>
	<path class="st1" d="M169.11,79.26c-3.73,0.13-7.49,0.04-11.23,0.04c-1.17,0-2.33-0.04-3.49,0.01c-3.57,0.18-8.49-1.57-10.37,0.64
		c-2.18,2.57-0.4,7.41-0.68,11.25c-0.13,1.88,0.56,2.42,2.41,2.38c5.04-0.12,10.07,0.06,15.11-0.08c3.57-0.1,8.58,1.65,10.31-0.73
		c1.8-2.48,0.41-7.2,0.61-10.94C171.9,79.72,171.08,79.19,169.11,79.26z"/>
	<path class="st1" d="M193.13,324.07c0-12.64,0.24-22.5-0.04-32.34c-0.53-18.3-14.31-32.71-32.65-34.54
		c-17.01-1.7-33.18,10.11-37.4,27.32c-0.31,1.25-0.63,2.53-0.68,3.81c-0.69,21.77-1.11,43.57,0.1,65.3
		c0.99,17.53,16.63,31.15,34.56,31.56c17.35,0.39,32.98-12.56,35.48-29.73C194.15,344.12,192.7,332.67,193.13,324.07z"/>
	<path class="st1" d="M370.79,319.39c-0.81-14.24-12.26-25.9-26.05-26.62c-15.4-0.8-28.05,9.24-30.26,24.14
		c-1.02,6.82-0.85,13.74-0.27,20.55c1.19,14.27,12.33,25.34,25.69,26.17c14.84,0.93,27.11-7.98,30.38-22.14
		c1-4.33,0.57-8.76,0.54-13.16C370.82,325.34,370.96,322.36,370.79,319.39z"/>
</g>
</svg>
