<?xml version="1.0" encoding="utf-8"?>
<!-- Generator: Adobe Illustrator 26.5.0, SVG Export Plug-In . SVG Version: 6.00 Build 0)  -->
<svg version="1.1" id="Layer_4" xmlns="http://www.w3.org/2000/svg" xmlns:xlink="http://www.w3.org/1999/xlink" x="0px" y="0px"
	 viewBox="0 0 500 500" style="enable-background:new 0 0 500 500;" xml:space="preserve">
<style type="text/css">
	.st0{fill:#D09230;}
	.st1{fill:#FFFFFF;}
</style>
<rect class="st0" width="500" height="500"/>
<g>
	<path class="st1" d="M445.7,256.31c-6.43-50.72-51.42-87.89-101-87.51c-6.09,0.05-12.25,0.66-18.41,1.88
		c-7.61,1.52-14.89,4.02-22.42,6.86c0-9.22,0.1-17.97-0.07-26.71c-0.04-2.68,0.47-3.61,3.45-3.86c12.22-1.02,22.05-10.34,24-22.28
		c1.91-11.66-4.59-23.4-15.76-28.34c-3.55-1.58-7.29-2.4-11.13-2.43c-0.55,0-1.1,0.01-1.65,0.04c-0.35,0.02-0.67,0.03-0.97,0.03
		c-2.1,0-3.01-0.55-2.56-3.67c1.73-11.76,3.11-23.6,4.39-35.42c1.01-9.29-4.48-15.33-13.71-15.35c-21.92-0.02-43.82-0.02-65.73,0h0
		c-9.78,0.01-15.31,6.64-13.97,16.34c1.6,11.65,2.91,23.34,4.52,34.99c0.38,2.78-0.63,3.13-3.03,3.09
		c-3.56-0.07-7.12-0.08-10.68-0.07c-1.78,0-3.56,0.01-5.34,0.02c-1.78,0-3.56,0.01-5.34,0c-5.64-0.03-10.23,1.92-12.91,7.08
		c-2.57,4.98-1.69,9.76,1.38,14.3c4.9,7.25,9.81,14.49,14.57,21.83c3.38,5.22,7.91,8.73,14.07,9.68c2.22,0.34,2.53,1.27,2.48,3.16
		c-0.11,4.1-0.12,8.21-0.01,12.32c0.12,4.07,2.69,6.64,6.31,6.57h0c3.49-0.09,5.85-2.55,5.95-6.48c0.1-3.96,0.21-7.95-0.03-11.9
		c-0.16-2.71,0.7-3.38,3.37-3.36c10.47,0.05,20.95,0.09,31.42,0.08c10.47,0,20.95-0.03,31.42-0.11c2.88-0.01,3.29,0.98,3.26,3.48
		c-0.12,10.12-0.03,20.26-0.05,30.39c-0.01,4.32,1.47,7.74,5.5,9.74c1.4,0.7,2.76,0.95,4.09,0.91c2.21-0.07,4.34-0.95,6.49-1.95
		c11.95-5.62,24.34-8.67,36.99-8.69c5.75-0.01,11.55,0.6,17.39,1.88c35.51,7.77,59.5,29.34,69.09,64.34
		c9.51,34.78-0.36,65.1-26.81,89.71c-4.73,4.4-6.24,9.27-5.33,15.42c3.58,24.33,0.74,47.99-7.83,70.99
		c-6.12,16.4-17.92,24.55-35.37,24.55H181.47h-0.33c0.07-0.08,0.13-0.15,0.2-0.23l0,0v0c3.06-3.67,5.73-6.96,6.74-10.97
		c0.81-3.25,2.46-3.72,5.46-3.72c27.11,0.05,54.22,0.07,81.33,0.07c27.11,0.01,54.22,0,81.33-0.01
		c10.42-0.01,16.94-4.49,20.63-14.26c12.24-32.43,11.63-64.69-1.48-96.74c-3.23-7.89-6.91-10.3-15.34-10.3h0
		c-47.78-0.01-95.57-0.01-143.35,0.01c-1.49,0-3.04,0.05-4.46,0.46c-3.05,0.86-4.44,3.12-4.22,6.2c0.21,3.11,1.98,5.04,5.08,5.5
		c0.74,0.11,1.49,0.14,2.25,0.15c0.75,0.01,1.51-0.02,2.26-0.02c23.49,0.01,46.97,0.02,70.45,0.01s46.96-0.03,70.44-0.1
		c3.49-0.01,4.95,1.16,6.17,4.25c11.16,28.47,11.51,57.02,0.91,85.7c-2.05,5.57-3.9,6.82-9.73,6.82c-54.49,0-108.99,0-163.49-0.03h0
		c-0.47,0-1.01,0.16-1.53,0.15c-0.52-0.01-1.03-0.18-1.45-0.83c0.27-0.45,0.53-0.92,0.82-1.36c8.72-12.78,12.39-26.91,11.42-42.32
		c-0.47-7.44-3.47-10.54-11-10.85c-1.06-0.04-2.12-0.07-3.17-0.06c-15.71,0.03-29.64,5.27-41.85,15.52
		c-1.32,1.11-2.59,2.25-3.92,3.4c-0.33-0.49-0.57-0.69-0.59-0.91c-1.58-19.54,0.99-38.44,8.69-56.59c1-2.35,2.33-2.85,4.62-2.83
		c5.54,0.04,11.09,0.06,16.64,0.06c5.55,0,11.09-0.01,16.64-0.02c4.95-0.01,7.69-2.11,7.82-5.86c0.14-3.93-2.78-6.42-7.77-6.43
		c-11.64-0.04-23.28,0-34.92-0.02h0c-6.76-0.01-11.22,3.06-13.94,9.35c-9.63,22.3-12.64,45.51-9.19,69.43
		c0.77,5.33-0.05,8.13-4.86,10.42c-0.94,0.45-1.96,0.68-2.96,0.71c-3.01,0.08-5.9-1.67-6.4-4.8c-4.13-25.64-2.28-50.77,7.14-75.06
		c16.39-42.32,46.41-70.66,89.14-85.68c7.72-2.72,10.47-6.5,10.49-14.61c0.02-10.96,0.03-21.9,0-32.86
		c-0.01-4.72-2.44-7.61-6.2-7.55c-3.74,0.07-6.08,2.96-6.09,7.72c-0.03,9.99-0.19,19.99,0.08,29.99c0.09,3.66-0.89,5.24-4.55,6.63
		c-55.37,20.93-89.4,60.38-101.66,118.34c-3.26,15.38-3.41,30.97-1.61,46.58c0.27,2.32,0.46,3.67-2.05,3.66
		c-0.36,0-0.77-0.03-1.25-0.09c-1.99-0.25-3.96-0.38-5.91-0.38c-8.45-0.03-16.5,2.21-23.92,6.94
		c-12.69,8.09-18.55,22.05-14.26,34.88c1.13,3.38,2.66,6.35,4.55,8.96c6.27,8.69,14.92,11.96,19.31,13.53
		c8.64,3.09,16.37,2.93,21.13,2.39c7.18-0.61,13.93-2.44,19.87-6.72c1.55-1.11,3.06-0.75,4.59,0.19c5.62,3.47,11.55,6.12,18.26,6.53
		h221.84v0v0c0.29-0.22,0.56-0.6,0.88-0.66c18.31-3.23,30.48-13.76,37.09-31c9.61-25.02,12.69-50.79,8.97-77.35
		c-0.33-2.35,0.15-3.94,2.01-5.7C439.04,321.24,450.14,291.47,445.7,256.31z M112.49,438.95c0.87,1.8,0.83,2.72-0.96,3.93
		c-11.06,7.44-29.17,6.38-39.15-2.44c-8.81-7.77-8.92-19.36-0.11-27.19c6.12-5.44,13.49-7.52,22.49-7.44
		c5.39-0.07,11.21,1.58,16.62,4.83c1.65,1,2.19,1.88,1.2,3.85C108.52,422.59,108.55,430.83,112.49,438.95z M171.74,439.67
		c-6.15,5.91-13.78,7.99-22.03,8.22c-8.21-0.27-15.71-2.37-21.77-8.14c-8.05-7.64-8-18.4,0.02-26.02
		c11.12-10.57,32.41-10.61,43.58-0.08C179.62,421.28,179.74,431.98,171.74,439.67z M150.35,393.38
		c7.63-7.72,16.21-12.22,26.06-14.53c3.47-0.8,6.99-1.09,10.54-1.19c1.25-0.03,2.36-0.16,2.43,1.75c0.35,9.88-1.84,19.09-6.77,27.97
		C173.82,398.17,163.24,393.96,150.35,393.38z M287.84,51.8c2.77-0.03,3.83,0.42,3.4,3.54c-1.63,11.9-3.03,23.84-4.44,35.77
		c-0.25,2.18-1.12,2.87-3.36,2.85c-17.78-0.1-35.54-0.09-53.31,0c-2.32,0.01-2.91-0.75-3.17-2.99c-1.38-12.07-2.91-24.12-4.57-36.17
		c-0.35-2.51,0.4-3.01,2.7-2.99c10.66,0.1,21.32,0.04,31.98,0.04C267.34,51.87,277.6,51.95,287.84,51.8z M249.43,134.84
		c-12.31,0-24.62-0.1-36.93,0.05c-4.13,0.04-6.97-1.53-9.17-4.95c-4.35-6.77-8.9-13.43-13.32-20.16c-0.63-0.96-2.11-1.86-1.27-3.14
		c0.61-0.96,2.03-0.38,3.06-0.38c18.6-0.03,37.2-0.02,55.8-0.02s37.2-0.04,55.8,0.01c8.61,0.03,15.15,5.56,15.71,13.04
		c0.65,8.66-5.69,15.47-14.71,15.51C286.08,134.9,267.76,134.84,249.43,134.84z"/>
	<path class="st1" d="M380.93,299.82c4.57,7.63,13.31,7.29,17.61-0.55c4.94-9.04,7.3-18.78,7.41-29.05c0-0.82,0.05-1.65-0.01-2.46
		c-0.1-1.36-0.25-2.72-0.43-4.08c-2.99-23.05-15.16-39.68-36.27-48.9c-21.19-9.27-41.64-6.34-60.38,7.26
		c-7.04,5.11-5.97,13.8,2.08,17.18C340.91,251.77,364.24,271.92,380.93,299.82z M374.52,231.88c17.62,13.43,24.08,37.74,14.81,57.86
		c-17.3-26.88-40.23-46.95-69.23-60.02C332.63,220.05,356.55,218.19,374.52,231.88z"/>
</g>
</svg>
