<?xml version="1.0" encoding="utf-8"?>
<!-- Generator: Adobe Illustrator 26.5.0, SVG Export Plug-In . SVG Version: 6.00 Build 0)  -->
<svg version="1.1" id="Layer_4" xmlns="http://www.w3.org/2000/svg" xmlns:xlink="http://www.w3.org/1999/xlink" x="0px" y="0px"
	 viewBox="0 0 500 500" style="enable-background:new 0 0 500 500;" xml:space="preserve">
<style type="text/css">
	.st0{fill:#D09230;}
	.st1{fill:#FFFFFF;}
</style>
<rect class="st0" width="500" height="500"/>
<g>
	<path class="st1" d="M226.82,293.94c-0.02-11.78-7.6-19.29-19.44-19.31c-19.38-0.02-38.76-0.02-58.14,0
		c-12.05,0.02-19.49,7.53-19.49,19.71c-0.01,36.27-0.01,72.55,0,108.83c0,12.12,7.33,19.76,19.45,19.84
		c19.37,0.14,38.75,0.14,58.13,0c12.15-0.08,19.49-7.69,19.5-19.79c0.02-18.07,0-36.13,0-54.2
		C226.83,330.66,226.87,312.3,226.82,293.94z M216.33,402.43c0,7.4-2.61,10.09-9.91,10.11c-18.79,0.04-37.57,0.04-56.36,0
		c-7.13-0.02-9.82-2.72-9.82-9.75c-0.02-18.06-0.01-36.11-0.01-54.17c0-17.91,0-35.82,0.01-53.73c0-7.17,2.57-9.76,9.68-9.77
		c18.94-0.01,37.86-0.01,56.8,0c7.04,0.01,9.61,2.64,9.61,9.84C216.35,330.8,216.35,366.61,216.33,402.43z M226.82,293.94
		c-0.02-11.78-7.6-19.29-19.44-19.31c-19.38-0.02-38.76-0.02-58.14,0c-12.05,0.02-19.49,7.53-19.49,19.71
		c-0.01,36.27-0.01,72.55,0,108.83c0,12.12,7.33,19.76,19.45,19.84c19.37,0.14,38.75,0.14,58.13,0c12.15-0.08,19.49-7.69,19.5-19.79
		c0.02-18.07,0-36.13,0-54.2C226.83,330.66,226.87,312.3,226.82,293.94z M216.33,402.43c0,7.4-2.61,10.09-9.91,10.11
		c-18.79,0.04-37.57,0.04-56.36,0c-7.13-0.02-9.82-2.72-9.82-9.75c-0.02-18.06-0.01-36.11-0.01-54.17c0-17.91,0-35.82,0.01-53.73
		c0-7.17,2.57-9.76,9.68-9.77c18.94-0.01,37.86-0.01,56.8,0c7.04,0.01,9.61,2.64,9.61,9.84
		C216.35,330.8,216.35,366.61,216.33,402.43z M226.82,293.94c-0.02-11.78-7.6-19.29-19.44-19.31c-19.38-0.02-38.76-0.02-58.14,0
		c-12.05,0.02-19.49,7.53-19.49,19.71c-0.01,36.27-0.01,72.55,0,108.83c0,12.12,7.33,19.76,19.45,19.84
		c19.37,0.14,38.75,0.14,58.13,0c12.15-0.08,19.49-7.69,19.5-19.79c0.02-18.07,0-36.13,0-54.2
		C226.83,330.66,226.87,312.3,226.82,293.94z M216.33,402.43c0,7.4-2.61,10.09-9.91,10.11c-18.79,0.04-37.57,0.04-56.36,0
		c-7.13-0.02-9.82-2.72-9.82-9.75c-0.02-18.06-0.01-36.11-0.01-54.17c0-17.91,0-35.82,0.01-53.73c0-7.17,2.57-9.76,9.68-9.77
		c18.94-0.01,37.86-0.01,56.8,0c7.04,0.01,9.61,2.64,9.61,9.84C216.35,330.8,216.35,366.61,216.33,402.43z M226.82,293.94
		c-0.02-11.78-7.6-19.29-19.44-19.31c-19.38-0.02-38.76-0.02-58.14,0c-12.05,0.02-19.49,7.53-19.49,19.71
		c-0.01,36.27-0.01,72.55,0,108.83c0,12.12,7.33,19.76,19.45,19.84c19.37,0.14,38.75,0.14,58.13,0c12.15-0.08,19.49-7.69,19.5-19.79
		c0.02-18.07,0-36.13,0-54.2C226.83,330.66,226.87,312.3,226.82,293.94z M216.33,402.43c0,7.4-2.61,10.09-9.91,10.11
		c-18.79,0.04-37.57,0.04-56.36,0c-7.13-0.02-9.82-2.72-9.82-9.75c-0.02-18.06-0.01-36.11-0.01-54.17c0-17.91,0-35.82,0.01-53.73
		c0-7.17,2.57-9.76,9.68-9.77c18.94-0.01,37.86-0.01,56.8,0c7.04,0.01,9.61,2.64,9.61,9.84
		C216.35,330.8,216.35,366.61,216.33,402.43z M226.82,293.94c-0.02-11.78-7.6-19.29-19.44-19.31c-19.38-0.02-38.76-0.02-58.14,0
		c-12.05,0.02-19.49,7.53-19.49,19.71c-0.01,36.27-0.01,72.55,0,108.83c0,12.12,7.33,19.76,19.45,19.84
		c19.37,0.14,38.75,0.14,58.13,0c12.15-0.08,19.49-7.69,19.5-19.79c0.02-18.07,0-36.13,0-54.2
		C226.83,330.66,226.87,312.3,226.82,293.94z M216.33,402.43c0,7.4-2.61,10.09-9.91,10.11c-18.79,0.04-37.57,0.04-56.36,0
		c-7.13-0.02-9.82-2.72-9.82-9.75c-0.02-18.06-0.01-36.11-0.01-54.17c0-17.91,0-35.82,0.01-53.73c0-7.17,2.57-9.76,9.68-9.77
		c18.94-0.01,37.86-0.01,56.8,0c7.04,0.01,9.61,2.64,9.61,9.84C216.35,330.8,216.35,366.61,216.33,402.43z M226.82,293.94
		c-0.02-11.78-7.6-19.29-19.44-19.31c-19.38-0.02-38.76-0.02-58.14,0c-12.05,0.02-19.49,7.53-19.49,19.71
		c-0.01,36.27-0.01,72.55,0,108.83c0,12.12,7.33,19.76,19.45,19.84c19.37,0.14,38.75,0.14,58.13,0c12.15-0.08,19.49-7.69,19.5-19.79
		c0.02-18.07,0-36.13,0-54.2C226.83,330.66,226.87,312.3,226.82,293.94z M216.33,402.43c0,7.4-2.61,10.09-9.91,10.11
		c-18.79,0.04-37.57,0.04-56.36,0c-7.13-0.02-9.82-2.72-9.82-9.75c-0.02-18.06-0.01-36.11-0.01-54.17c0-17.91,0-35.82,0.01-53.73
		c0-7.17,2.57-9.76,9.68-9.77c18.94-0.01,37.86-0.01,56.8,0c7.04,0.01,9.61,2.64,9.61,9.84
		C216.35,330.8,216.35,366.61,216.33,402.43z M258.25,276.7c-0.07-22.14-9.06-40.26-26.34-54.18c-1.71-1.37-3.4-2.74-4.55-4.65
		c-3.44-5.72-1.89-11.16,3.97-13.98c6.24-3,9.82-10.05,8.45-16.66c-1.44-6.91-7.49-12.24-14.53-12.26
		c-31.33-0.08-62.66-0.08-93.98,0c-6.98,0.02-13.2,5.52-14.51,12.3c-1.33,6.85,2.41,13.95,8.86,16.87c4.92,2.21,5.82,3.9,5.12,9.29
		c-0.53,4.09-3.1,6.7-6.13,9.14c-17.56,14.13-26.31,32.54-26.36,55.05c-0.06,26.94-0.01,53.9-0.01,80.86
		c0,27.83-0.02,55.65,0.01,83.49c0.01,16.21,11.26,27.63,27.34,27.66c35.12,0.06,70.23,0.06,105.35,0
		c15.89-0.04,27.32-11.39,27.33-27.25C258.35,387.14,258.43,331.92,258.25,276.7z M127.08,190.38c-0.27-3.31,1.99-4.96,6.58-4.96
		c29.68-0.01,59.37,0.01,89.05-0.04c3.55-0.01,6.74,0.5,6.71,4.83c-0.02,4.28-3.21,4.86-6.76,4.84c-14.69-0.06-29.4-0.02-44.09-0.02
		c-14.99,0-29.98-0.04-44.97,0.02C130.19,195.07,127.41,194.38,127.08,190.38z M247.81,441.45c-0.01,11.19-6.46,17.66-17.6,17.67
		c-34.68,0.02-69.38,0.02-104.07,0c-10.86-0.01-17.37-6.56-17.38-17.43c-0.01-27.98,0-55.97,0-83.95c0-26.52,0.04-53.06-0.01-79.58
		c-0.03-19.62,7.41-35.64,22.9-47.75c7.26-5.69,10.67-12.95,9.45-22.12c-0.34-2.57,0.58-2.79,2.7-2.79
		c23.03,0.06,46.07,0.07,69.1-0.02c2.45-0.01,2.82,0.76,2.55,2.97c-1.1,9.19,2.37,16.38,9.62,22.06
		c15.18,11.94,22.72,27.7,22.74,46.97C247.85,332.13,247.83,386.79,247.81,441.45z M226.82,293.94
		c-0.02-11.78-7.6-19.29-19.44-19.31c-19.38-0.02-38.76-0.02-58.14,0c-12.05,0.02-19.49,7.53-19.49,19.71
		c-0.01,36.27-0.01,72.55,0,108.83c0,12.12,7.33,19.76,19.45,19.84c19.37,0.14,38.75,0.14,58.13,0c12.15-0.08,19.49-7.69,19.5-19.79
		c0.02-18.07,0-36.13,0-54.2C226.83,330.66,226.87,312.3,226.82,293.94z M216.33,402.43c0,7.4-2.61,10.09-9.91,10.11
		c-18.79,0.04-37.57,0.04-56.36,0c-7.13-0.02-9.82-2.72-9.82-9.75c-0.02-18.06-0.01-36.11-0.01-54.17c0-17.91,0-35.82,0.01-53.73
		c0-7.17,2.57-9.76,9.68-9.77c18.94-0.01,37.86-0.01,56.8,0c7.04,0.01,9.61,2.64,9.61,9.84
		C216.35,330.8,216.35,366.61,216.33,402.43z M226.82,293.94c-0.02-11.78-7.6-19.29-19.44-19.31c-19.38-0.02-38.76-0.02-58.14,0
		c-12.05,0.02-19.49,7.53-19.49,19.71c-0.01,36.27-0.01,72.55,0,108.83c0,12.12,7.33,19.76,19.45,19.84
		c19.37,0.14,38.75,0.14,58.13,0c12.15-0.08,19.49-7.69,19.5-19.79c0.02-18.07,0-36.13,0-54.2
		C226.83,330.66,226.87,312.3,226.82,293.94z M216.33,402.43c0,7.4-2.61,10.09-9.91,10.11c-18.79,0.04-37.57,0.04-56.36,0
		c-7.13-0.02-9.82-2.72-9.82-9.75c-0.02-18.06-0.01-36.11-0.01-54.17c0-17.91,0-35.82,0.01-53.73c0-7.17,2.57-9.76,9.68-9.77
		c18.94-0.01,37.86-0.01,56.8,0c7.04,0.01,9.61,2.64,9.61,9.84C216.35,330.8,216.35,366.61,216.33,402.43z M226.82,293.94
		c-0.02-11.78-7.6-19.29-19.44-19.31c-19.38-0.02-38.76-0.02-58.14,0c-12.05,0.02-19.49,7.53-19.49,19.71
		c-0.01,36.27-0.01,72.55,0,108.83c0,12.12,7.33,19.76,19.45,19.84c19.37,0.14,38.75,0.14,58.13,0c12.15-0.08,19.49-7.69,19.5-19.79
		c0.02-18.07,0-36.13,0-54.2C226.83,330.66,226.87,312.3,226.82,293.94z M216.33,402.43c0,7.4-2.61,10.09-9.91,10.11
		c-18.79,0.04-37.57,0.04-56.36,0c-7.13-0.02-9.82-2.72-9.82-9.75c-0.02-18.06-0.01-36.11-0.01-54.17c0-17.91,0-35.82,0.01-53.73
		c0-7.17,2.57-9.76,9.68-9.77c18.94-0.01,37.86-0.01,56.8,0c7.04,0.01,9.61,2.64,9.61,9.84
		C216.35,330.8,216.35,366.61,216.33,402.43z M226.82,293.94c-0.02-11.78-7.6-19.29-19.44-19.31c-19.38-0.02-38.76-0.02-58.14,0
		c-12.05,0.02-19.49,7.53-19.49,19.71c-0.01,36.27-0.01,72.55,0,108.83c0,12.12,7.33,19.76,19.45,19.84
		c19.37,0.14,38.75,0.14,58.13,0c12.15-0.08,19.49-7.69,19.5-19.79c0.02-18.07,0-36.13,0-54.2
		C226.83,330.66,226.87,312.3,226.82,293.94z M216.33,402.43c0,7.4-2.61,10.09-9.91,10.11c-18.79,0.04-37.57,0.04-56.36,0
		c-7.13-0.02-9.82-2.72-9.82-9.75c-0.02-18.06-0.01-36.11-0.01-54.17c0-17.91,0-35.82,0.01-53.73c0-7.17,2.57-9.76,9.68-9.77
		c18.94-0.01,37.86-0.01,56.8,0c7.04,0.01,9.61,2.64,9.61,9.84C216.35,330.8,216.35,366.61,216.33,402.43z M226.82,293.94
		c-0.02-11.78-7.6-19.29-19.44-19.31c-19.38-0.02-38.76-0.02-58.14,0c-12.05,0.02-19.49,7.53-19.49,19.71
		c-0.01,36.27-0.01,72.55,0,108.83c0,12.12,7.33,19.76,19.45,19.84c19.37,0.14,38.75,0.14,58.13,0c12.15-0.08,19.49-7.69,19.5-19.79
		c0.02-18.07,0-36.13,0-54.2C226.83,330.66,226.87,312.3,226.82,293.94z M216.33,402.43c0,7.4-2.61,10.09-9.91,10.11
		c-18.79,0.04-37.57,0.04-56.36,0c-7.13-0.02-9.82-2.72-9.82-9.75c-0.02-18.06-0.01-36.11-0.01-54.17c0-17.91,0-35.82,0.01-53.73
		c0-7.17,2.57-9.76,9.68-9.77c18.94-0.01,37.86-0.01,56.8,0c7.04,0.01,9.61,2.64,9.61,9.84
		C216.35,330.8,216.35,366.61,216.33,402.43z"/>
	<path class="st1" d="M436.84,145.52c-0.76-9.06-7.9-16.61-16.65-18.63c-3.58-0.84-7.25-0.99-10.87-0.69
		c-2.71,0.23-3.97-0.91-4.82-3.26c-2.27-6.34-3.52-12.88-4.52-19.51c-2.49-16.47-2.68-33.09-3.41-49.69
		c-0.56-12.3-10.68-22.39-23.05-23.31c-12.81-0.96-24.22,7.34-26.87,19.47c-0.91,4.18-0.72,8.4-0.85,12.62
		c-0.5,17.78-1.34,35.52-5.32,52.94c-2.34,10.19-2.41,10.17-12.75,10.68c-13.09,0.65-22.09,10.1-22.19,23.29
		c-0.02,4.52,0,9.04,0,13.56c0,4.96-0.06,9.91,0.01,14.87c0.18,12.68,9.76,22.25,22.49,22.43c4.66,0.07,9.35,0.26,13.99-0.06
		c3.27-0.22,4.06,0.76,4.13,4c0.68,31.19,1.52,62.36,2.38,93.55c0.29,10.78,4.25,20.2,11.7,27.91c6.94,7.19,15.36,7.12,22.22-0.15
		c7-7.42,11.11-16.35,11.41-26.68c0.95-31.76,1.78-63.52,2.51-95.29c0.07-2.7,0.72-3.46,3.43-3.33c5.08,0.23,10.2,0.15,15.3,0.04
		c11.47-0.26,20.91-8.47,21.78-19.83C437.78,168.84,437.79,157.14,436.84,145.52z M356.35,56.99c0.08-4.21,0.89-8.1,3.67-11.37
		c4.04-4.76,10.37-6.48,16.23-4.44c5.79,2,9.67,7.19,9.89,13.57c0.55,16.59,0.9,33.19,3.37,49.66c0.95,6.32,2.03,12.62,4.14,18.69
		c0.64,1.85,1.05,3.13-1.94,3.1c-13.98-0.15-27.97-0.07-41.95-0.09c-0.4,0-0.78-0.21-1.26-0.35
		C355.25,103.25,355.93,80.13,356.35,56.99z M386,203.98c-0.53,15.86-0.91,31.73-1.34,47.59h-1.24c0,15.57,0.06,31.14-0.02,46.72
		c-0.03,7.62-3.4,14.03-8.12,19.73c-2.71,3.27-5.28,3.26-8.01-0.01c-4.76-5.69-7.98-12.18-8.19-19.76
		c-0.9-31.43-1.65-62.87-2.57-94.3c-0.08-2.75,0.4-3.81,3.44-3.72c7.56,0.22,15.14,0.26,22.7-0.01
		C385.79,200.12,386.08,201.38,386,203.98z M426.72,176.9c-0.15,8.31-4.91,12.87-13.19,12.91c-14.13,0.05-28.25,0.01-42.39,0.01
		c-13.83,0-27.67,0.02-41.51-0.01c-9.05-0.02-13.59-4.62-13.62-13.75c-0.02-8.73-0.05-17.48,0.01-26.21
		c0.05-8.1,4.55-13.13,12.48-13.16c28.55-0.14,57.09-0.14,85.64-0.01c7.75,0.04,12.4,4.87,12.55,12.69
		C426.89,158.55,426.89,167.73,426.72,176.9z"/>
	<path class="st1" d="M403.45,387.21c-4.62-15.17-13.34-28.02-23.4-39.96c-4.51-5.35-13.41-5.21-17.9,0.19
		c-9.7,11.65-18.45,24.06-22.86,38.79c-3.88,12.91-0.53,24.33,9.59,33.18c10.7,9.36,23.17,11.32,36.16,5.52
		c12.32-5.51,18.83-15.48,19.52-29.05C404.68,392.89,404.3,389.99,403.45,387.21z M370.88,417.29
		c-15.79-0.05-26.23-14.46-21.13-29.5c4.06-12.03,11.53-22.12,19.03-32.15c1.4-1.88,3.17-2.21,4.69-0.2
		c7.73,10.22,15.4,20.56,19.37,32.93C397.68,403.42,386.93,417.33,370.88,417.29z"/>
	<path class="st1" d="M226.82,293.94c-0.02-11.78-7.6-19.29-19.44-19.31c-19.38-0.02-38.76-0.02-58.14,0
		c-12.05,0.02-19.49,7.53-19.49,19.71c-0.01,36.27-0.01,72.55,0,108.83c0,12.12,7.33,19.76,19.45,19.84
		c19.37,0.14,38.75,0.14,58.13,0c12.15-0.08,19.49-7.69,19.5-19.79c0.02-18.07,0-36.13,0-54.2
		C226.83,330.66,226.87,312.3,226.82,293.94z M216.33,402.43c0,7.4-2.61,10.09-9.91,10.11c-18.79,0.04-37.57,0.04-56.36,0
		c-7.13-0.02-9.82-2.72-9.82-9.75c-0.02-18.06-0.01-36.11-0.01-54.17c0-17.91,0-35.82,0.01-53.73c0-7.17,2.57-9.76,9.68-9.77
		c18.94-0.01,37.86-0.01,56.8,0c7.04,0.01,9.61,2.64,9.61,9.84C216.35,330.8,216.35,366.61,216.33,402.43z"/>
	<path class="st1" d="M226.82,293.94c-0.02-11.78-7.6-19.29-19.44-19.31c-19.38-0.02-38.76-0.02-58.14,0
		c-12.05,0.02-19.49,7.53-19.49,19.71c-0.01,36.27-0.01,72.55,0,108.83c0,12.12,7.33,19.76,19.45,19.84
		c19.37,0.14,38.75,0.14,58.13,0c12.15-0.08,19.49-7.69,19.5-19.79c0.02-18.07,0-36.13,0-54.2
		C226.83,330.66,226.87,312.3,226.82,293.94z M216.33,402.43c0,7.4-2.61,10.09-9.91,10.11c-18.79,0.04-37.57,0.04-56.36,0
		c-7.13-0.02-9.82-2.72-9.82-9.75c-0.02-18.06-0.01-36.11-0.01-54.17c0-17.91,0-35.82,0.01-53.73c0-7.17,2.57-9.76,9.68-9.77
		c18.94-0.01,37.86-0.01,56.8,0c7.04,0.01,9.61,2.64,9.61,9.84C216.35,330.8,216.35,366.61,216.33,402.43z"/>
	<path class="st1" d="M236.59,62.74c-1.09-0.36-2.43,0.13-3.26-0.97h-8.43c-0.34,0.9-1.18,0.57-1.81,0.69
		c-14.74,2.84-26.54,10.29-35.3,22.49c-3.33,4.64-5.67,9.8-7.62,15.49c-0.36-0.49-0.54-0.74-0.71-0.97
		c-9.32-12.38-21.68-19.52-36.99-21.84c-14.81-2.26-25.73,7.62-24.62,22.46c1.98,26.47,25.1,48.59,51.71,49.48
		c2.75,0.09,6.96-0.98,7.91,0.35c1.39,1.93,0.46,5.54,0.49,8.44c0.06,4.44,2.27,7.04,6.03,7.04c3.78-0.01,5.98-2.58,6-7.05
		c0.02-7.32,0.11-14.64-0.05-21.95c-0.05-2.21,0.63-2.83,2.67-2.43c0.58,0.12,1.19,0.05,1.8,0.06
		c28.67,0.56,52.46-20.28,55.65-48.76C251.25,74.68,245.94,65.91,236.59,62.74z M168.69,119.73c-1.13-1.15-2.31-2.27-3.97-2.55
		c-2.74-0.46-5,0.42-6.42,2.85c-1.39,2.42-1.18,4.89,0.7,6.96c2.44,2.65,5.07,5.12,7.59,7.72c0.75,0.77,1.73,1.37,2.2,2.68
		c-20.78-2.42-35.3-16.1-38.65-36.21c-0.19-1.18-0.29-2.4-0.32-3.59c-0.07-4.97,3.28-8.53,8.28-8.14
		c17.06,1.36,29.13,10.02,36.38,25.46c1.98,4.21,2.92,8.7,3.43,14.17C174.51,125.64,171.59,122.7,168.69,119.73z M237.57,87.07
		c-3.21,18.47-18.46,32.71-37.21,34.76c-0.35,0.04-0.7,0-1.93,0c4.37-4.27,8.21-8.03,12.06-11.78c1.09-1.06,2.08-2.2,2.34-3.75
		c0.46-2.74-0.41-5.01-2.84-6.42c-2.55-1.46-5.06-1.13-7.18,0.9c-3.46,3.33-6.81,6.79-10.24,10.16c-0.69,0.67-1.18,1.64-2.3,1.8
		c0.88-18.57,15.94-35.16,34.78-38.32C235.84,72.61,239.46,76.27,237.57,87.07z"/>
	<path class="st1" d="M82.49,108.09c3.18-0.03,5.69,2.19,5.96,5.51c0.18,2.19,0.15,4.4,0.07,6.6c-0.05,1.41,0.38,2,1.86,1.92
		c1.9-0.1,3.8-0.09,5.7-0.01c4.03,0.17,6.74,2.79,6.6,6.26c-0.14,3.44-2.73,5.62-6.71,5.77c-2.37,0.09-5.41-1.04-6.93,0.47
		c-1.53,1.53-0.38,4.57-0.49,6.94c-0.2,4.12-2.57,6.81-6.07,6.76c-3.39-0.05-5.77-2.67-5.97-6.59c-0.01-0.1,0.01-0.2,0-0.3
		c-0.24-2.35,1.1-5.55-0.59-6.84c-1.55-1.18-4.59-0.39-6.97-0.46c-3.94-0.12-6.5-2.45-6.52-5.93c-0.01-3.31,2.47-5.76,6.17-6.08
		c0.3-0.03,0.6,0,0.9-0.02c2.26-0.17,5.35,1.01,6.57-0.51c1.14-1.42,0.36-4.38,0.44-6.66C76.65,110.75,78.95,108.13,82.49,108.09z"
		/>
	<path class="st1" d="M288.07,157.9c0.07,3.04-2.1,5.65-5.19,5.97c-1.99,0.21-4.02,0.3-6,0.08c-2.51-0.27-3.1,0.78-2.92,3.04
		c0.15,1.89,0.11,3.82-0.1,5.7c-0.38,3.31-3,5.57-6.08,5.46c-3.1-0.11-5.53-2.49-5.75-5.81c-0.14-2.2-0.1-4.41-0.05-6.61
		c0.03-1.3-0.46-1.78-1.76-1.75c-2.2,0.06-4.42,0.09-6.61-0.05c-3.34-0.2-5.69-2.62-5.79-5.76c-0.1-3.07,2.17-5.73,5.47-6.08
		c2.18-0.23,4.41-0.19,6.61-0.1c1.53,0.06,2.18-0.38,2.1-2.02c-0.11-2.1-0.1-4.21,0.04-6.31c0.22-3.36,2.61-5.66,5.77-5.74
		c3.15-0.08,5.72,2.11,6.06,5.45c0.23,2.18,0.2,4.41,0.1,6.61c-0.08,1.61,0.48,2.1,2.05,2.01c2.1-0.11,4.22-0.14,6.31,0.04
		C285.7,152.34,288,154.8,288.07,157.9z"/>
	<path class="st1" d="M116.75,163.97c0.04,3.41-2.64,6.13-6.01,6.09c-3.2-0.04-5.89-2.73-5.93-5.93c-0.05-3.32,2.74-6.12,6.08-6.07
		C114.15,158.09,116.71,160.68,116.75,163.97z"/>
	<path class="st1" d="M265.65,114.65c-0.02-3.45,2.6-6.05,6.04-6c3.27,0.05,5.86,2.65,5.89,5.91c0.03,3.3-2.83,6.15-6.09,6.08
		C268.26,120.57,265.66,117.9,265.65,114.65z"/>
</g>
</svg>
